<?xml version="1.0" encoding="UTF-8" standalone="no"?>
<!-- Created with Inkscape (http://www.inkscape.org/) --><svg height="115.00000pt" id="svg33929" inkscape:version="0.41" sodipodi:docbase="/home/xeem/Imagenes/inkscape/svg" sodipodi:docname="campinggas.svg" sodipodi:version="0.32" width="125.00000pt" xmlns="http://www.w3.org/2000/svg" xmlns:cc="http://web.resource.org/cc/" xmlns:dc="http://purl.org/dc/elements/1.1/" xmlns:inkscape="http://www.inkscape.org/namespaces/inkscape" xmlns:rdf="http://www.w3.org/1999/02/22-rdf-syntax-ns#" xmlns:sodipodi="http://inkscape.sourceforge.net/DTD/sodipodi-0.dtd" xmlns:svg="http://www.w3.org/2000/svg" xmlns:xlink="http://www.w3.org/1999/xlink">
  <metadata>
    <rdf:RDF xmlns:cc="http://web.resource.org/cc/" xmlns:dc="http://purl.org/dc/elements/1.1/" xmlns:rdf="http://www.w3.org/1999/02/22-rdf-syntax-ns#">
      <cc:Work rdf:about="">
        <dc:title>campinggas</dc:title>
        <dc:description></dc:description>
        <dc:subject>
          <rdf:Bag>
            <rdf:li>camping</rdf:li>
            <rdf:li>gas</rdf:li>
            <rdf:li>cook</rdf:li>
            <rdf:li>nature</rdf:li>
          </rdf:Bag>
        </dc:subject>
        <dc:publisher>
          <cc:Agent rdf:about="http://www.openclipart.org/">
            <dc:title>Moiss Rincn Maza</dc:title>
          </cc:Agent>
        </dc:publisher>
        <dc:creator>
          <cc:Agent>
            <dc:title>Moiss Rincn Maza</dc:title>
          </cc:Agent>
        </dc:creator>
        <dc:rights>
          <cc:Agent>
            <dc:title>Moiss Rincn Maza</dc:title>
          </cc:Agent>
        </dc:rights>
        <dc:date>15-08-2005</dc:date>
        <dc:format>image/svg+xml</dc:format>
        <dc:type rdf:resource="http://purl.org/dc/dcmitype/StillImage"/>
        <cc:license rdf:resource="http://web.resource.org/cc/PublicDomain"/>
        <dc:language>Spanish</dc:language>
      </cc:Work>
      <cc:License rdf:about="http://web.resource.org/cc/PublicDomain">
        <cc:permits rdf:resource="http://web.resource.org/cc/Reproduction"/>
        <cc:permits rdf:resource="http://web.resource.org/cc/Distribution"/>
        <cc:permits rdf:resource="http://web.resource.org/cc/DerivativeWorks"/>
      </cc:License>
    </rdf:RDF>
  </metadata>
  <defs id="defs3">
    <linearGradient id="linearGradient2160">
      <stop id="stop2162" offset="0" style="stop-color:#d77e00;stop-opacity:1;"/>
      <stop id="stop2164" offset="1.0000000" style="stop-color:#d70000;stop-opacity:0.75757575;"/>
    </linearGradient>
    <linearGradient id="linearGradient48544" inkscape:collect="always">
      <stop id="stop48546" offset="0" style="stop-color:#000000;stop-opacity:1;"/>
      <stop id="stop48548" offset="1" style="stop-color:#000000;stop-opacity:0;"/>
    </linearGradient>
    <linearGradient id="linearGradient47780">
      <stop id="stop47782" offset="0.0000000" style="stop-color:#c47d3c;stop-opacity:1.0000000;"/>
      <stop id="stop47784" offset="1" style="stop-color:#c4c43c;stop-opacity:0;"/>
    </linearGradient>
    <linearGradient id="linearGradient47010">
      <stop id="stop47012" offset="0" style="stop-color:#c4c43c;stop-opacity:1;"/>
      <stop id="stop47014" offset="1.0000000" style="stop-color:#c4c43c;stop-opacity:0.86734694;"/>
    </linearGradient>
    <linearGradient id="linearGradient47002" inkscape:collect="always">
      <stop id="stop47004" offset="0" style="stop-color:#c4c43c;stop-opacity:1;"/>
      <stop id="stop47006" offset="1" style="stop-color:#c4c43c;stop-opacity:0;"/>
    </linearGradient>
    <linearGradient id="linearGradient46236" inkscape:collect="always">
      <stop id="stop46238" offset="0" style="stop-color:#000000;stop-opacity:1;"/>
      <stop id="stop46240" offset="1" style="stop-color:#000000;stop-opacity:0;"/>
    </linearGradient>
    <linearGradient id="linearGradient43932">
      <stop id="stop43934" offset="0.0000000" style="stop-color:#8d858a;stop-opacity:1.0000000;"/>
      <stop id="stop43936" offset="1.0000000" style="stop-color:#e5e0db;stop-opacity:1.0000000;"/>
    </linearGradient>
    <linearGradient id="linearGradient43160">
      <stop id="stop43162" offset="0.0000000" style="stop-color:#000000;stop-opacity:1.0000000;"/>
      <stop id="stop43164" offset="1" style="stop-color:#c4c4c4;stop-opacity:0;"/>
    </linearGradient>
    <linearGradient id="linearGradient42388">
      <stop id="stop42390" offset="0" style="stop-color:#c4c43c;stop-opacity:1;"/>
      <stop id="stop42392" offset="1.0000000" style="stop-color:#c47d3c;stop-opacity:0.94897962;"/>
    </linearGradient>
    <linearGradient id="linearGradient35470" inkscape:collect="always">
      <stop id="stop35472" offset="0" style="stop-color:#15278e;stop-opacity:1;"/>
      <stop id="stop35474" offset="1" style="stop-color:#15278e;stop-opacity:0;"/>
    </linearGradient>
    <linearGradient gradientTransform="matrix(2.222674,0.000000,0.000000,0.259353,-25.49929,277.6907)" gradientUnits="userSpaceOnUse" id="linearGradient41614" inkscape:collect="always" x1="79.668136" x2="238.17665" xlink:href="#linearGradient35470" y1="458.00296" y2="458.00296"/>
    <linearGradient gradientTransform="matrix(2.222674,0.000000,0.000000,0.259353,-26.80332,529.6508)" gradientUnits="userSpaceOnUse" id="linearGradient41616" inkscape:collect="always" x1="79.668136" x2="238.17665" xlink:href="#linearGradient35470" y1="458.00296" y2="458.00296"/>
    <linearGradient gradientTransform="matrix(0.535550,0.624375,0.196858,-0.168852,201.0609,295.4168)" gradientUnits="userSpaceOnUse" id="linearGradient41618" inkscape:collect="always" x1="79.668136" x2="238.17665" xlink:href="#linearGradient35470" y1="458.00296" y2="458.00296"/>
    <radialGradient cx="123.49092" cy="16.251760" fx="123.49092" fy="16.251760" gradientTransform="scale(1.045928,0.956088)" gradientUnits="userSpaceOnUse" id="radialGradient42386" inkscape:collect="always" r="62.191116" xlink:href="#linearGradient42388"/>
    <linearGradient gradientTransform="scale(1.045928,0.956088)" gradientUnits="userSpaceOnUse" id="linearGradient43158" inkscape:collect="always" x1="61.299805" x2="185.68204" xlink:href="#linearGradient43160" y1="16.251760" y2="16.251760"/>
    <linearGradient gradientTransform="scale(1.886143,0.530183)" gradientUnits="userSpaceOnUse" id="linearGradient43930" inkscape:collect="always" x1="79.110809" x2="285.86270" xlink:href="#linearGradient43932" y1="1256.8014" y2="1256.8014"/>
    <linearGradient gradientTransform="scale(2.248476,0.444746)" gradientUnits="userSpaceOnUse" id="linearGradient44702" inkscape:collect="always" x1="63.383022" x2="236.37517" xlink:href="#linearGradient43932" y1="358.40405" y2="358.40405"/>
    <linearGradient gradientTransform="scale(2.395634,0.417426)" gradientUnits="userSpaceOnUse" id="linearGradient44710" inkscape:collect="always" x1="9.1042080" x2="275.17975" xlink:href="#linearGradient43932" y1="402.61526" y2="402.61526"/>
    <linearGradient gradientTransform="matrix(5.089960,0.000000,-0.131977,0.204427,117.6163,0.000000)" gradientUnits="userSpaceOnUse" id="linearGradient46242" inkscape:collect="always" x1="67.606544" x2="67.137383" xlink:href="#linearGradient46236" y1="1025.1025" y2="986.82947"/>
    <linearGradient gradientTransform="scale(2.094391,0.477466)" gradientUnits="userSpaceOnUse" id="linearGradient47008" inkscape:collect="always" x1="137.11887" x2="190.85745" xlink:href="#linearGradient47002" y1="333.80063" y2="333.80063"/>
    <linearGradient gradientTransform="scale(1.741912,0.574082)" gradientUnits="userSpaceOnUse" id="linearGradient47016" inkscape:collect="always" x1="158.79828" x2="236.21866" xlink:href="#linearGradient47010" y1="296.03140" y2="296.03140"/>
    <linearGradient gradientTransform="scale(2.094391,0.477466)" gradientUnits="userSpaceOnUse" id="linearGradient47020" inkscape:collect="always" x1="137.11887" x2="190.85745" xlink:href="#linearGradient47780" y1="333.80063" y2="333.80063"/>
    <linearGradient gradientTransform="scale(2.236876,0.447052)" gradientUnits="userSpaceOnUse" id="linearGradient48550" inkscape:collect="always" x1="157.84843" x2="162.45139" xlink:href="#linearGradient48544" y1="180.78946" y2="403.71158"/>
    <linearGradient gradientTransform="scale(1.170434,0.854384)" gradientUnits="userSpaceOnUse" id="linearGradient50080" inkscape:collect="always" x1="261.45477" x2="306.36945" xlink:href="#linearGradient43932" y1="302.67279" y2="302.67279"/>
    <linearGradient gradientTransform="scale(1.060880,0.942614)" gradientUnits="userSpaceOnUse" id="linearGradient50846" inkscape:collect="always" x1="540.76532" x2="590.40814" xlink:href="#linearGradient48544" y1="365.27762" y2="365.27762"/>
    <marker id="ArrowStart" markerHeight="3" markerUnits="strokeWidth" markerWidth="4" orient="auto" refX="10" refY="5" viewBox="0 0 10 10">
      <path d="M 10 0 L 0 5 L 10 10 z" id="path1892"/>
    </marker>
    <marker id="ArrowEnd" markerHeight="3" markerUnits="strokeWidth" markerWidth="4" orient="auto" refX="0" refY="5" viewBox="0 0 10 10">
      <path d="M 0 0 L 10 5 L 0 10 z" id="path1890"/>
    </marker>
    <linearGradient gradientTransform="matrix(2.222674,0.000000,0.000000,0.259353,-25.49929,277.6907)" gradientUnits="userSpaceOnUse" id="linearGradient51097" inkscape:collect="always" x1="79.668136" x2="238.17665" xlink:href="#linearGradient35470" y1="458.00296" y2="458.00296"/>
    <linearGradient gradientTransform="matrix(2.222674,0.000000,0.000000,0.259353,-26.80332,529.6508)" gradientUnits="userSpaceOnUse" id="linearGradient51099" inkscape:collect="always" x1="79.668136" x2="238.17665" xlink:href="#linearGradient35470" y1="458.00296" y2="458.00296"/>
    <linearGradient gradientTransform="matrix(0.535550,0.624375,0.196858,-0.168852,201.0609,295.4168)" gradientUnits="userSpaceOnUse" id="linearGradient51101" inkscape:collect="always" x1="79.668136" x2="238.17665" xlink:href="#linearGradient35470" y1="458.00296" y2="458.00296"/>
    <linearGradient gradientTransform="scale(1.170434,0.854384)" gradientUnits="userSpaceOnUse" id="linearGradient51103" inkscape:collect="always" x1="261.45477" x2="306.36945" xlink:href="#linearGradient43932" y1="302.67279" y2="302.67279"/>
    <linearGradient gradientTransform="scale(1.886143,0.530183)" gradientUnits="userSpaceOnUse" id="linearGradient51105" inkscape:collect="always" x1="79.110809" x2="285.86270" xlink:href="#linearGradient43932" y1="1256.8014" y2="1256.8014"/>
    <linearGradient gradientTransform="scale(2.395634,0.417426)" gradientUnits="userSpaceOnUse" id="linearGradient51107" inkscape:collect="always" x1="9.1042080" x2="275.17975" xlink:href="#linearGradient43932" y1="402.61526" y2="402.61526"/>
    <linearGradient gradientTransform="scale(2.248476,0.444746)" gradientUnits="userSpaceOnUse" id="linearGradient51109" inkscape:collect="always" x1="63.383022" x2="236.37517" xlink:href="#linearGradient43932" y1="358.40405" y2="358.40405"/>
    <linearGradient gradientTransform="scale(2.236876,0.447052)" gradientUnits="userSpaceOnUse" id="linearGradient51111" inkscape:collect="always" x1="157.84843" x2="162.45139" xlink:href="#linearGradient48544" y1="180.78946" y2="403.71158"/>
    <linearGradient gradientTransform="scale(1.045928,0.956088)" gradientUnits="userSpaceOnUse" id="linearGradient51113" inkscape:collect="always" x1="61.299805" x2="185.68204" xlink:href="#linearGradient43160" y1="16.251760" y2="16.251760"/>
    <radialGradient cx="123.49092" cy="16.251760" fx="123.49092" fy="16.251760" gradientTransform="scale(1.045928,0.956088)" gradientUnits="userSpaceOnUse" id="radialGradient51115" inkscape:collect="always" r="62.191116" xlink:href="#linearGradient42388"/>
    <linearGradient gradientTransform="scale(1.060880,0.942614)" gradientUnits="userSpaceOnUse" id="linearGradient51117" inkscape:collect="always" x1="540.76532" x2="590.40814" xlink:href="#linearGradient48544" y1="365.27762" y2="365.27762"/>
    <linearGradient gradientTransform="scale(1.741912,0.574082)" gradientUnits="userSpaceOnUse" id="linearGradient51119" inkscape:collect="always" x1="158.79828" x2="236.21866" xlink:href="#linearGradient47010" y1="296.03140" y2="296.03140"/>
    <linearGradient gradientTransform="scale(2.094391,0.477466)" gradientUnits="userSpaceOnUse" id="linearGradient51121" inkscape:collect="always" x1="137.11887" x2="190.85745" xlink:href="#linearGradient47002" y1="333.80063" y2="333.80063"/>
    <linearGradient gradientTransform="matrix(5.089960,0.000000,-0.131977,0.204427,117.6163,8.333620e-15)" gradientUnits="userSpaceOnUse" id="linearGradient51123" inkscape:collect="always" x1="67.606544" x2="67.137383" xlink:href="#linearGradient46236" y1="1025.1025" y2="986.82947"/>
    <linearGradient gradientTransform="scale(2.094391,0.477466)" gradientUnits="userSpaceOnUse" id="linearGradient51125" inkscape:collect="always" x1="137.11887" x2="190.85745" xlink:href="#linearGradient47780" y1="333.80063" y2="333.80063"/>
    <linearGradient gradientTransform="matrix(0.453615,0.000000,0.000000,0.586603,51.20716,32.81798)" gradientUnits="userSpaceOnUse" id="linearGradient2158" inkscape:collect="always" x1="4.8695393" x2="32.995998" xlink:href="#linearGradient2160" y1="-32.839268" y2="-32.839268"/>
    <linearGradient gradientTransform="matrix(0.453615,0.000000,0.000000,0.586603,57.09810,30.46117)" gradientUnits="userSpaceOnUse" id="linearGradient2168" inkscape:collect="always" x1="4.8695393" x2="32.995998" xlink:href="#linearGradient2160" y1="-32.839268" y2="-32.839268"/>
    <linearGradient gradientTransform="matrix(0.192191,0.000000,0.000000,0.586603,69.15537,28.42159)" gradientUnits="userSpaceOnUse" id="linearGradient2172" inkscape:collect="always" x1="4.8695393" x2="32.995998" xlink:href="#linearGradient2160" y1="-32.839268" y2="-32.839268"/>
    <linearGradient gradientTransform="matrix(0.383902,0.000000,0.000000,0.673621,60.86900,36.17418)" gradientUnits="userSpaceOnUse" id="linearGradient2176" inkscape:collect="always" x1="4.8695393" x2="32.995998" xlink:href="#linearGradient2160" y1="-32.839268" y2="-32.839268"/>
    <linearGradient gradientTransform="matrix(-0.383902,0.000000,0.000000,0.673621,89.37181,35.76626)" gradientUnits="userSpaceOnUse" id="linearGradient2186" inkscape:collect="always" x1="4.8695393" x2="32.995998" xlink:href="#linearGradient2160" y1="-32.839268" y2="-32.839268"/>
    <linearGradient gradientTransform="matrix(-0.192191,0.000000,0.000000,0.586603,81.08541,28.01367)" gradientUnits="userSpaceOnUse" id="linearGradient2188" inkscape:collect="always" x1="4.8695393" x2="32.995998" xlink:href="#linearGradient2160" y1="-32.839268" y2="-32.839268"/>
    <linearGradient gradientTransform="matrix(-0.453615,0.000000,0.000000,0.586603,93.14271,30.05325)" gradientUnits="userSpaceOnUse" id="linearGradient2190" inkscape:collect="always" x1="4.8695393" x2="32.995998" xlink:href="#linearGradient2160" y1="-32.839268" y2="-32.839268"/>
    <linearGradient gradientTransform="matrix(-0.453615,0.000000,0.000000,0.586603,99.03361,32.41006)" gradientUnits="userSpaceOnUse" id="linearGradient2192" inkscape:collect="always" x1="4.8695393" x2="32.995998" xlink:href="#linearGradient2160" y1="-32.839268" y2="-32.839268"/>
    <linearGradient gradientTransform="matrix(1.204804,0.000000,-3.123922e-2,4.838828e-2,23.83097,-24.72693)" gradientUnits="userSpaceOnUse" id="linearGradient2204" inkscape:collect="always" x1="67.606544" x2="67.137383" xlink:href="#linearGradient46236" y1="1025.1025" y2="986.82947"/>
    <linearGradient gradientTransform="matrix(0.251112,0.000000,0.000000,0.185668,-4.009046,-16.41548)" gradientUnits="userSpaceOnUse" id="linearGradient2209" inkscape:collect="always" x1="540.76532" x2="590.40814" xlink:href="#linearGradient48544" y1="365.27762" y2="365.27762"/>
    <linearGradient gradientTransform="matrix(0.532219,0.000000,0.000000,0.105272,-4.009046,-24.72693)" gradientUnits="userSpaceOnUse" id="linearGradient2214" inkscape:collect="always" x1="63.383022" x2="236.37517" xlink:href="#linearGradient43932" y1="358.40405" y2="358.40405"/>
    <linearGradient gradientTransform="matrix(0.529473,0.000000,0.000000,0.105818,-4.009046,-24.72693)" gradientUnits="userSpaceOnUse" id="linearGradient2216" inkscape:collect="always" x1="157.84843" x2="162.45139" xlink:href="#linearGradient48544" y1="180.78946" y2="403.71158"/>
    <linearGradient gradientTransform="matrix(0.567051,0.000000,0.000000,9.880557e-2,-4.009046,-24.72693)" gradientUnits="userSpaceOnUse" id="linearGradient2219" inkscape:collect="always" x1="9.1042080" x2="275.17975" xlink:href="#linearGradient43932" y1="402.61526" y2="402.61526"/>
    <linearGradient gradientTransform="matrix(0.277044,0.000000,0.000000,0.202234,-4.009046,-24.72693)" gradientUnits="userSpaceOnUse" id="linearGradient2223" inkscape:collect="always" x1="261.45477" x2="306.36945" xlink:href="#linearGradient43932" y1="302.67279" y2="302.67279"/>
    <linearGradient gradientTransform="scale(2.094391,0.477466)" gradientUnits="userSpaceOnUse" id="linearGradient2230" inkscape:collect="always" x1="137.11887" x2="190.85745" xlink:href="#linearGradient47780" y1="333.80063" y2="333.80063"/>
    <linearGradient gradientTransform="scale(2.094391,0.477466)" gradientUnits="userSpaceOnUse" id="linearGradient2232" inkscape:collect="always" x1="137.11887" x2="190.85745" xlink:href="#linearGradient47002" y1="333.80063" y2="333.80063"/>
    <linearGradient gradientTransform="scale(1.741912,0.574082)" gradientUnits="userSpaceOnUse" id="linearGradient2234" inkscape:collect="always" x1="158.79828" x2="236.21866" xlink:href="#linearGradient47010" y1="296.03140" y2="296.03140"/>
  </defs>
  <sodipodi:namedview bordercolor="#666666" borderopacity="1.0" id="base" inkscape:current-layer="layer1" inkscape:cx="76.592771" inkscape:cy="97.858404" inkscape:document-units="px" inkscape:guide-bbox="true" inkscape:pageopacity="0.0" inkscape:pageshadow="2" inkscape:window-height="685" inkscape:window-width="1024" inkscape:window-x="0" inkscape:window-y="25" inkscape:zoom="3.4698466" pagecolor="#ffffff" showguides="true"/>
  <g id="layer1" inkscape:groupmode="layer" inkscape:label="Layer 1">
    <g id="g41608" transform="matrix(0.236702,0.000000,0.000000,0.236702,-5.398731,-24.72693)">
      <path d="M 331.96875,266.77004 C 236.25027,266.77004 158.43308,315.16183 156.00000,375.33254 L 151.43750,375.33254 L 151.43750,630.73879 C 140.94321,637.41212 135.03125,644.79970 135.03125,652.55129 C 135.03125,682.52937 222.17728,706.83256 329.53125,706.83254 C 436.88520,706.83254 524.00000,682.52937 524.00000,652.55129 C 524.00000,646.16871 519.84707,640.05402 512.59375,634.36379 L 512.59375,375.33254 L 507.87500,375.33254 C 505.44192,315.16183 427.68721,266.77004 331.96875,266.77004 z " id="rect33939" style="fill:#155c8e;fill-opacity:1.0000000;fill-rule:evenodd;stroke:none;stroke-width:1.0000000;stroke-linecap:round;stroke-linejoin:round;stroke-miterlimit:4.0000000;stroke-opacity:1.0000000"/>
      <path d="M 154.86038,375.92031 C 152.77128,378.04760 151.57699,380.23717 151.57699,382.48353 C 151.57699,401.56259 230.51049,417.02994 327.74751,417.02994 C 424.98452,417.02994 503.88973,401.56259 503.88971,382.48353 C 503.88971,380.64583 502.95056,378.85411 501.54040,377.09374 C 485.88620,393.03422 414.44162,405.09681 328.65326,405.09681 C 240.78215,405.09681 168.09063,392.43621 154.86038,375.92031 z " id="path34704" style="fill:url(#linearGradient51097);fill-opacity:1.0000000;fill-rule:evenodd;stroke:none;stroke-width:1.0000000;stroke-linecap:round;stroke-linejoin:round;stroke-miterlimit:4.0000000;stroke-opacity:1.0000000"/>
      <path d="M 153.55635,627.88044 C 151.46725,630.00773 150.27296,632.19730 150.27296,634.44366 C 150.27296,653.52272 229.20646,668.99007 326.44348,668.99007 C 423.68049,668.99007 502.58570,653.52272 502.58568,634.44366 C 502.58568,632.60596 501.64653,630.81424 500.23637,629.05387 C 484.58217,644.99435 413.13759,657.05694 327.34923,657.05694 C 239.47812,657.05694 166.78660,644.39634 153.55635,627.88044 z " id="path35478" style="fill:url(#linearGradient51099);fill-opacity:1.0000000;fill-rule:evenodd;stroke:none;stroke-width:1.0000000;stroke-linecap:round;stroke-linejoin:round;stroke-miterlimit:4.0000000;stroke-opacity:1.0000000"/>
      <path d="M 319.07784,282.12936 C 320.18917,280.15753 321.56336,278.39652 323.26842,276.93402 C 337.75007,264.51257 368.50919,276.61585 391.93829,303.93084 C 415.36738,331.24582 422.63922,363.48125 408.15757,375.90269 C 406.76269,377.09913 405.17643,378.00181 403.50048,378.75177 C 411.82798,363.97625 403.76944,336.05329 383.09889,311.95436 C 361.92649,287.27036 334.80177,275.09318 319.07784,282.12936 z " id="path41604" style="fill:url(#linearGradient51101);fill-opacity:1.0000000;fill-rule:evenodd;stroke:none;stroke-width:1.0000000;stroke-linecap:round;stroke-linejoin:round;stroke-miterlimit:4.0000000;stroke-opacity:1.0000000"/>
    </g>
    <rect height="8.8691778" id="rect39295" style="fill:url(#linearGradient2223);fill-opacity:1.0000000;fill-rule:evenodd;stroke:#000000;stroke-width:0.21411060;stroke-linecap:round;stroke-linejoin:round;stroke-miterlimit:4.0000000;stroke-opacity:1.0000000" width="12.229226" x="68.532494" y="32.049335"/>
    <path d="M 538.67787 666.33417 A 194.48180 54.308125 0 1 1  149.71428,666.33417 A 194.48180 54.308125 0 1 1  538.67787 666.33417 z" id="path34709" sodipodi:cx="344.19608" sodipodi:cy="666.33417" sodipodi:rx="194.48180" sodipodi:ry="54.308125" sodipodi:type="arc" style="stroke-opacity:1.0000000;stroke-miterlimit:4.0000000;stroke-linejoin:round;stroke-linecap:round;stroke-width:1.0000000;stroke:#000000;fill-rule:evenodd;fill-opacity:1.0000000;fill:url(#linearGradient51105)" transform="matrix(0.236702,0.000000,0.000000,0.236702,-5.435096,-136.5252)"/>
    <path d="M 40.469440,2.0271775 L 116.75108,2.0271775 L 151.91368,28.080219 L 1.2718596,26.906657 L 40.469440,2.0271775 z " id="rect35482" sodipodi:nodetypes="ccccc" style="fill:url(#linearGradient2219);fill-opacity:1.0000000;fill-rule:evenodd;stroke:#000000;stroke-width:0.23670200;stroke-linecap:round;stroke-linejoin:round;stroke-miterlimit:4.0000000;stroke-opacity:1.0000000"/>
    <path d="M 75.755736,3.8974145 C 50.344841,3.8974145 29.724596,9.6574156 29.724594,16.753292 C 29.724594,18.605355 31.153640,20.362053 33.681956,21.953339 C 40.965939,17.533582 56.926603,14.460241 75.482049,14.460241 C 94.260554,14.460241 110.39732,17.603215 117.55583,22.108675 C 120.24924,20.475192 121.79427,18.668507 121.79428,16.753292 C 121.79428,9.6574203 101.16663,3.8974145 75.755736,3.8974145 z " id="path37774" style="fill:url(#linearGradient2214);fill-opacity:1.0000000;fill-rule:evenodd;stroke:url(#linearGradient2216);stroke-width:0.23670200;stroke-linecap:round;stroke-linejoin:round;stroke-miterlimit:4.0000000;stroke-opacity:1.0000000"/>
    <path d="M 166.73727,68.377399 L 102.18981,74.498317 L 64.615214,21.659035 L 91.588074,-37.301164 L 156.13553,-43.422082 L 193.71013,9.4171998 L 166.73727,68.377399 z " id="path39303" inkscape:flatsided="true" inkscape:randomized="0.0000000" inkscape:rounded="0.0000000" sodipodi:arg1="0.95265210" sodipodi:arg2="1.4762509" sodipodi:cx="129.16267" sodipodi:cy="15.538117" sodipodi:r1="64.837029" sodipodi:r2="56.150513" sodipodi:sides="6" sodipodi:type="star" style="stroke-opacity:1.0000000;stroke-miterlimit:4.0000000;stroke-linejoin:round;stroke-linecap:round;stroke-width:1.0000000;stroke:#000000;fill-rule:evenodd;fill-opacity:1.0000000;fill:url(#linearGradient51113)" transform="matrix(0.108158,0.000000,0.000000,0.108158,64.54489,35.77611)"/>
    <path d="M 166.73727,68.377399 L 102.18981,74.498317 L 64.615214,21.659035 L 91.588074,-37.301164 L 156.13553,-43.422082 L 193.71013,9.4171998 L 166.73727,68.377399 z " id="path39305" inkscape:flatsided="true" inkscape:randomized="0.0000000" inkscape:rounded="0.0000000" sodipodi:arg1="0.95265210" sodipodi:arg2="1.4762509" sodipodi:cx="129.16267" sodipodi:cy="15.538117" sodipodi:r1="64.837029" sodipodi:r2="56.150513" sodipodi:sides="6" sodipodi:type="star" style="stroke-opacity:1.0000000;stroke-miterlimit:4.0000000;stroke-linejoin:round;stroke-linecap:round;stroke-width:1.0000000;stroke:#000000;fill-rule:evenodd;fill-opacity:1.0000000;fill:url(#radialGradient51115)" transform="matrix(0.108158,0.000000,0.000000,0.108158,66.11676,35.77611)"/>
    <path d="M 68.810435,21.916044 L 83.263157,21.684760 L 88.266024,24.691464 L 64.641382,24.460180 L 68.810435,21.916044 z " id="rect49314" sodipodi:nodetypes="ccccc" style="fill:url(#linearGradient2209);fill-opacity:1.0000000;fill-rule:evenodd;stroke:#000000;stroke-width:0.21592481;stroke-linecap:round;stroke-linejoin:round;stroke-miterlimit:4.0000000;stroke-opacity:1.0000000"/>
    <path d="M 410.97218 169.94623 A 66.929756 21.722815 0 1 1  277.11266,169.94623 A 66.929756 21.722815 0 1 1  410.97218 169.94623 z" id="path44714" sodipodi:cx="344.04242" sodipodi:cy="169.94623" sodipodi:rx="66.929756" sodipodi:ry="21.722815" sodipodi:type="arc" style="fill:url(#linearGradient2234);fill-opacity:1.0000000;fill-rule:evenodd;stroke:#000000;stroke-width:1.0000000;stroke-linecap:round;stroke-linejoin:round;stroke-miterlimit:4.0000000;stroke-opacity:1.0000000" transform="matrix(0.222275,0.000000,0.000000,0.196971,-0.296415,-14.56521)"/>
    <path d="M 71.364097,0.90845269 C 70.600047,2.5964037 70.091297,5.2167298 70.091297,8.1874507 C 70.091297,13.280587 71.542907,17.407515 73.325697,17.407515 C 74.164947,17.407515 74.922457,16.467394 75.496937,14.966477 C 74.045437,14.932353 72.452667,12.470021 71.626137,8.6286023 C 71.031887,5.8667275 70.983157,3.0546059 71.364097,0.90845269 z " id="path2170" style="fill:url(#linearGradient2172);fill-opacity:1.0000000;fill-rule:evenodd;stroke:none;stroke-width:2.8800001;stroke-linecap:round;stroke-linejoin:round;stroke-miterlimit:4.0000000;stroke-opacity:0.26368156"/>
    <path d="M 87.929724,2.5401186 C 89.733054,4.2280695 90.933824,6.8483960 90.933824,9.8191169 C 90.933824,14.912254 87.507694,19.039181 83.299874,19.039181 C 81.319054,19.039181 79.531144,18.099060 78.175244,16.598143 C 81.601134,16.564019 85.360434,14.101688 87.311234,10.260268 C 88.713804,7.4983937 88.828834,4.6862718 87.929724,2.5401186 z " id="path2180" style="fill:url(#linearGradient2190);fill-opacity:1.0000000;fill-rule:evenodd;stroke:none;stroke-width:2.8800001;stroke-linecap:round;stroke-linejoin:round;stroke-miterlimit:4.0000000;stroke-opacity:0.26368156"/>
    <path d="M 399.23012 159.37837 A 55.774796 12.329165 0 1 1  287.68053,159.37837 A 55.774796 12.329165 0 1 1  399.23012 159.37837 z" id="path44712" sodipodi:cx="343.45532" sodipodi:cy="159.37837" sodipodi:rx="55.774796" sodipodi:ry="12.329165" sodipodi:type="arc" style="fill:url(#linearGradient2232);fill-opacity:1.0000000;fill-rule:evenodd;stroke:#000000;stroke-width:1.0000000;stroke-linecap:round;stroke-linejoin:round;stroke-miterlimit:4.0000000;stroke-opacity:1.0000000" transform="matrix(0.236702,0.000000,0.000000,0.214999,-4.842857,-16.74464)"/>
    <path d="M 75.006418,25.022218 C 98.573636,25.022218 118.35175,24.009254 119.15738,22.761361 C 119.36765,22.435655 118.24174,22.126718 116.07753,21.846870 C 108.82024,22.624138 93.668662,23.164621 76.459501,23.164621 C 59.043460,23.164621 44.434326,22.611891 38.306729,21.819553 C 35.623279,22.106821 33.985225,22.424549 33.767779,22.761361 C 32.962147,24.009254 51.439205,25.022218 75.006418,25.022218 z " id="path44716" style="fill:none;fill-opacity:1.0000000;fill-rule:evenodd;stroke:url(#linearGradient2204);stroke-width:0.24145056;stroke-linecap:round;stroke-linejoin:round;stroke-miterlimit:4.0000000;stroke-opacity:1.0000000"/>
    <path d="M 78.876714,0.50053664 C 79.640764,2.1884876 80.149514,4.8088136 80.149514,7.7795345 C 80.149514,12.872672 78.697904,16.999600 76.915114,16.999600 C 76.075864,16.999600 75.318354,16.059479 74.743874,14.558562 C 76.195374,14.524438 77.788144,12.062105 78.614674,8.2206860 C 79.208924,5.4588113 79.257654,2.6466899 78.876714,0.50053664 z " id="path2182" style="fill:url(#linearGradient2188);fill-opacity:1.0000000;fill-rule:evenodd;stroke:none;stroke-width:2.8800001;stroke-linecap:round;stroke-linejoin:round;stroke-miterlimit:4.0000000;stroke-opacity:0.26368156"/>
    <path d="M 62.311082,2.9480346 C 60.507752,4.6359856 59.306982,7.2563117 59.306982,10.227033 C 59.306982,15.320169 62.733112,19.447097 66.940932,19.447097 C 68.921752,19.447097 70.709662,18.506976 72.065562,17.006059 C 68.639672,16.971935 64.880372,14.509603 62.929572,10.668184 C 61.527002,7.9063094 61.411972,5.0941878 62.311082,2.9480346 z " id="path2166" style="fill:url(#linearGradient2168);fill-opacity:1.0000000;fill-rule:evenodd;stroke:none;stroke-width:2.8800001;stroke-linecap:round;stroke-linejoin:round;stroke-miterlimit:4.0000000;stroke-opacity:0.26368156"/>
    <path d="M 399.23012 159.37837 A 55.774796 12.329165 0 1 1  287.68053,159.37837 A 55.774796 12.329165 0 1 1  399.23012 159.37837 z" id="path47018" sodipodi:cx="343.45532" sodipodi:cy="159.37837" sodipodi:rx="55.774796" sodipodi:ry="12.329165" sodipodi:type="arc" style="fill:url(#linearGradient2230);fill-opacity:1.0000000;fill-rule:evenodd;stroke:none;stroke-width:1.0000000;stroke-linecap:round;stroke-linejoin:round;stroke-miterlimit:4.0000000;stroke-opacity:1.0000000" transform="matrix(0.205723,0.000000,0.000000,0.186861,5.042022,-12.25992)"/>
    <g id="g1893" transform="matrix(0.236702,0.000000,0.000000,0.236702,58.37374,90.26716)">
      <path d="M 12.473000,121.08200 C 11.578633,122.80064 10.454729,124.49000 10.454629,126.42300 L 10.442692,127.18412 C 10.442692,131.35612 13.756600,133.92500 17.511300,133.92500 L 138.83100,133.92500 C 142.58600,133.92500 145.84557,130.59814 145.84557,126.42614 L 145.83414,125.73379 C 145.86121,124.39635 144.84529,122.57163 143.78900,120.47400 L 83.705600,12.693800 C 81.051000,9.7442300 76.747300,9.7442300 74.092300,12.694200 L 12.473000,121.08200 z " id="path1894" sodipodi:nodetypes="ccccccccccc" style="fill:#ffffff;stroke:#000000;stroke-width:2.0000000"/>
      <path d="M 78.703000,16.291500 L 15.279700,128.12800 L 76.466700,128.12800 L 79.318800,128.12800 L 139.82600,128.12800 L 79.515500,16.291500 L 78.703000,16.291500 z " id="path1895" style="fill:#ffcc00;stroke:#000000;stroke-width:4.8516002;stroke-linecap:round;stroke-linejoin:round"/>
      <g id="g1896">
        <path d="M 77.499700,53.046600 C 80.658600,59.364500 84.141600,65.601400 86.004500,72.486300 C 86.976500,70.542300 87.381500,68.274400 87.219500,65.844400 C 89.811500,71.514300 91.269500,77.589200 92.646500,83.745100 C 94.752400,82.125200 94.833400,79.452200 95.319400,77.103200 C 97.182400,83.097200 98.397400,90.387100 97.263400,97.353000 C 99.207400,98.162900 99.531400,95.004000 100.42200,93.870000 C 100.58400,99.134900 99.531400,104.80500 94.995400,108.61200 C 91.269500,112.01400 86.571600,113.22900 81.711600,113.71500 C 81.873600,112.74300 83.412600,111.93300 84.465600,111.77100 C 88.515500,108.53100 89.406500,103.99500 89.892500,99.296900 C 89.163500,98.406000 88.191500,99.377900 87.543500,100.10700 C 87.543500,97.514900 89.325500,93.870000 87.543500,91.116100 C 86.895500,93.060000 85.923600,94.923000 84.465600,96.543000 C 84.060600,93.060000 83.493600,89.010100 80.982600,86.094100 L 77.094700,96.219000 C 75.231700,95.490000 75.717700,92.655000 73.935700,91.926000 C 72.720700,94.923000 73.125700,99.134900 73.611700,102.37500 C 69.804800,100.18800 70.452700,95.409000 68.913800,91.926000 C 68.508800,94.923000 66.483800,97.758000 67.374800,100.83600 C 66.483800,100.83600 65.349800,99.134900 64.620800,100.83600 C 65.025800,106.02000 71.424700,108.61200 71.991700,113.71500 C 66.645800,113.39100 61.947900,110.15100 59.193900,105.53400 C 56.601900,99.863900 57.573900,91.845000 58.383900,85.689100 L 60.327900,89.172100 C 62.109800,86.337100 62.271900,82.125200 62.676900,78.318200 L 62.676900,73.620300 C 64.701800,74.592300 65.511800,76.779200 66.969800,78.318200 C 69.804800,74.106300 71.343800,69.003300 70.047700,63.495400 C 72.720700,62.928400 73.125700,71.757300 75.555700,66.249400 L 77.094700,53.046600 L 77.499700,53.046600 z " id="path1897" style="fill:#000000;stroke:none"/>
        <path d="M 78.228700,74.025300 C 77.742600,72.162300 77.337600,69.489300 78.633700,67.788400 C 79.119600,69.651300 79.524600,72.486300 78.228700,74.025300 z " id="path1898" style="fill:#ffcc00;stroke:none"/>
        <path d="M 92.646500,103.59000 C 92.403500,103.75200 92.241500,104.07600 91.836500,103.99500 L 93.375400,100.43100 C 94.185400,101.07900 93.294400,102.69900 92.646500,103.59000 z " id="path1899" style="fill:#ffcc00;stroke:none"/>
        <path d="M 93.780400,115.87700 L 93.780400,117.60300 L 65.025800,117.60300 L 65.025800,115.98300 L 93.780400,115.87700 z " id="path1900" style="fill:#000000;stroke:none"/>
      </g>
    </g>
    <path d="M 56.420152,5.3048390 C 54.616821,6.9927899 53.416054,9.6131160 53.416054,12.583837 C 53.416054,17.676973 56.842180,21.803901 61.049996,21.803901 C 63.030817,21.803901 64.818730,20.863780 66.174633,19.362863 C 62.748743,19.328739 58.989438,16.866407 57.038642,13.024989 C 55.636074,10.263114 55.521045,7.4509922 56.420152,5.3048390 z " id="path1376" style="fill:url(#linearGradient2158);fill-opacity:1.0000000;fill-rule:evenodd;stroke:none;stroke-width:2.8800001;stroke-linecap:round;stroke-linejoin:round;stroke-miterlimit:4.0000000;stroke-opacity:0.26368156"/>
    <path d="M 65.280774,4.5797001 C 63.754584,6.5180445 62.738354,9.5270741 62.738354,12.938477 C 62.738354,18.787137 65.637944,23.526260 69.199094,23.526260 C 70.875494,23.526260 72.388634,22.446680 73.536154,20.723114 C 70.636764,20.683929 67.455204,17.856331 65.804214,13.445069 C 64.617194,10.273494 64.519844,7.0442173 65.280774,4.5797001 z " id="path2174" style="fill:url(#linearGradient2176);fill-opacity:1.0000000;fill-rule:evenodd;stroke:none;stroke-width:2.8800001;stroke-linecap:round;stroke-linejoin:round;stroke-miterlimit:4.0000000;stroke-opacity:0.26368156"/>
    <path d="M 93.820654,4.8969233 C 95.623984,6.5848742 96.824754,9.2052003 96.824754,12.175921 C 96.824754,17.269058 93.398634,21.395985 89.190814,21.395985 C 87.209994,21.395985 85.422084,20.455865 84.066174,18.954948 C 87.492064,18.920824 91.251374,16.458492 93.202164,12.617073 C 94.604734,9.8551980 94.719764,7.0430765 93.820654,4.8969233 z " id="path2178" style="fill:url(#linearGradient2192);fill-opacity:1.0000000;fill-rule:evenodd;stroke:none;stroke-width:2.8800001;stroke-linecap:round;stroke-linejoin:round;stroke-miterlimit:4.0000000;stroke-opacity:0.26368156"/>
    <path d="M 84.960034,4.1717840 C 86.486224,6.1101288 87.502454,9.1191577 87.502454,12.530561 C 87.502454,18.379222 84.602864,23.118344 81.041714,23.118344 C 79.365314,23.118344 77.852174,22.038764 76.704654,20.315199 C 79.604044,20.276013 82.785604,17.448415 84.436594,13.037154 C 85.623614,9.8655774 85.720964,6.6363011 84.960034,4.1717840 z " id="path2184" style="fill:url(#linearGradient2186);fill-opacity:1.0000000;fill-rule:evenodd;stroke:none;stroke-width:2.8800001;stroke-linecap:round;stroke-linejoin:round;stroke-miterlimit:4.0000000;stroke-opacity:0.26368156"/>
  </g>
</svg>
