<?xml version="1.0" encoding="UTF-8" standalone="no"?>
<!-- Created with Inkscape (http://www.inkscape.org/) -->

<svg
   xmlns:cdml="http://www.freesoftware.fsf.org/bkchem/cdml"
   xmlns:dc="http://purl.org/dc/elements/1.1/"
   xmlns:cc="http://creativecommons.org/ns#"
   xmlns:rdf="http://www.w3.org/1999/02/22-rdf-syntax-ns#"
   xmlns:svg="http://www.w3.org/2000/svg"
   xmlns="http://www.w3.org/2000/svg"
   xmlns:xlink="http://www.w3.org/1999/xlink"
   xmlns:sodipodi="http://sodipodi.sourceforge.net/DTD/sodipodi-0.dtd"
   xmlns:inkscape="http://www.inkscape.org/namespaces/inkscape"
   version="1.0"
   width="434.96536"
   height="326.17102"
   id="svg2"
   sodipodi:version="0.32"
   inkscape:version="0.47 r22583"
   sodipodi:docname="acetic_acid.svg"
   inkscape:output_extension="org.inkscape.output.svg.inkscape">
  <metadata
     id="metadata26">
    <rdf:RDF>
      <cc:Work
         rdf:about="">
        <dc:format>image/svg+xml</dc:format>
        <dc:type
           rdf:resource="http://purl.org/dc/dcmitype/StillImage" />
      </cc:Work>
    </rdf:RDF>
  </metadata>
  <sodipodi:namedview
     inkscape:window-height="999"
     inkscape:window-width="1280"
     inkscape:pageshadow="2"
     inkscape:pageopacity="0.0"
     guidetolerance="10.0"
     gridtolerance="10.0"
     objecttolerance="10.0"
     borderopacity="1.0"
     bordercolor="#666666"
     pagecolor="#ffffff"
     id="base"
     showgrid="false"
     inkscape:zoom="3.0773287"
     inkscape:cx="271.01643"
     inkscape:cy="131.4929"
     inkscape:window-x="0"
     inkscape:window-y="0"
     inkscape:current-layer="layer1"
     units="px"
     inkscape:window-maximized="1" />
  <defs
     id="defs47">
    <inkscape:perspective
       sodipodi:type="inkscape:persp3d"
       inkscape:vp_x="0 : 200 : 1"
       inkscape:vp_y="0 : 1000 : 0"
       inkscape:vp_z="500 : 200 : 1"
       inkscape:persp3d-origin="250 : 133.33333 : 1"
       id="perspective28" />
    <inkscape:perspective
       id="perspective3009"
       inkscape:persp3d-origin="24 : 16 : 1"
       inkscape:vp_z="48 : 24 : 1"
       inkscape:vp_y="0 : 1000 : 0"
       inkscape:vp_x="0 : 24 : 1"
       sodipodi:type="inkscape:persp3d" />
  </defs>
  <g
     transform="matrix(4.2157359,0,0,4.2157359,-334.55565,-307.52278)"
     id="g4"
     style="font-size:15px;stroke-linecap:round;font-family:Helvetica">
    <g
       id="g6"
       style="stroke:#000000;stroke-width:1;stroke-linecap:butt">
      <path
         style=""
         d="m 111,114 -15,0"
         id="line8" />
    </g>
    <g
       id="g10"
       style="stroke:#000000;stroke-width:1;stroke-linecap:butt">
      <path
         style=""
         d="m 119,122 0,12"
         id="line12" />
    </g>
    <g
       id="g14"
       style="stroke:#000000;stroke-width:1;stroke-linecap:butt">
      <path
         style=""
         d="m 127,114 14,0"
         id="line16" />
    </g>
    <g
       id="g18"
       style="stroke:#000000;stroke-width:1;stroke-linecap:butt">
      <path
         style=""
         d="m 153.83,122 4.62,8"
         id="line20" />
    </g>
    <g
       id="g22"
       style="stroke:#000000;stroke-width:1;stroke-linecap:butt">
      <path
         style=""
         d="m 119,104 0,-12"
         id="line24" />
    </g>
    <g
       transform="translate(-1.7205885,1.7205885)"
       id="g26"
       style="stroke:#000000;stroke-width:1;stroke-linecap:butt">
      <path
         style=""
         d="m 153.25,103 4.62,-8"
         id="line28" />
      <path
         style=""
         d="M 156.71001,105 161.33,97"
         id="line30" />
    </g>
    <g
       style="fill:#000000;font-family:helvetica"
       id="text32">
      <path
         d="m 114.88353,147.21001 0,-10.73731 1.4209,0 0,4.40918 5.58105,0 0,-4.40918 1.4209,0 0,10.73731 -1.4209,0 0,-5.06104 -5.58105,0 0,5.06104 z"
         style="fill:#000000;font-family:helvetica"
         id="path3011" />
    </g>
    <g
       style="fill:#000000;font-family:helvetica"
       id="text34">
      <path
         d="m 122.26542,115.36658 1.4209,0.35889 c -0.29786,1.167 -0.83375,2.05689 -1.60767,2.66968 -0.77393,0.61279 -1.71998,0.91919 -2.83813,0.91919 -1.15723,0 -2.0984,-0.2356 -2.82349,-0.70679 -0.7251,-0.47119 -1.27686,-1.15356 -1.65527,-2.04712 -0.37842,-0.89355 -0.56763,-1.85302 -0.56763,-2.87842 0,-1.11815 0.21362,-2.09349 0.64087,-2.92602 0.42724,-0.83251 1.03515,-1.46483 1.82373,-1.89697 0.78857,-0.43212 1.65649,-0.64819 2.60376,-0.6482 1.07421,1e-5 1.97753,0.27345 2.70996,0.82032 0.73241,0.54688 1.24267,1.31592 1.53076,2.30712 l -1.39892,0.32959 c -0.24904,-0.78124 -0.61036,-1.35008 -1.08399,-1.70654 -0.47364,-0.35643 -1.06934,-0.53466 -1.78711,-0.53467 -0.8252,10e-6 -1.51489,0.19777 -2.06909,0.59327 -0.5542,0.39551 -0.94361,0.92652 -1.16821,1.59301 -0.22461,0.66651 -0.33692,1.35377 -0.33692,2.06177 0,0.91309 0.13306,1.71021 0.39917,2.39136 0.26611,0.68115 0.67993,1.19019 1.24146,1.5271 0.56152,0.33691 1.16943,0.50537 1.82373,0.50537 0.79589,0 1.46972,-0.22949 2.02148,-0.68848 0.55175,-0.45898 0.92529,-1.14013 1.12061,-2.04346 z"
         style="fill:#000000;font-family:helvetica"
         id="path3014" />
    </g>
    <g
       style="fill:#000000;font-family:helvetica"
       id="text36">
      <path
         d="m 151.88307,115.33828 1.4209,0.35889 c -0.29786,1.16699 -0.83375,2.05688 -1.60767,2.66967 -0.77393,0.6128 -1.71997,0.91919 -2.83813,0.91919 -1.15723,0 -2.09839,-0.23559 -2.82349,-0.70678 -0.7251,-0.47119 -1.27685,-1.15357 -1.65527,-2.04712 -0.37842,-0.89355 -0.56763,-1.85303 -0.56763,-2.87842 0,-1.11816 0.21362,-2.0935 0.64087,-2.92603 0.42725,-0.83251 1.03516,-1.46483 1.82373,-1.89697 0.78857,-0.43212 1.65649,-0.64818 2.60376,-0.64819 1.07421,1e-5 1.97753,0.27345 2.70996,0.82031 0.73242,0.54689 1.24267,1.31593 1.53076,2.30713 l -1.39892,0.32959 c -0.24903,-0.78124 -0.61036,-1.35009 -1.08399,-1.70654 -0.47364,-0.35644 -1.06934,-0.53466 -1.7871,-0.53467 -0.8252,10e-6 -1.5149,0.19776 -2.0691,0.59326 -0.5542,0.39552 -0.9436,0.92652 -1.16821,1.59302 -0.22461,0.66651 -0.33692,1.35376 -0.33691,2.06177 -1e-5,0.91309 0.13305,1.7102 0.39917,2.39135 0.26611,0.68116 0.67992,1.19019 1.24145,1.5271 0.56152,0.33692 1.16943,0.50537 1.82373,0.50537 0.79589,0 1.46972,-0.22949 2.02149,-0.68847 0.55175,-0.45899 0.92528,-1.14014 1.1206,-2.04346 z"
         style="fill:#000000;font-family:helvetica"
         id="path3017" />
    </g>
    <g
       style="fill:#000000;font-family:helvetica"
       id="text38">
      <path
         d="m 115.07471,86.790001 0,-10.737305 1.4209,0 0,4.40918 5.58106,0 0,-4.40918 1.4209,0 0,10.737305 -1.4209,0 0,-5.061035 -5.58106,0 0,5.061035 z"
         style="fill:#000000;font-family:helvetica"
         id="path3020" />
    </g>
    <g
       style="fill:#000000;font-family:helvetica"
       id="text40">
      <path
         d="m 83.501175,119.13123 0,-10.7373 1.420898,0 0,4.40918 5.581055,0 0,-4.40918 1.420898,0 0,10.7373 -1.420898,0 0,-5.06103 -5.581055,0 0,5.06103 z"
         style="fill:#000000;font-family:helvetica"
         id="path3023" />
    </g>
    <g
       style="fill:#000000;font-family:helvetica"
       id="text44">
      <path
         d="m 169.97015,142.96883 0,-10.73731 1.4209,0 0,4.40918 5.58106,0 0,-4.40918 1.4209,0 0,10.73731 -1.4209,0 0,-5.06104 -5.58106,0 0,5.06104 z"
         style="fill:#000000;font-family:helvetica"
         id="path3031" />
    </g>
  </g>
  <cdml:cdml
     version="0.15">
    <cdml:info>
      <cdml:author_program
         version="0.13.0">BKchem</cdml:author_program>
    </cdml:info>
    <cdml:paper
       use_real_minus="0"
       type="A4"
       replace_minus="0"
       orientation="portrait"
       crop_svg="1"
       crop_margin="1" />
    <cdml:viewport
       viewport="0.000000 0.000000 640.000000 480.000000" />
    <cdml:standard
       paper_type="A4"
       paper_orientation="portrait"
       paper_crop_svg="1"
       paper_crop_margin="1"
       line_width="1.0px"
       line_color="#000"
       font_size="12"
       font_family="helvetica"
       area_color="">
      <cdml:bond
         width="6.0px"
         wedge-width="5.0px"
         length="0.8cm"
         double-ratio="0.75" />
      <cdml:arrow
         length="1.6cm" />
      <cdml:atom
         show_hydrogens="0" />
    </cdml:standard>
    <cdml:molecule
       name=""
       id="molecule22920">
      <cdml:atom
         valency="1"
         pos="center-first"
         name="H"
         id="atom32486">
        <cdml:point
           y="3.819cm"
           x="3.152cm" />
      </cdml:atom>
      <cdml:atom
         valency="4"
         show="yes"
         pos="center-first"
         name="C"
         id="atom33460">
        <cdml:point
           y="3.019cm"
           x="3.152cm" />
      </cdml:atom>
      <cdml:atom
         valency="4"
         show="yes"
         pos="center-last"
         name="C"
         id="atom96685">
        <cdml:point
           y="3.019cm"
           x="3.952cm" />
      </cdml:atom>
      <cdml:atom
         valency="1"
         pos="center-first"
         name="H"
         id="atom74307">
        <cdml:point
           y="2.219cm"
           x="3.152cm" />
      </cdml:atom>
      <cdml:atom
         valency="1"
         pos="center-first"
         name="H"
         id="atom69961">
        <cdml:point
           y="3.019cm"
           x="2.352cm" />
      </cdml:atom>
      <cdml:atom
         valency="2"
         pos="center-first"
         name="O"
         id="atom71910">
        <cdml:point
           y="2.326cm"
           x="4.352cm" />
      </cdml:atom>
      <cdml:atom
         valency="2"
         pos="center-first"
         name="O"
         id="atom98251"
         hydrogens="on">
        <cdml:point
           y="3.712cm"
           x="4.352cm" />
      </cdml:atom>
      <cdml:bond
         type="n1"
         start="atom33460"
         line_width="1.0"
         id="bond80277"
         end="atom69961"
         double_ratio="0.75" />
      <cdml:bond
         type="n1"
         start="atom33460"
         line_width="1.0"
         id="bond97471"
         end="atom32486"
         double_ratio="0.75" />
      <cdml:bond
         type="n1"
         start="atom33460"
         line_width="1.0"
         id="bond13736"
         end="atom96685"
         double_ratio="0.75" />
      <cdml:bond
         type="n1"
         start="atom96685"
         line_width="1.0"
         id="bond12880"
         end="atom98251"
         double_ratio="0.75" />
      <cdml:bond
         type="n1"
         start="atom33460"
         line_width="1.0"
         id="bond76282"
         end="atom74307"
         double_ratio="0.75" />
      <cdml:bond
         type="n2"
         start="atom96685"
         line_width="1.0"
         id="bond85442"
         end="atom71910"
         double_ratio="0.75"
         center="yes"
         bond_width="6.0" />
    </cdml:molecule>
  </cdml:cdml>
  <g
     inkscape:label="Layer 1"
     id="layer1"
     transform="matrix(1.1914828,0,0,1.1914828,323.42646,42.979836)">
    <path
       d="m 43.955057,23.932585 c 0,11.058106 -8.964366,20.022472 -20.022472,20.022472 -11.058106,0 -20.0224726,-8.964366 -20.0224726,-20.022472 0,-11.058106 8.9643666,-20.0224726 20.0224726,-20.0224726 11.058106,0 20.022472,8.9643666 20.022472,20.0224726 z"
       sodipodi:ry="20.022472"
       sodipodi:rx="20.022472"
       sodipodi:cy="23.932585"
       sodipodi:cx="23.932585"
       id="path1880"
       style="fill:none;fill-opacity:1;fill-rule:evenodd;stroke:#000000;stroke-opacity:1;stroke-width:3.52501941000000008;stroke-miterlimit:4;stroke-dasharray:none"
       sodipodi:type="arc" />
    <path
       transform="translate(2,0)"
       d="m 19.016854,18 c 0,2.218447 -1.798407,4.016854 -4.016854,4.016854 -2.218447,0 -4.016854,-1.798407 -4.016854,-4.016854 0,-2.218447 1.798407,-4.016854 4.016854,-4.016854 2.218447,0 4.016854,1.798407 4.016854,4.016854 z"
       sodipodi:ry="4.0168543"
       sodipodi:rx="4.0168543"
       sodipodi:cy="18"
       sodipodi:cx="15"
       id="path5427"
       style="fill:#000000;fill-opacity:1;fill-rule:evenodd;stroke:none"
       sodipodi:type="arc" />
    <path
       sodipodi:nodetypes="cc"
       id="path6316"
       d="m 15,31.25 c 6,-7 12,-7 18,0"
       style="fill:none;stroke:#000000;stroke-width:4;stroke-linecap:round;stroke-linejoin:miter;stroke-miterlimit:4;stroke-opacity:1;stroke-dasharray:none" />
    <use
       height="48"
       width="48"
       transform="translate(14,0)"
       id="use7203"
       xlink:href="#path5427"
       y="0"
       x="0" />
    <path
       sodipodi:type="arc"
       style="fill:none;stroke:#000000;stroke-width:3.52501941;stroke-miterlimit:4;stroke-opacity:1;stroke-dasharray:none"
       id="path3810"
       sodipodi:cx="23.932585"
       sodipodi:cy="23.932585"
       sodipodi:rx="20.022472"
       sodipodi:ry="20.022472"
       d="m 43.955057,23.932585 a 20.022472,20.022472 0 1 1 -40.0449446,0 20.022472,20.022472 0 1 1 40.0449446,0 z"
       transform="translate(-3.8182676,167.45831)" />
    <path
       sodipodi:type="arc"
       style="fill:#000000;fill-opacity:1;fill-rule:evenodd;stroke:none"
       id="path3812"
       sodipodi:cx="15"
       sodipodi:cy="18"
       sodipodi:rx="4.0168543"
       sodipodi:ry="4.0168543"
       d="m 19.016854,18 a 4.0168543,4.0168543 0 1 1 -8.033708,0 4.0168543,4.0168543 0 1 1 8.033708,0 z"
       transform="translate(-1.8182676,167.45831)" />
    <path
       style="fill:none;stroke:#000000;stroke-width:4;stroke-linecap:round;stroke-linejoin:miter;stroke-miterlimit:4;stroke-opacity:1;stroke-dasharray:none"
       d="m 11.181732,198.70831 c 6,-7 12,-7 18,0"
       id="path3814"
       sodipodi:nodetypes="cc" />
    <use
       x="0"
       y="0"
       xlink:href="#path5427"
       id="use3816"
       transform="translate(10.181732,167.45831)"
       width="48"
       height="48" />
  </g>
</svg>
