<?xml version="1.0" encoding="UTF-8" standalone="no"?>
<!-- Created with Inkscape (http://www.inkscape.org/) -->

<svg
   xmlns:dc="http://purl.org/dc/elements/1.1/"
   xmlns:cc="http://creativecommons.org/ns#"
   xmlns:rdf="http://www.w3.org/1999/02/22-rdf-syntax-ns#"
   xmlns:svg="http://www.w3.org/2000/svg"
   xmlns="http://www.w3.org/2000/svg"
   xmlns:sodipodi="http://sodipodi.sourceforge.net/DTD/sodipodi-0.dtd"
   xmlns:inkscape="http://www.inkscape.org/namespaces/inkscape"
   width="170.66269"
   height="150.69919"
   id="svg9443"
   version="1.1"
   inkscape:version="0.47 r22583"
   sodipodi:docname="New document 10">
  <defs
     id="defs9445">
    <inkscape:perspective
       sodipodi:type="inkscape:persp3d"
       inkscape:vp_x="0 : 526.18109 : 1"
       inkscape:vp_y="0 : 1000 : 0"
       inkscape:vp_z="744.09448 : 526.18109 : 1"
       inkscape:persp3d-origin="372.04724 : 350.78739 : 1"
       id="perspective9451" />
    <inkscape:perspective
       id="perspective9430"
       inkscape:persp3d-origin="0.5 : 0.33333333 : 1"
       inkscape:vp_z="1 : 0.5 : 1"
       inkscape:vp_y="0 : 1000 : 0"
       inkscape:vp_x="0 : 0.5 : 1"
       sodipodi:type="inkscape:persp3d" />
  </defs>
  <sodipodi:namedview
     id="base"
     pagecolor="#ffffff"
     bordercolor="#666666"
     borderopacity="1.0"
     inkscape:pageopacity="0.0"
     inkscape:pageshadow="2"
     inkscape:zoom="0.35"
     inkscape:cx="143.18848"
     inkscape:cy="129.63532"
     inkscape:document-units="px"
     inkscape:current-layer="layer1"
     showgrid="false"
     inkscape:window-width="1366"
     inkscape:window-height="692"
     inkscape:window-x="1280"
     inkscape:window-y="282"
     inkscape:window-maximized="1" />
  <metadata
     id="metadata9448">
    <rdf:RDF>
      <cc:Work
         rdf:about="">
        <dc:format>image/svg+xml</dc:format>
        <dc:type
           rdf:resource="http://purl.org/dc/dcmitype/StillImage" />
        <dc:title></dc:title>
      </cc:Work>
    </rdf:RDF>
  </metadata>
  <g
     inkscape:label="Layer 1"
     inkscape:groupmode="layer"
     id="layer1"
     transform="translate(-231.81152,-511.29831)">
    <path
       style="fill:none;stroke:#000000;stroke-width:13.49874401;stroke-linecap:butt;stroke-linejoin:round;stroke-miterlimit:4;stroke-opacity:1;stroke-dasharray:none"
       d="m 274.24684,649.4424 c -21.48584,-14.02449 -35.68595,-38.27995 -35.68595,-65.85201 0,-27.37045 13.99318,-51.47261 35.21578,-65.54271"
       id="path9399" />
    <path
       style="fill:none;stroke:#000000;stroke-width:13.49874401;stroke-linecap:butt;stroke-linejoin:round;stroke-miterlimit:4;stroke-opacity:1;stroke-dasharray:none"
       d="m 360.55352,518.07718 c 21.19767,14.07428 35.17131,38.16189 35.17131,65.51321 l 0,0 0,0 c 0,27.54712 -14.17442,51.78364 -35.62765,65.81393"
       id="path9375" />
    <path
       style="fill:none;stroke:#000000;stroke-width:9.20448875;stroke-linecap:butt;stroke-linejoin:round;stroke-miterlimit:4;stroke-opacity:1;stroke-dasharray:none"
       d="m 287.99749,628.5614 c -14.70913,-9.55245 -24.4379,-26.1256 -24.4379,-44.97101 0,-18.65052 9.52858,-35.07552 23.98315,-44.6724"
       id="path9406" />
    <path
       style="fill:none;stroke:#000000;stroke-width:9.20448875;stroke-linecap:butt;stroke-linejoin:round;stroke-miterlimit:4;stroke-opacity:1;stroke-dasharray:none"
       d="m 346.82282,538.9711 c 14.4098,9.60429 23.90332,26.00313 23.90332,44.61929 l 0,0 0,0 c 0,18.81105 -9.69332,35.35811 -24.35749,44.91869"
       id="path9380" />
    <path
       style="fill:none;stroke:#000000;stroke-width:5.68460798;stroke-linecap:butt;stroke-linejoin:round;stroke-miterlimit:4;stroke-opacity:1;stroke-dasharray:none"
       d="m 299.25765,611.43823 c -9.14832,-5.88766 -15.20733,-16.16017 -15.20733,-27.84784 0,-11.49773 5.86368,-21.62593 14.76377,-27.55733"
       id="path9413" />
    <path
       style="fill:none;stroke:#000000;stroke-width:5.68460798;stroke-linecap:butt;stroke-linejoin:round;stroke-miterlimit:4;stroke-opacity:1;stroke-dasharray:none"
       d="m 335.58744,556.11059 c 8.83512,5.94189 14.64796,16.03201 14.64796,27.4798 l 0,0 0,0 c 0,11.63773 -6.00733,21.87236 -15.09021,27.77212"
       id="path9385" />
    <path
       style="fill:none;stroke:#000000;stroke-width:3.11509466;stroke-linecap:butt;stroke-linejoin:round;stroke-miterlimit:4;stroke-opacity:1;stroke-dasharray:none"
       d="m 307.48595,598.94236 c -5.09346,-3.21071 -8.47739,-8.88616 -8.47739,-15.35197 0,-6.26944 3.18151,-11.79581 8.0181,-15.05267"
       id="path9420" />
    <path
       style="fill:none;stroke:#000000;stroke-width:3.11509466;stroke-linecap:butt;stroke-linejoin:round;stroke-miterlimit:4;stroke-opacity:1;stroke-dasharray:none"
       d="m 327.37539,568.61671 c 4.77121,3.26678 7.90177,8.75464 7.90177,14.97368 l 0,0 0,0 c 0,6.41434 -3.33026,12.05085 -8.35607,15.27482"
       id="path9390" />
    <path
       style="fill:#000000;fill-opacity:1;stroke:none"
       d="m 322.6499,584.09103 c -0.0572,2.25605 -1.35776,4.13099 -3.36411,5.07405 -0.32939,0.1394 3.17208,70.54619 3.30536,72.80262 -5.27681,0.0192 -5.40291,0.008 -10.93591,0.0298 0.0939,-2.25644 3.67408,-72.69301 3.34469,-72.83241 -2.05982,-0.93508 -3.27434,-2.85541 -3.36411,-5.07405 0,-3.03989 2.46715,-5.50704 5.50704,-5.50704 3.03989,0 5.50704,2.46715 5.50704,5.50704 z"
       id="path2385"
       sodipodi:nodetypes="ccccccsc" />
  </g>
</svg>
