<?xml version="1.0" encoding="UTF-8" standalone="no"?>
<!-- Created with Inkscape (http://www.inkscape.org/) -->

<svg
   xmlns:dc="http://purl.org/dc/elements/1.1/"
   xmlns:cc="http://creativecommons.org/ns#"
   xmlns:rdf="http://www.w3.org/1999/02/22-rdf-syntax-ns#"
   xmlns:svg="http://www.w3.org/2000/svg"
   xmlns="http://www.w3.org/2000/svg"
   xmlns:xlink="http://www.w3.org/1999/xlink"
   xmlns:sodipodi="http://sodipodi.sourceforge.net/DTD/sodipodi-0.dtd"
   xmlns:inkscape="http://www.inkscape.org/namespaces/inkscape"
   width="457.29688"
   height="686.57147"
   id="svg3992"
   version="1.1"
   inkscape:version="0.47 r22583"
   sodipodi:docname="cida.svg">
  <defs
     id="defs3994">
    <inkscape:perspective
       sodipodi:type="inkscape:persp3d"
       inkscape:vp_x="0 : 526.18109 : 1"
       inkscape:vp_y="0 : 1000 : 0"
       inkscape:vp_z="744.09448 : 526.18109 : 1"
       inkscape:persp3d-origin="372.04724 : 350.78739 : 1"
       id="perspective4000" />
    <inkscape:perspective
       id="perspective4020"
       inkscape:persp3d-origin="0.5 : 0.33333333 : 1"
       inkscape:vp_z="1 : 0.5 : 1"
       inkscape:vp_y="0 : 1000 : 0"
       inkscape:vp_x="0 : 0.5 : 1"
       sodipodi:type="inkscape:persp3d" />
    <radialGradient
       xlink:href="#linearGradient912"
       r="12.239094"
       inkscape:collect="always"
       id="radialGradient17463"
       gradientUnits="userSpaceOnUse"
       gradientTransform="scale(1.022475,0.978019)"
       fy="42.72097"
       fx="44.699299"
       cy="42.72097"
       cx="44.699299" />
    <linearGradient
       id="linearGradient912">
      <stop
         style="stop-color:#ffffff;stop-opacity:1.0000000;"
         offset="0.0000000"
         id="stop913" />
      <stop
         style="stop-color:#ffffff;stop-opacity:0.0000000;"
         offset="1.0000000"
         id="stop914" />
    </linearGradient>
    <linearGradient
       y2="546.3053"
       y1="499.79263"
       xlink:href="#linearGradient14422"
       x2="448.46774"
       x1="408.05783"
       inkscape:collect="always"
       id="linearGradient14443"
       gradientUnits="userSpaceOnUse" />
    <linearGradient
       y2="543.17145"
       y1="501.27704"
       xlink:href="#linearGradient14414"
       x2="392.05878"
       x1="359.40097"
       inkscape:collect="always"
       id="linearGradient14441"
       gradientUnits="userSpaceOnUse" />
    <linearGradient
       y2="288.36218"
       y1="112.36218"
       xlink:href="#linearGradient2424"
       x2="197"
       x1="114"
       inkscape:collect="always"
       id="linearGradient7610"
       gradientUnits="userSpaceOnUse"
       gradientTransform="translate(84,5)" />
    <linearGradient
       id="linearGradient2424">
      <stop
         style="stop-color:#dec164;stop-opacity:1;"
         offset="0"
         id="stop2426" />
      <stop
         style="stop-color:#d5a864;stop-opacity:1.0000000;"
         offset="1.0000000"
         id="stop2428" />
    </linearGradient>
    <linearGradient
       inkscape:collect="always"
       id="linearGradient14414">
      <stop
         style="stop-color:#000000;stop-opacity:1;"
         offset="0"
         id="stop14416" />
      <stop
         style="stop-color:#000000;stop-opacity:0;"
         offset="1"
         id="stop14418" />
    </linearGradient>
    <linearGradient
       inkscape:collect="always"
       id="linearGradient14422">
      <stop
         style="stop-color:#000000;stop-opacity:1;"
         offset="0"
         id="stop14424" />
      <stop
         style="stop-color:#000000;stop-opacity:0;"
         offset="1"
         id="stop14426" />
    </linearGradient>
    <inkscape:perspective
       id="perspective4165"
       inkscape:persp3d-origin="64 : 42.666667 : 1"
       inkscape:vp_z="128 : 64 : 1"
       inkscape:vp_y="0 : 1000 : 0"
       inkscape:vp_x="0 : 64 : 1"
       sodipodi:type="inkscape:persp3d" />
  </defs>
  <sodipodi:namedview
     id="base"
     pagecolor="#ffffff"
     bordercolor="#666666"
     borderopacity="1.0"
     inkscape:pageopacity="0.0"
     inkscape:pageshadow="2"
     inkscape:zoom="0.9899495"
     inkscape:cx="77.558276"
     inkscape:cy="374.65729"
     inkscape:document-units="px"
     inkscape:current-layer="layer1"
     showgrid="false"
     inkscape:window-width="1280"
     inkscape:window-height="999"
     inkscape:window-x="0"
     inkscape:window-y="0"
     inkscape:window-maximized="1" />
  <metadata
     id="metadata3997">
    <rdf:RDF>
      <cc:Work
         rdf:about="">
        <dc:format>image/svg+xml</dc:format>
        <dc:type
           rdf:resource="http://purl.org/dc/dcmitype/StillImage" />
        <dc:title />
      </cc:Work>
    </rdf:RDF>
  </metadata>
  <g
     inkscape:label="Layer 1"
     inkscape:groupmode="layer"
     id="layer1"
     transform="translate(-239.14285,-251.50503)">
    <path
       style="fill:none;stroke:#000000;stroke-width:4.5;stroke-linecap:round;stroke-linejoin:miter;stroke-miterlimit:4;stroke-opacity:1;stroke-dasharray:none"
       d="m 567.44243,513.81244 -204.05082,-19.1929 142.43151,93.94418"
       id="path2837" />
    <path
       sodipodi:type="arc"
       style="fill:#ff6600;fill-opacity:1;fill-rule:evenodd;stroke:none"
       id="path4002"
       sodipodi:cx="317.14285"
       sodipodi:cy="669.50507"
       sodipodi:rx="65.714287"
       sodipodi:ry="268.57144"
       d="m 382.85714,669.50507 c 0,148.32791 -29.42129,268.57144 -65.71429,268.57144 -36.293,0 -65.71428,-120.24353 -65.71428,-268.57144 0,-148.32792 29.42128,-268.57145 65.71428,-268.57145 36.293,0 65.71429,120.24353 65.71429,268.57145 z" />
    <path
       sodipodi:type="arc"
       style="fill:#e9afaf;fill-opacity:1;fill-rule:evenodd;stroke:none"
       id="path4004"
       sodipodi:cx="267.14285"
       sodipodi:cy="333.79074"
       sodipodi:rx="75.714287"
       sodipodi:ry="75.714287"
       d="m 342.85714,333.79074 c 0,41.81585 -33.89844,75.71429 -75.71429,75.71429 -41.81584,0 -75.71428,-33.89844 -75.71428,-75.71429 0,-41.81584 33.89844,-75.71429 75.71428,-75.71429 41.81585,0 75.71429,33.89845 75.71429,75.71429 z"
       transform="translate(47.714286,-6.5714281)" />
    <path
       sodipodi:type="arc"
       style="fill:#ffffff;fill-opacity:1;fill-rule:evenodd;stroke:none"
       id="path4006"
       sodipodi:cx="285.62064"
       sodipodi:cy="313.18304"
       sodipodi:rx="19.950512"
       sodipodi:ry="4.7982244"
       d="m 305.57115,313.18304 c 0,2.64999 -8.93215,4.79823 -19.95051,4.79823 -11.01837,0 -19.95052,-2.14824 -19.95052,-4.79823 0,-2.64998 8.93215,-4.79822 19.95052,-4.79822 11.01836,0 19.95051,2.14824 19.95051,4.79822 z"
       transform="matrix(0.98437644,0.17607677,-0.16680957,0.93256715,129.43532,-40.53655)" />
    <path
       sodipodi:type="arc"
       style="fill:#000000;fill-opacity:1;fill-rule:evenodd;stroke:none"
       id="path4010"
       sodipodi:cx="279.30719"
       sodipodi:cy="309.39499"
       sodipodi:rx="3.0304577"
       sodipodi:ry="3.0304577"
       d="m 282.33765,309.39499 c 0,1.67367 -1.35678,3.03046 -3.03046,3.03046 -1.67368,0 -3.03046,-1.35679 -3.03046,-3.03046 0,-1.67368 1.35678,-3.03046 3.03046,-3.03046 1.67368,0 3.03046,1.35678 3.03046,3.03046 z"
       transform="translate(79.317279,-7.0507627)" />
    <path
       style="fill:none;stroke:#000000;stroke-width:2.73999786;stroke-linecap:butt;stroke-linejoin:miter;stroke-miterlimit:4;stroke-opacity:1;stroke-dasharray:none"
       d="m 330.69496,359.40126 c 22.95585,-14.38856 23.95606,-11.94807 51.55498,2.16335 l -1.02375,-0.54408"
       id="path4190"
       sodipodi:nodetypes="ccc" />
    <path
       sodipodi:type="arc"
       style="fill:#27ce3a;fill-opacity:1;fill-rule:evenodd;stroke:#000000;stroke-width:0.64399999;stroke-linecap:round;stroke-linejoin:round;stroke-miterlimit:4;stroke-opacity:1;stroke-dasharray:none"
       id="path3611"
       sodipodi:cx="272.74118"
       sodipodi:cy="436.05365"
       sodipodi:rx="20.203051"
       sodipodi:ry="20.203051"
       d="m 292.94423,436.05365 c 0,11.15784 -9.04521,20.20305 -20.20305,20.20305 -11.15784,0 -20.20305,-9.04521 -20.20305,-20.20305 0,-11.15784 9.04521,-20.20305 20.20305,-20.20305 11.15784,0 20.20305,9.04521 20.20305,20.20305 z"
       transform="translate(237.12254,195.94664)" />
    <path
       transform="translate(215.92965,232.29183)"
       d="m 292.94423,436.05365 c 0,11.15784 -9.04521,20.20305 -20.20305,20.20305 -11.15784,0 -20.20305,-9.04521 -20.20305,-20.20305 0,-11.15784 9.04521,-20.20305 20.20305,-20.20305 11.15784,0 20.20305,9.04521 20.20305,20.20305 z"
       sodipodi:ry="20.203051"
       sodipodi:rx="20.203051"
       sodipodi:cy="436.05365"
       sodipodi:cx="272.74118"
       id="path3615"
       style="fill:#27ce3a;fill-opacity:1;fill-rule:evenodd;stroke:#000000;stroke-width:0.61000001;stroke-miterlimit:4;stroke-opacity:1;stroke-dasharray:none"
       sodipodi:type="arc" />
    <path
       sodipodi:type="arc"
       style="fill:#27ce3a;fill-opacity:1;fill-rule:evenodd;stroke:#000000;stroke-width:0.61000001;stroke-miterlimit:4;stroke-opacity:1;stroke-dasharray:none"
       id="path3617"
       sodipodi:cx="272.74118"
       sodipodi:cy="436.05365"
       sodipodi:rx="20.203051"
       sodipodi:ry="20.203051"
       d="m 292.94423,436.05365 c 0,11.15784 -9.04521,20.20305 -20.20305,20.20305 -11.15784,0 -20.20305,-9.04521 -20.20305,-20.20305 0,-11.15784 9.04521,-20.20305 20.20305,-20.20305 11.15784,0 20.20305,9.04521 20.20305,20.20305 z"
       transform="translate(196.75705,269.64716)" />
    <path
       transform="translate(176.5743,308.01266)"
       d="m 292.94423,436.05365 c 0,11.15784 -9.04521,20.20305 -20.20305,20.20305 -11.15784,0 -20.20305,-9.04521 -20.20305,-20.20305 0,-11.15784 9.04521,-20.20305 20.20305,-20.20305 11.15784,0 20.20305,9.04521 20.20305,20.20305 z"
       sodipodi:ry="20.203051"
       sodipodi:rx="20.203051"
       sodipodi:cy="436.05365"
       sodipodi:cx="272.74118"
       id="path3619"
       style="fill:#27ce3a;fill-opacity:1;fill-rule:evenodd;stroke:#000000;stroke-width:0.61000001;stroke-miterlimit:4;stroke-opacity:1;stroke-dasharray:none"
       sodipodi:type="arc" />
    <path
       transform="matrix(0.99264257,0.12108146,-0.12108146,0.99264257,457.99312,-69.441952)"
       d="m 292.94423,436.05365 c 0,11.15784 -9.04521,20.20305 -20.20305,20.20305 -11.15784,0 -20.20305,-9.04521 -20.20305,-20.20305 0,-11.15784 9.04521,-20.20305 20.20305,-20.20305 11.15784,0 20.20305,9.04521 20.20305,20.20305 z"
       sodipodi:ry="20.203051"
       sodipodi:rx="20.203051"
       sodipodi:cy="436.05365"
       sodipodi:cx="272.74118"
       id="path3621"
       style="fill:#27ce3a;fill-opacity:1;fill-rule:evenodd;stroke:#000000;stroke-width:0.61000001;stroke-miterlimit:4;stroke-opacity:1;stroke-dasharray:none"
       sodipodi:type="arc" />
    <path
       sodipodi:type="arc"
       style="fill:#27ce3a;fill-opacity:1;fill-rule:evenodd;stroke:#000000;stroke-width:0.61000001;stroke-miterlimit:4;stroke-opacity:1;stroke-dasharray:none"
       id="path3623"
       sodipodi:cx="272.74118"
       sodipodi:cy="436.05365"
       sodipodi:rx="20.203051"
       sodipodi:ry="20.203051"
       d="m 292.94423,436.05365 c 0,11.15784 -9.04521,20.20305 -20.20305,20.20305 -11.15784,0 -20.20305,-9.04521 -20.20305,-20.20305 0,-11.15784 9.04521,-20.20305 20.20305,-20.20305 11.15784,0 20.20305,9.04521 20.20305,20.20305 z"
       transform="matrix(0.99264257,0.12108146,-0.12108146,0.99264257,430.65512,-35.925415)" />
    <path
       transform="matrix(0.99264257,0.12108146,-0.12108146,0.99264257,408.23071,-1.1615378)"
       d="m 292.94423,436.05365 c 0,11.15784 -9.04521,20.20305 -20.20305,20.20305 -11.15784,0 -20.20305,-9.04521 -20.20305,-20.20305 0,-11.15784 9.04521,-20.20305 20.20305,-20.20305 11.15784,0 20.20305,9.04521 20.20305,20.20305 z"
       sodipodi:ry="20.203051"
       sodipodi:rx="20.203051"
       sodipodi:cy="436.05365"
       sodipodi:cx="272.74118"
       id="path3625"
       style="fill:#27ce3a;fill-opacity:1;fill-rule:evenodd;stroke:#000000;stroke-width:0.61000001;stroke-miterlimit:4;stroke-opacity:1;stroke-dasharray:none"
       sodipodi:type="arc" />
    <path
       sodipodi:type="arc"
       style="fill:#27ce3a;fill-opacity:1;fill-rule:evenodd;stroke:#000000;stroke-width:0.61000001;stroke-miterlimit:4;stroke-opacity:1;stroke-dasharray:none"
       id="path3627"
       sodipodi:cx="272.74118"
       sodipodi:cy="436.05365"
       sodipodi:rx="20.203051"
       sodipodi:ry="20.203051"
       d="m 292.94423,436.05365 c 0,11.15784 -9.04521,20.20305 -20.20305,20.20305 -11.15784,0 -20.20305,-9.04521 -20.20305,-20.20305 0,-11.15784 9.04521,-20.20305 20.20305,-20.20305 11.15784,0 20.20305,9.04521 20.20305,20.20305 z"
       transform="matrix(0.99264257,0.12108146,-0.12108146,0.99264257,387.42993,35.07944)" />
  </g>
</svg>
