<?xml version="1.0" encoding="UTF-8" standalone="no"?>
<svg xmlns:rdf="http://www.w3.org/1999/02/22-rdf-syntax-ns#" xmlns="http://www.w3.org/2000/svg" height="399px" width="501px" xmlns:cc="http://creativecommons.org/ns#" xmlns:xlink="http://www.w3.org/1999/xlink" xmlns:dc="http://purl.org/dc/elements/1.1/">
<title>Bos primigenius (Cow) 1</title>
<desc xmlns:ian_image_library="http://ian.umces.edu/imagelibrary/">
      <ian_image_library:title>Bos primigenius (Cow) 1</ian_image_library:title>
      <ian_image_library:descr>Illustration of Bos primigenius (Cow) </ian_image_library:descr>
      <ian_image_library:scene>
		<ian_image_library:contains>symbol,vector,illustration,mammal,cow,cattle,Chordata,Mammalia,Artiodactyla,Bovidae,Bovinae,Bos,primigenius</ian_image_library:contains>
        <ian_image_library:when>1999-01-01</ian_image_library:when> 
	  </ian_image_library:scene>
   </desc>
    <metadata
		id="metadata-iil-654c6c471574b7340991f0fcc33967d5">
      <rdf:RDF>
      <cc:Work
         rdf:about="">
        <dc:format>image/svg+xml</dc:format>
        <dc:type
           rdf:resource="http://purl.org/dc/dcmitype/StillImage" />
        <cc:license
           rdf:resource="http://creativecommons.org/licenses/by-sa/3.0/" />
        <dc:title>Bos primigenius (Cow) 1</dc:title>
		<dc:date>1999-01-01</dc:date>
        <dc:creator>
			<cc:Agent>
				<dc:title>Diana Kleine</dc:title>
			</cc:Agent>	
		</dc:creator>   
		<dc:rights>
          <cc:Agent>
            <dc:title>Diana Kleine, Marine Botany UQ</dc:title>
          </cc:Agent>
        </dc:rights>
        <dc:publisher>
          <cc:Agent>
            <dc:title>Integration and Application Network</dc:title>
          </cc:Agent>
        </dc:publisher>
		<dc:identifier>http://ian.umces.edu/imagelibrary/displayimage-3797.html</dc:identifier>
        <dc:source>http://ian.umces.edu/imagelibrary/displayimage-3797.html</dc:source>
        <dc:language>en-US</dc:language>
        <dc:subject>
          <rdf:Bag>
            <rdf:li>symbol,vector,illustration,mammal,cow,cattle,Chordata,Mammalia,Artiodactyla,Bovidae,Bovinae,Bos,primigenius</rdf:li>
          </rdf:Bag>
        </dc:subject>
        <dc:coverage></dc:coverage>
        <dc:description>Illustration of Bos primigenius (Cow) </dc:description>
        <dc:contributor>
          <cc:Agent>
            <dc:title></dc:title>
          </cc:Agent>
        </dc:contributor>
      </cc:Work>
      <cc:License
         rdf:about="http://creativecommons.org/licenses/by-sa/3.0/">
        <cc:permits
           rdf:resource="http://creativecommons.org/ns#Reproduction" />
        <cc:permits
           rdf:resource="http://creativecommons.org/ns#Distribution" />
        <cc:requires
           rdf:resource="http://creativecommons.org/ns#Notice" />
        <cc:requires
           rdf:resource="http://creativecommons.org/ns#Attribution" />
        <cc:permits
           rdf:resource="http://creativecommons.org/ns#DerivativeWorks" />
        <cc:requires
           rdf:resource="http://creativecommons.org/ns#ShareAlike" />
      </cc:License>
    </rdf:RDF>
  </metadata>
	
 <defs></defs>
 <linearGradient id="ian_symbols_d337f1dc62f689241d42bfa5b3a57a73" y2="-661.99" gradientUnits="userSpaceOnUse" x2="2311.9" gradientTransform="matrix(.08 0 0 .08 65.044 49.113)" y1="4398.2" x1="2311.9">
  <stop stop-color="#000" offset="0"/>
  <stop stop-color="#000" offset="1"/>
 </linearGradient>
 <path stroke-linejoin="bevel" stroke="#000" stroke-width=".1751" d="m480.95 239.44c-2.322-2.335-5.826-3.763-5.527-8.604 14.543-32.45 7.853-72.229 3.205-105.66-3.205 0-1.642 8.536-1.642 12.377 2.461 22.619 3.206 48.96-4.593 70.774-12.672 27.738 8.261 38.389-4.059 60.654-18.557 58.744-2.508 68.759-7.454 71.771-11.796 1.228-1.214 22.33-10.059 33.904-.408 4.712-11.164 6.108-23.659 5.13-2.336-.816-3.727-3.549-4.484-5.194-3.967 0-8.56 3.192-10.068 0-.293-4.983 10.181-21.157 13.899-23.085.415-4.936 0-5.581 1.17-9.763 2.202-7.57 17.733-48.682 3.494-72.109-1.469 0-11.813 29.709-11.813 36.454-.935 14.658-5.871 26.524-9.25 27.867-18.146-6.765-8.658 45.83-46.407 25.414-3.145-2.322-4.766 1.261-7.842-1.064.751-11.734 11.506-21.219 24.536-31.75 16.106-21.038 16.225-42.508 16.225-42.508-10.582 9.25-5.065-17.103-11.636-17.391-1.57-.809-14.481-2.903-16.756-4.419-1.855 5.184-2.95 7.217-4.344 8.947-9.372 6.054-4.949-9.994-4.949-14.651-5.477-6.204-8.727-13.485-9.94-21.918-33.214 7.57-95.789-8.723-101.14-.636-.289 14.651-12.914 14.651-16.055 24.774-4.646 16.283 5.762 35.309-.408 51.636-8.845 23.094-1.506 41.118-.517 58.631-1.054 4.408-5.184 3.009-5.99 6.344-.993 3.605 1.914 10.986.398 16.35-8.542 4.691-20.869 9.403-29.541 1.611-3.838-2.318-6.985 3.08-9.365.755-1.516-1.561-1.516-3.882-1.516-5.411-10.113-2.318-19.417 5.078-27.385-4.709 1.567-5.228 6.502-10.799 11.398-12.682-4.182-4.647 1.744-8.883 6.112-23.833 2.957-18.907.517-19.192-1.751-27.042-5.292-7.979-3.09-26.63-11.337-54.671-12.448 2.376-24.655-4.82-33.15-11.048-14.135-8.733-13.672-48.101-24.254-58.567-6.509-4.827.35-28.197-5.874-36.75-8.492 1.516-14.135 1.849-21.63-1.798-.119-.071-8.726-4.141-7.152-16.109 3.943-13.274-2.968-26.933-8.315-36.988-1.634-5.541-1.107-8.964-1.927-13.607-.751-3.971-4.063-5.765-5.528-8.046.527-1.441 3.26-7.5 1.863-8.25-2.733-.88-4.647-4.83-3.25-11.238-2.332-.86-4.538 2.808-5.292 1.223 5.636-4.117 6.679-2.838 3.895-12.774-1.583-6.411-16.401 6.384-23.383 2.506-9.304-6.296-9.304-7.689-23.438-19.502-4.368-3.593-9.886-7.788 7.972-12.326 33.966.119 35.244-5.044 41.461 4.194 5.412-3.841 18.558-13.261 17.157-21.705 2.784-4.756 5.649-1.914 7.852.292 3.668-8.413 4.542-1.968 8.778-2.563 21.113-5.344 32.987-1.442 35.546 3.151 3.365 1.387 2.26 2.485 2.26 4.539 4.488 1.614 2.264 0 4.488 2.723 8.138 1.754 16.045 5.66 19.185 7.927 14.012-4.592 29.483 4.004 42.743 10.98.701 1.401-.87 3.434-.183 5.82 9.314 1.584 23.16 6.336 33.269 8.597 9.606 3.042 38.27-9.875 59.212-9.875 18.724-.809 33.501 2.655 52.863.354 17.973-4.657 42.335-22.639 58.329-11.925 14.78-5.466 31.172-14.029 47.455-16.296 2.331-.809 6.979-.809 10.119.771 3.841 2.247 7.733 7.734 11.694 12.381 5.404.874 12.318 4.657 14.779 11.575 20.111 55.252 16.1 97.601 12.432 161.33 0 3.127.643 24.186.119 28.843-.752 5.938 10.354 6.561 2.148 29.149 2.917 6.445 7.102 8.648 5.357 14.06-1.347 4.195-3.838 3.903-4.882 4.195 2.611 5.408-1.863 6.034-4.486 9.313-4.524 6.68 1.634 10.463-2.561 24.999-1.271 7.73 3.902 14.021-5.873 19.658 10.007-16.164-1.048-3.311 1.107-28.445-4.063 9.066-.697 18.907-3.719 15.412-3.09-3.552-5.412-21.749-2.566-34.313-2.553-4.355-4.059-11.337 4.426-23.381-2.34-5.46-.01-9.36-.01-14.76z" fill="url(#ian_symbols_d337f1dc62f689241d42bfa5b3a57a73)"/>
 <linearGradient id="ian_symbols_8ee16833dc7361b4696a752c0250a646" y2="3191.3" gradientUnits="userSpaceOnUse" x2="1688.2" gradientTransform="matrix(.08 0 0 .08 65.044 49.113)" y1="3930.5" x1="1688.2">
  <stop stop-color="#fff" offset="0"/>
  <stop stop-color="#fff" offset="1"/>
 </linearGradient>
 <path stroke-linejoin="bevel" stroke="#000" stroke-width=".1751" d="m194.57 304.98c18.445 18.906 11.293 55.541 3.151 59.134-2.152-6.149-2.624-7.379 2.206-8.776 1.86-9.24-8.31-29.25-5.36-50.35z" fill="url(#ian_symbols_8ee16833dc7361b4696a752c0250a646)"/>
 <linearGradient id="ian_symbols_cedc6218c0a10d0475c2a51d9d2613c8" y2="-654.2" gradientUnits="userSpaceOnUse" x2="380.13" gradientTransform="matrix(.08 0 0 .08 65.044 49.113)" y1="1325.5" x1="380.13">
  <stop stop-color="#fff" offset="0"/>
  <stop stop-color="#fff" offset="1"/>
 </linearGradient>
 <path stroke-linejoin="bevel" stroke="#000" stroke-width=".1751" d="m112.99 153.54c0-3.076 0-6.173-3.147-6.924-2.38-2.444 1.513-6.207 3.902-7.788.87-8.022-14.308 5.884-15.178-6.292-10.765-.86-8.141-6.152-8.909-6.982-1.564-.741-2.438-.924-4.933-.384-3.906 2.318-5.239 7.427-8.261 10.527-.819 3.882 6.163 7.72 0 9.345-.819.765-.819.765-1.57 2.325-.754 2.322 4.592 6.173 3.077 7.785-5.398-2.362-5.398-8.536-5.398-13.302 2.322-16.296 9.293-33.333 3.892-49.66v-5.541c3.838-8.471-.819-17.038 0-25.628-1.57-4.593-4.646-7.693-4.646-11.575-3.96-6.241-10.939-2.39-14.842-5.463-.755-.778-1.387-4.538-2.142-5.368 1.39-11.584-39.429-15.425-24.023-6.988-17.156-7.906-23.557-2.39-25.063 1.458-1.57-.687-3.429-1.108-4.184-3.426 2.788-4.025 8.668-5.636 11.864-5.636 27.33.568 28.146-3.1 34.602-.302 2.852 1.696 3.484 5.517 8.195 4.776 6.282-6.242 16.232-14.264 15.824-22.568 2.203-4.497 4.419.819 6.751.819 1.506-.819 1.506-3.141 3.831-3.141 6.054 3.474 25.76-6.704 38.042 1.56.871 3.097 5.222 1.632 2.087 6.105 5.173 1.163 3.718 2.22 4.592 5.055 4.998.595 5.82 9.029 8.896 10.586 6.979 2.325 12.917-5.517 21.525-4.926 11.275.925 21.113 7.102 31.579 10.984-.874 7.335-6.985 8.56-8.488 9.3 4.232-5.35.87-5.463-2.216-7.094 8.43-9.76-25.934-2.683-27.685-4.647-1.917-2.336 17.16-3.712 8.203-5.647-10.065 1.513-20.532 7.516-26.817 15.186-1.499 3.905 6.285 2.322 7.04 6.173-3.893 4.755-11.683-.771-16.34 3.195-8.482 6.982-11.401 17.211-12.907 28.072 6.917 11.639-.296 27.12 1.217 41.886 1.635 7.676 3.957 15.518 6.227 23.272v6.207c-.75 2.34-3.02 2.34-4.59 4.66z" fill="url(#ian_symbols_cedc6218c0a10d0475c2a51d9d2613c8)"/>
 <linearGradient id="ian_symbols_7f11d5dd3af291f4d59d3e25335f3883" y2="-525" gradientUnits="userSpaceOnUse" x2="376.31" gradientTransform="matrix(.08 0 0 .08 65.044 49.113)" y1="740.66" x1="376.31">
  <stop stop-color="#000" offset="0"/>
  <stop stop-color="#000" offset="1"/>
 </linearGradient>
 <path stroke-linejoin="bevel" stroke="#000" stroke-width=".1751" d="m101.93 98.645c-4.524 9.13-6.505-5.279-12.274-.303-6.211-12.435-7.792-12.078-4.933-21.327 2.206-7.102-7.924-7.972-5.929-26.763-3.087-11.636.462-10.528-8.44-14.433-7.155-3.077-4.83-4.81-1.163-9.882-7.033-.51 2.917-12.673 5.701-15.362 3.021-2.958 1.516 9.209 3.902 7.808 7.325-4.235 7.325 8.379 10.466 4.538 1.506-2.39 3.842-7.397 4.983-10.174 2.343-5.656 5.19 3.549 6.588 1.401 3.318-5.368 9.821-2.271 8.135 4.752-.581 9.896 8.614-5.228 14.077-1.258 4.884 5.558-3.138 12.381-5.463 17.779 8.309-.234-1.451 6.86-3.784 9.939 10.701 1.108 3.083 7.669 0 10.409-3.32 8.736-12.74 1.465-11.87 42.876z" fill="url(#ian_symbols_7f11d5dd3af291f4d59d3e25335f3883)"/>
 <linearGradient id="ian_symbols_57264b216cd7ca9419e111b514a6eff8" y2="-423.92" gradientUnits="userSpaceOnUse" x2="917.7" gradientTransform="matrix(.08 0 0 .08 65.044 49.113)" y1="-218.86" x1="917.7">
  <stop stop-color="#fff" offset="0"/>
  <stop stop-color="#fff" offset="1"/>
 </linearGradient>
 <path stroke-linejoin="bevel" stroke="#000" stroke-width=".1751" d="m147.59 22.921c-13.842 8.444-10.348-4.021-18.261-7.968 12.39 2.268 14.37 5.579 18.26 7.968z" fill="url(#ian_symbols_57264b216cd7ca9419e111b514a6eff8)"/>
 <linearGradient id="ian_symbols_0b094fd8ad1800643d66ab390fa40252" y2="-384.83" gradientUnits="userSpaceOnUse" x2="3795.7" gradientTransform="matrix(.08 0 0 .08 65.044 49.113)" y1="-148.21" x1="3795.7">
  <stop stop-color="#fff" offset="0"/>
  <stop stop-color="#fff" offset="1"/>
 </linearGradient>
 <path stroke-linejoin="bevel" stroke="#000" stroke-width=".1751" d="m343.7 37.001c13.257-3.906 35.063-18.737 50.011-10.831-14.77 4.72-34.43 10.06-50.01 10.831z" fill="url(#ian_symbols_0b094fd8ad1800643d66ab390fa40252)"/>
 <linearGradient id="ian_symbols_93c76222553d6a84e911107b05c280a9" y2="-340.91" gradientUnits="userSpaceOnUse" x2="-471.91" gradientTransform="matrix(.08 0 0 .08 65.044 49.113)" y1="74.572" x1="-471.91">
  <stop stop-color="#FCD3C1" offset="0"/>
  <stop stop-color="#A89989" offset="1"/>
 </linearGradient>
 <path stroke-linejoin="bevel" stroke="#000" stroke-width=".1751" d="m34.526 35.485c.582-2.981-12.445-9.841 1.108-6.69-1.108 9.528 9.08 4.185 11.279 10.12 2.274 3.886-3.362 2.207-6.16 2.798 12.972 3.409-2.614 13.25-11.626 12.38-4.537-1.635-15.704-14.433-21.986-18.274 2.795-13.822 21.912-4.872 27.385-.334z" fill="url(#ian_symbols_93c76222553d6a84e911107b05c280a9)"/>
 <linearGradient id="ian_symbols_96487eb89f6797742151f20b80c67ec5" y2="-235.61" gradientUnits="userSpaceOnUse" x2="1246.8" gradientTransform="matrix(.08 0 0 .08 65.044 49.113)" y1="114.72" x1="1246.8">
  <stop stop-color="#FCD3C1" offset="0"/>
  <stop stop-color="#A89989" offset="1"/>
 </linearGradient>
 <path stroke-linejoin="bevel" stroke="#000" stroke-width=".1751" d="m177.02 33.786c-4.882 4.259 6.112 3.667 3.841 6.292-9.606 11.217-26.698 17.908-32.107 3.905-2.848-4.497 12.51 1.612 3.379-11.306 7.03.775 10.109-2.417 11.272 0 8.44 0 17.85-2.614 13.62 1.109z" fill="url(#ian_symbols_96487eb89f6797742151f20b80c67ec5)"/>
 <linearGradient id="ian_symbols_4a835af836abb0b4f9cc379a12849aa5" y2="-32.047" gradientUnits="userSpaceOnUse" x2="-8.3335" gradientTransform="matrix(.08 0 0 .08 65.044 49.113)" y1="285.82" x1="-8.3335">
  <stop stop-color="#fff" offset="0"/>
  <stop stop-color="#fff" offset="1"/>
 </linearGradient>
 <path stroke-linejoin="bevel" stroke="#000" stroke-width=".1751" d="m72.333 71.603c-7.971 0-.87-7.335-17.792-10.463-.762-2.349 1.455-9.134 4.474-10.65 1.574 0 5.649-4.324 8.78-1.968 2.56 8.121 10.175 11.789 4.538 23.081z" fill="url(#ian_symbols_4a835af836abb0b4f9cc379a12849aa5)"/>
 <linearGradient id="ian_symbols_7389fadcef16c614d1f2bf3a7d9afaa7" y2="-34.616" gradientUnits="userSpaceOnUse" x2="759.89" gradientTransform="matrix(.08 0 0 .08 65.044 49.113)" y1="336.43" x1="759.89">
  <stop stop-color="#fff" offset="0"/>
  <stop stop-color="#fff" offset="1"/>
 </linearGradient>
 <path stroke-linejoin="bevel" stroke="#000" stroke-width=".1751" d="m124.5 51.295c5.293-5.129 12.914 1.397 11.864 4.474-1.162 5.068 4.776 6.748 1.104 8.206-5.646 2.036-4.299-7.611-18.38 1.401-6.163 1.441-3.076 10.477-6.098 10.477.01-10.08 1.87-15.308 11.52-24.558z" fill="url(#ian_symbols_7389fadcef16c614d1f2bf3a7d9afaa7)"/>
 <linearGradient id="ian_symbols_ba0be2b0209679a409563c160742a922" y2="114.25" gradientUnits="userSpaceOnUse" x2="5249" gradientTransform="matrix(.08 0 0 .08 65.044 49.113)" y1="1833" x1="5249">
  <stop stop-color="#fff" offset="0"/>
  <stop stop-color="#fff" offset="1"/>
 </linearGradient>
 <path stroke-linejoin="bevel" stroke="#000" stroke-width=".1751" d="m484.43 58.043c3.787 21.626 11.112 70.437 6.863 108.87-2.206-17.908-2.495 28.442-4.528-13.94-.873 8.661-.935 30.58-1.754 28.19 0-27.171-4.235-59.373-7.668-60.198 2.37-11.61 5.53-51.284 7.09-62.917z" fill="url(#ian_symbols_ba0be2b0209679a409563c160742a922)"/>
 <linearGradient id="ian_symbols_d53474c0a9ff6144e562531b5c7e5247" y2="286.45" gradientUnits="userSpaceOnUse" x2="23.895" gradientTransform="matrix(.08 0 0 .08 65.044 49.113)" y1="1023.3" x1="23.895">
  <stop stop-color="#fff" offset="0"/>
  <stop stop-color="#fff" offset="1"/>
 </linearGradient>
 <path stroke-linejoin="bevel" stroke="#000" stroke-width=".1751" d="m68.081 71.529c7.92 7.166 5.177 12.801 5.939 20.661 3.433 10.64 3.661 14.186-.813 37.454-.819.806-1.982-15.661-6.864-22.459-6.455-9.345 1.921-14.994-9.015-25.06 0-.755.87-4.488.87-6.034 2.272-.590 7.564.929 9.883-4.557z" fill="url(#ian_symbols_d53474c0a9ff6144e562531b5c7e5247)"/>
 <linearGradient id="ian_symbols_c5324e9897ede82481f33e4afe6a44be" y2="282.04" gradientUnits="userSpaceOnUse" x2="725.07" gradientTransform="matrix(.08 0 0 .08 65.044 49.113)" y1="1022.9" x1="725.07">
  <stop stop-color="#fff" offset="0"/>
  <stop stop-color="#fff" offset="1"/>
 </linearGradient>
 <path stroke-linejoin="bevel" stroke="#000" stroke-width=".1751" d="m132.69 74.561c2.509 6.982-5.402 17.276-2.835 21.878-2.509 6.153-10.412 20.855-13.846 34.663-8.206-18.917 3.076-33.565-2.213-52.122-1.163-2.268 2.794-1.965 3.61-7.149 4.24 1.692 7.26 7.151 15.28 2.732z" fill="url(#ian_symbols_c5324e9897ede82481f33e4afe6a44be)"/>
 <linearGradient id="ian_symbols_032bcfed4237a904b1a736ddbcd64e49" y2="955.27" gradientUnits="userSpaceOnUse" x2="351.72" gradientTransform="matrix(.08 0 0 .08 65.044 49.113)" y1="1205.2" x1="351.72">
  <stop stop-color="#000" offset="0"/>
  <stop stop-color="#000" offset="1"/>
 </linearGradient>
 <path stroke-linejoin="bevel" stroke="#000" stroke-width=".1751" d="m87.8 126.56c0 6.842 7.322 4.874 9.012 7.142 1.753 2.261-1.69 6.564 9.314 4.647-8.141 5.646-16.864 6.595-25.89-2.505.816-2.95 3.953-10.67 7.56-9.28z" fill="url(#ian_symbols_032bcfed4237a904b1a736ddbcd64e49)"/>
 <linearGradient id="ian_symbols_18aea007ad11eb4475cce56129ec003c" y2="1087" gradientUnits="userSpaceOnUse" x2="360.26" gradientTransform="matrix(.08 0 0 .08 65.044 49.113)" y1="1447.1" x1="360.26">
  <stop stop-color="#FCD3C1" offset="0"/>
  <stop stop-color="#A89989" offset="1"/>
 </linearGradient>
 <path stroke-linejoin="bevel" stroke="#000" stroke-width=".1751" d="m101.35 155.12c-9.066 9.821-31.511-4.892-23.143-9.1 3.549-1.374 2.203 7.166 7.85 6.058 3.375-.86 2.505-5.755-.751-7.22-3.26-1.493-9.888-5.847-6.51-8.709 6.51 8.206 13.2 10.881 19.481 8.563 2.322 0 5.055-3.43 10.467-5.133-1.809 5.368-10.293 5.133-10.759 9.25 1.046 3.838 2.559 3.488 4.357 3.195 1.859-.279 3.192-6.506 6.928-5.106 5.93 7.91-2.05 6.45-7.92 8.21z" fill="url(#ian_symbols_18aea007ad11eb4475cce56129ec003c)"/>
 <linearGradient id="ian_symbols_e5a8f17447948294b1b4cf18f7c15796" y2="1912.4" gradientUnits="userSpaceOnUse" x2="4071.4" gradientTransform="matrix(.08 0 0 .08 65.044 49.113)" y1="2941.1" x1="4071.4">
  <stop stop-color="#FCD3C1" offset="0"/>
  <stop stop-color="#A89989" offset="1"/>
 </linearGradient>
 <path stroke-linejoin="bevel" stroke="#000" stroke-width=".1751" d="m407.2 202.1c20.875 0 8.553 25.699 20.416 46.23 3.312 6.622-3.553 6.622-4.253 9.474 4.076 20.134-1.274 14.597-2.899 14.597-2.273-3.076-2.916-11.908-8.325-11.908-5.809 3.012-11.218 3.488-15.232 4.592-1.396 8.026 2.033 18.146-4.249 19.308-5.293-5.884.463-12.747-4.593-19.964-16.337-1.546-32.69-10.582-35.074-27.66 20.3-3.91 39.49-15.24 54.2-34.67z" fill="url(#ian_symbols_e5a8f17447948294b1b4cf18f7c15796)"/>
 <linearGradient id="ian_symbols_b828e725a257b3b4fdac4fb6369443ae" y2="2024.5" gradientUnits="userSpaceOnUse" x2="5207.4" gradientTransform="matrix(.08 0 0 .08 65.044 49.113)" y1="2829.9" x1="5207.4">
  <stop stop-color="#AE9677" offset="0"/>
  <stop stop-color="#FFF0D7" offset="1"/>
 </linearGradient>
 <path stroke-linejoin="bevel" stroke="#000" stroke-width=".1751" d="m477.52 275.08c-3.842-11.693 4.354-18.438 5.646-23.319-2.217-3.141-1.055-8.135.924-12.275-7.444-6.105-8.487-4.946-.924-28.843-4.722 25.77-3.087 21.337-.989 23.564 9.531 3.712 1.277 10.055 1.277 11.337 1.561 5.279-.935 12.897-5.01 20.705-.59 5.17 4.35 5.12-.93 8.84z" fill="url(#ian_symbols_b828e725a257b3b4fdac4fb6369443ae)"/>
 <linearGradient id="ian_symbols_1e910bfa958af854c5af4881f98388c9" y2="1771.8" gradientUnits="userSpaceOnUse" x2="5312.6" gradientTransform="matrix(.08 0 0 .08 65.044 49.113)" y1="3264.2" x1="5312.6">
  <stop stop-color="#AE9677" offset="0"/>
  <stop stop-color="#FFF0D7" offset="1"/>
 </linearGradient>
 <path stroke-linejoin="bevel" stroke="#000" stroke-width=".1751" d="m488.56 190.36c6.639 24.706-2.902 36.097 6.347 43.025 4.994 6.795-6.292 22.099-3.494 28.276 6.397 14.41-7.033 3.192-4.134 32.848 1.228 7.785-2.268 6.058-.979 15.242-3.322-5.636.054-7.335-1.17-12.315-1.214-5.014-2.444-17.157 1.224-23.092 8.553-8.383.058-10.953 2.733-19.189 2.678-8.284 5.819-12.347 4.13-17.693-7.33-11.94-2.68-31.25-4.66-47.11z" fill="url(#ian_symbols_1e910bfa958af854c5af4881f98388c9)"/>
 <linearGradient id="ian_symbols_ed766194627dd124817d5bfb8daf2afb" y2="2546.5" gradientUnits="userSpaceOnUse" x2="1444.4" gradientTransform="matrix(.08 0 0 .08 65.044 49.113)" y1="4051.8" x1="1444.4">
  <stop stop-color="#FFF0D7" offset="0"/>
  <stop stop-color="#EDEDEE" offset="1"/>
 </linearGradient>
 <path stroke-linejoin="bevel" stroke="#000" stroke-width=".1751" d="m173.58 373.66c-8.022-13.087 3.246-4.884 4.644-41.648 0-6.152-4.929-12.896-6.673-19.811-1.587-14.767-1.519-34.547-6.18-46.952 10.535-.931 6.985-8.654 21.409-10.572 2.325-.826 1.57 3.767 3.957 6.109 1.455 12.513 2.271 29.7 3.025 42.971-9.712 12.326 8.308 48.628-.418 52.51.762 7.047 3.794 12.391-2.379 17.932-5.46-1.52-2.55-4.78-17.38-.54z" fill="url(#ian_symbols_ed766194627dd124817d5bfb8daf2afb)"/>
 <linearGradient id="ian_symbols_08c740bd1ee908f48dc36dfbe0d6955d" y2="2586.4" gradientUnits="userSpaceOnUse" x2="4184.7" gradientTransform="matrix(.08 0 0 .08 65.044 49.113)" y1="3738.7" x1="4184.7">
  <stop stop-color="#FFF0D7" offset="0"/>
  <stop stop-color="#EDEDEE" offset="1"/>
 </linearGradient>
 <path stroke-linejoin="bevel" stroke="#000" stroke-width=".1751" d="m423.2 260.26c.751 0 2.373-3.256 4.882-4.711 1.57 4.025 2.216 5.572 2.325 8.199-18.092 36.461-14.647 57.758-19.54 65.9-2.963 3.886-6.509-1.299-10.759 6.271-3.076 6.173-3.898 3.43-6.917 10.357-4.419-.755-17.799-.119-23.788 1.451-.755-1.57 1.513-4.194 0-7.723 1.91-4.896 6.343-7.927 12.322-11.004 7.101-9.885 13.672-19.78 22.741-63.159 2.74-.935 6.119-2.213 8.321-2.954 3.896 4.688 1.914 12.666 9.127 11.272 4.09-1.35 2.17-7.7 1.3-13.91z" fill="url(#ian_symbols_08c740bd1ee908f48dc36dfbe0d6955d)"/>
 <linearGradient id="ian_symbols_eb3b7063184c47d41124313952a131a9" y2="2612.6" gradientUnits="userSpaceOnUse" x2="3712" gradientTransform="matrix(.08 0 0 .08 65.044 49.113)" y1="2820.1" x1="3712">
  <stop stop-color="#FCD3C1" offset="0"/>
  <stop stop-color="#A89989" offset="1"/>
 </linearGradient>
 <path stroke-linejoin="bevel" stroke="#000" stroke-width=".1751" d="m359.97 257.69c2.271.755 8.148 6.238 2.801 12.982-5.47 3.61-3.49-7.4-2.8-12.98z" fill="url(#ian_symbols_eb3b7063184c47d41124313952a131a9)"/>
 <linearGradient id="ian_symbols_0907680128f0b854a5dbbce96a330555" y2="3720.2" gradientUnits="userSpaceOnUse" x2="3936.1" gradientTransform="matrix(.08 0 0 .08 65.044 49.113)" y1="4011.5" x1="3936.1">
  <stop stop-color="#67686B" offset="0"/>
  <stop stop-color="#A7A9AC" offset="1"/>
 </linearGradient>
 <path stroke-linejoin="bevel" stroke="#000" stroke-width=".1751" d="m370.33 349.94c2.444-2.743 16.63-1.819 22.912-1.581-3.431 22.103-21.223 12.734-26.631 10.412.17-3.31-.70-2.27 3.72-8.83z" fill="url(#ian_symbols_0907680128f0b854a5dbbce96a330555)"/>
 <linearGradient id="ian_symbols_96faed3e2fd66814c192546d8aec9949" y2="3819.8" gradientUnits="userSpaceOnUse" x2="4444.3" gradientTransform="matrix(.08 0 0 .08 65.044 49.113)" y1="4051.8" x1="4444.3">
  <stop stop-color="#67686B" offset="0"/>
  <stop stop-color="#A7A9AC" offset="1"/>
 </linearGradient>
 <path stroke-linejoin="bevel" stroke="#000" stroke-width=".1751" d="m424.53 355.64c7.029 1.163-2.492 8.026-3.138 17.276-.755 0-6.455.502-7.278 1.278-.74-3.79 8.03-14.72 10.42-18.56z" fill="url(#ian_symbols_96faed3e2fd66814c192546d8aec9949)"/>
 <linearGradient id="ian_symbols_882b6806b6ea1734a1595e97ea6803b5" y2="3883.3" gradientUnits="userSpaceOnUse" x2="4664.2" gradientTransform="matrix(.08 0 0 .08 65.044 49.113)" y1="4112.1" x1="4664.2">
  <stop stop-color="#67686B" offset="0"/>
  <stop stop-color="#A7A9AC" offset="1"/>
 </linearGradient>
 <path stroke-linejoin="bevel" stroke="#000" stroke-width=".1751" d="m450.17 361.91c-.806.766-2.372 2.325-1.557 3.842 3.138 13.209-5.884 11.755-22.275 12.023-.816-6.204 1.859-11.841 5.755-14.107 3.77.01 3.66-2.95 18.07-1.75z" fill="url(#ian_symbols_882b6806b6ea1734a1595e97ea6803b5)"/>
 <linearGradient id="ian_symbols_c49814dbaef11cd4bdf2f107f01fc9aa" y2="4002" gradientUnits="userSpaceOnUse" x2="1256.8" gradientTransform="matrix(.08 0 0 .08 65.044 49.113)" y1="4192.8" x1="1256.8">
  <stop stop-color="#67686B" offset="0"/>
  <stop stop-color="#A7A9AC" offset="1"/>
 </linearGradient>
 <path stroke-linejoin="bevel" stroke="#000" stroke-width=".1751" d="m172.14 374.2c-2.682 5.044-6.112 7.366-8.274 11.391-4.467-.711-3.311-1.098-4.82-1.809 2.91-3.77 7.44-13.13 13.09-9.58z" fill="url(#ian_symbols_c49814dbaef11cd4bdf2f107f01fc9aa)"/>
 <linearGradient id="ian_symbols_f0668e5cce4140d411be15ef5ed6024e" y2="4033.9" gradientUnits="userSpaceOnUse" x2="1407.3" gradientTransform="matrix(.08 0 0 .08 65.044 49.113)" y1="4244.5" x1="1407.3">
  <stop stop-color="#67686B" offset="0"/>
  <stop stop-color="#A7A9AC" offset="1"/>
 </linearGradient>
 <path stroke-linejoin="bevel" stroke="#000" stroke-width=".1751" d="m174.8 375.48c8.145-3.151 12.102 1.377 16.402 2.485-3.957 3.097-5.639 4.83-6.924 9.726-7.723-2.455-15.521 1.396-20.233 0 3.84-2.75 7.44-12.09 10.75-12.21z" fill="url(#ian_symbols_f0668e5cce4140d411be15ef5ed6024e)"/>
 <linearGradient id="ian_symbols_14659c1abee3cef419b37543749e1844" y2="4100.5" gradientUnits="userSpaceOnUse" x2="1614.2" gradientTransform="matrix(.08 0 0 .08 65.044 49.113)" y1="4375.5" x1="1614.2">
  <stop stop-color="#67686B" offset="0"/>
  <stop stop-color="#A7A9AC" offset="1"/>
 </linearGradient>
 <path stroke-linejoin="bevel" stroke="#000" stroke-width=".1751" d="m201.21 379.43c-3.022 7.903-3.022 14.434-7.859 10.979-10.918 9.661-5.228-6.625.418-12.271 3.95 1.69 3.08-.01 7.44 1.29z" fill="url(#ian_symbols_14659c1abee3cef419b37543749e1844)"/>
 <linearGradient id="ian_symbols_b5e3820b637664d43de72edeeac7928d" y2="4139.8" gradientUnits="userSpaceOnUse" x2="1823.1" gradientTransform="matrix(.08 0 0 .08 65.044 49.113)" y1="4367.1" x1="1823.1">
  <stop stop-color="#67686B" offset="0"/>
  <stop stop-color="#A7A9AC" offset="1"/>
 </linearGradient>
 <path stroke-linejoin="bevel" stroke="#000" stroke-width=".1751" d="m222.66 389.08c-5.755 6.959-17.904 10.056-23.541 2.206 2.601-2.443 5.29-5.238 6.911-10.133 2.74 1.22 10.13 2.46 16.63 7.92z" fill="url(#ian_symbols_b5e3820b637664d43de72edeeac7928d)"/>
 <linearGradient id="ian_symbols_cef08ebae96895444dd5d8a4e2d0d6a8" y2="207.44" gradientUnits="userSpaceOnUse" x2="802.4" gradientTransform="matrix(.08 0 0 .08 65.044 49.113)" y1="266.24" x1="802.4">
  <stop stop-color="#FFF0D7" offset="0"/>
  <stop stop-color="#fff" offset="1"/>
 </linearGradient>
 <path stroke-linejoin="bevel" stroke="#000" stroke-width=".1751" d="m127.99 66.246c1.982.863 3.138 1.516 3.311 2.036.231.588-.347.979-1.924 1.278-1.45.354-3.43-4.184-1.39-3.314z" fill="url(#ian_symbols_cef08ebae96895444dd5d8a4e2d0d6a8)"/>
 <linearGradient id="ian_symbols_ba053b722c35d64485781baa47fd07b5" y2="207.19" gradientUnits="userSpaceOnUse" x2="-30.651" gradientTransform="matrix(.08 0 0 .08 65.044 49.113)" y1="266.13" x1="-30.651">
  <stop stop-color="#FFF0D7" offset="0"/>
  <stop stop-color="#fff" offset="1"/>
 </linearGradient>
 <path stroke-linejoin="bevel" stroke="#000" stroke-width=".1751" d="m61.34 66.539c2.033.87 3.141 1.506 3.324 2.033.225.571-.357.989-1.873 1.278-1.502.332-3.484-4.196-1.451-3.311z" fill="url(#ian_symbols_ba053b722c35d64485781baa47fd07b5)"/>
 <linearGradient id="ian_symbols_db7aefe654cda4a4f5774394ce0a7542" y2="-560.98" gradientUnits="userSpaceOnUse" x2="2831.8" gradientTransform="matrix(.08 0 0 .08 65.044 49.113)" y1="4193" x1="2831.8">
  <stop stop-color="#fff" offset="0"/>
  <stop stop-color="#fff" offset="1"/>
 </linearGradient>
 <path stroke-linejoin="bevel" stroke="#000" stroke-width=".1751" d="m482.05 71.882c-6.282 0-16.81 109.28-13.669 132.79-1.522 4.688-1.862 12.615-4.185 17.306-1.516 23.445 9.647 24.081 4.13 39.612-7.271 19.842-16.748 51.979-9.949 75.485-1.516 2.387-7.391 8.032-6.799 11.816-1.173 3.08.228 4.242-.592 10.467-5.517 0-12.441.924-18.659 1.733-3.093.815-2.27-5.453-4.656-6.207h-.806c5.462-5.422 0-10.885 4.644-16.282 11.693-28.793 10.174-66.838-3.838-93.299-1.574-2.386-2.325-4.657-2.325-7.033-4.712-13.961 0-30.312-4.712-42.753-3.086-1.561-4.827-6.799-15.993 5.989-38.39 42.454-87.533 34.429-122.83 30.139-8.723-1.173-28.326-4.185-35.709 1.397 0-8.56.993-20.77 7.618-25.179 13.431-8.679 22.8 23.363 63.571 23.309-.477-.462.347-.938-1.459-1.227-36.107 1.281-49.313-33.3-63.744-22.912-10.103 8.553-6.975 22.674-8.665 34.367-1.502 6.982-11.571 8.56-13.896 14.791-7.033 17.102 7.863 41.054-1.452 58.156-7.441 18.55 5.939 53.22-4.473 59.254-3.196 1.751-2.271 8.43-2.271 11.51-7.733-4.647-7.033-5.222-17.86-5.222-2.675-5.31-9.199-2.029-8.373-4.371 2.743-16.684 14.899-.466 11.173-51.633-.88-7.101-5.527-13.271-8.614-19.09-7.444-13.488 8.787-53.618-17.449-74.561-4.354 0 10.585 9.25 10.123 21.46-6.571 1.346-12.105.537-15.229 3.732-14.026 10.82-34.149 9.994-45.085-2.387-14.875-9.705-13.655-50.018-24.182-57.404-4.777-3.488-1.636-22.436-4.729-37.325 26.065-.707 18.56-15.606 16.646-24.135 5.582-22.803 9.998-22.803 15.65-37.688-1.584-4.355 3.654-13.207.514-20.019.693-2.383 2.444-4.644 2.967-9.365 3.671 0 9.715 5.432 5.008.89-.701 0-3.026-3.151-3.026-3.151 4.763-2.332-3.957-4.84-.238-13.077 2.802-6.411 14.767 10.055 24.836 5.463 10.12-3.195 17.856-13.251 28.031-17.931 13.21 1.583 24.887 10.079 39.67 10.079 7.268 1.163 35.469-11.983 70.651-9.896 32.688 5.541 64.554 3.271 128.24-25.93 26.222-8.617 22.152-.713 32.449 7.669-8.604.652-12.102 4.657-17.738 9.314-1.923-8.662-17.972.35-14.66 2.849 25.942 1.387 18.968-15.478 39.604-7.842 12.98 6.304 12.34 29.28 12.34 46.317z" fill="url(#ian_symbols_db7aefe654cda4a4f5774394ce0a7542)"/>
 <linearGradient id="ian_symbols_2e73f941daa46514e1cdeb9d75e51ed0" y2="311.27" gradientUnits="userSpaceOnUse" x2="4959.7" gradientTransform="matrix(.08 0 0 .08 65.044 49.113)" y1="2296.4" x1="4959.7">
  <stop stop-color="#000" offset="0"/>
  <stop stop-color="#000" offset="1"/>
 </linearGradient>
 <path stroke-linejoin="bevel" stroke="#000" stroke-width=".1751" d="m481.11 73.462c-1.908 23.782-4.297 39.259-6.564 49.834 1.17 20.005 4.945 61.062-5.001 82.002-45.479 26.878-22.095-41.411-11.748-37.107 8.088-13.608-10.582-6.863 2.499-34.01-7.45-49.024 9.02-58.273 20.81-60.718z" fill="url(#ian_symbols_2e73f941daa46514e1cdeb9d75e51ed0)"/>
 <linearGradient id="ian_symbols_b26d9dd2718552e46ddbffc0a30e6137" y2="3622" gradientUnits="userSpaceOnUse" x2="3723.6" gradientTransform="matrix(.08 0 0 .08 65.044 49.113)" y1="3849.7" x1="3723.6">
  <stop stop-color="#67686B" offset="0"/>
  <stop stop-color="#A7A9AC" offset="1"/>
 </linearGradient>
 <path stroke-linejoin="bevel" stroke="#000" stroke-width=".1751" d="m367.48 341.33c3.312-1.523-3.141 12.792-6.639 12.792-.806 0-2.546 2.953-3.311 3.783-.75-3.9 5.07-10.7 9.95-16.57z" fill="url(#ian_symbols_b26d9dd2718552e46ddbffc0a30e6137)"/>
 <linearGradient id="ian_symbols_9def05ba7876aba461f7a2f868cb80e9" y2="102.39" gradientUnits="userSpaceOnUse" x2="3412.8" gradientTransform="matrix(.08 0 0 .08 65.044 49.113)" y1="2305.4" x1="3412.8">
  <stop stop-color="#000" offset="0"/>
  <stop stop-color="#000" offset="1"/>
 </linearGradient>
 <path stroke-linejoin="bevel" stroke="#000" stroke-width=".1751" d="m317.29 231.18c12.557.925 38.086 2.441 49.718-20.865 7.798-9.372 20.305-19.427 14.777-31.882-8.206-13.886 5.055-12.778 12.326-18.091 28.561-21.396 15.005-75.778-27.742-88.22-7.727-1.938 1.336-10.347-5.527-10.531-10.175 0-21.219 2.037-29.017 7.4-18.026 9.475-9.831-11.581-56.47.623-9.831 3.144-9.304 11.758-7.029 16.296 3.137 9.423 16.337 10.864 19.539 20.284-1.635 17.037 4.593 37.41-1.278 46.931-7.968 12.863-2.098 15.756 2.787 20.651 11.626 10.881 1.622 24.781 3.084 42.743.81 10.24 10.58 3.66 24.83 14.66z" fill="url(#ian_symbols_9def05ba7876aba461f7a2f868cb80e9)"/>
 <linearGradient id="ian_symbols_f57181e5188ad92415f99b81db5e962a" y2="738.58" gradientUnits="userSpaceOnUse" x2="1043.3" gradientTransform="matrix(.08 0 0 .08 65.044 49.113)" y1="2550.7" x1="1043.3">
  <stop stop-color="#000" offset="0"/>
  <stop stop-color="#000" offset="1"/>
 </linearGradient>
 <path stroke-linejoin="bevel" stroke="#000" stroke-width=".1751" d="m103.04 163.83c20.417-6.86 22.966 89.093 58.397 83.392 16.626-7.856 5.344-9.185 7.095-15.243 2.141-8.777 5.228-1.387 10.929-10.511 3.722-6.051-20.994-2.686-21.46-10.412 6.152-24.2 32.861-11.632 35.938-16.29 5.649-12.673-1.387-42.454-14.886-40.241-3.141-11.854 23.608-45.894-7.798-41.475-21.511 5.252-13.254 34.904-26.46 22.643-8.655-6.594-24.125 10.11-24.768-10.884-.238 1.336-2.563 6.441-2.855 9.13 1.747 7.435 4.25 10.055 1.101 18.438-3.946 3.957-13.777 6.503-17.163 5.463.40 1.8.98 4.07 1.92 5.98z" fill="url(#ian_symbols_f57181e5188ad92415f99b81db5e962a)"/>
 <linearGradient id="ian_symbols_8e715bcbb77951345dfa4493dd5e8ece" y2="322.88" gradientUnits="userSpaceOnUse" x2="2323.5" gradientTransform="matrix(.08 0 0 .08 65.044 49.113)" y1="1620.6" x1="2323.5">
  <stop stop-color="#000" offset="0"/>
  <stop stop-color="#000" offset="1"/>
 </linearGradient>
 <path stroke-linejoin="bevel" stroke="#000" stroke-width=".1751" d="m223.31 79.734c20.943-4.711 31.804 17.867 51.285 20.188 1.581 3.077 6.687 10.929 1.925 18.717-2.148 3.545 24.309 19.09-7.561 42.41-5.636 8.773-9.535 17.554-23.955-.83-9.25-12.669 9.423-49.433-15.477-60.297-20.87-7.506-10.11-18.553-6.21-20.189z" fill="url(#ian_symbols_8e715bcbb77951345dfa4493dd5e8ece)"/>
 <linearGradient id="ian_symbols_8891309d8b4f80e4adbaf255a00b6a3f" y2="-237.38" gradientUnits="userSpaceOnUse" x2="4172.3" gradientTransform="matrix(.08 0 0 .08 65.044 49.113)" y1="1093.5" x1="4172.3">
  <stop stop-color="#000" offset="0"/>
  <stop stop-color="#000" offset="1"/>
 </linearGradient>
 <path stroke-linejoin="bevel" stroke="#000" stroke-width=".1751" d="m405.11 37.001c23.381 13.25 1.689 29.958 40.418 69.968 5.993 4.977-9.882 28.663-17.788 29.234-10.586-.69-3.206-12.315-10.185-24.591-17.681-13.271-7.034-48.978-24.891-46.595-27.857 3.499-21.048-12.499-26.168-15.637-6.23-3.902-18.724.989-15.005-3.131 3.89-3.851 10.753.507 14.016-5.364 18.25 9.488 23.13-11.044 39.59-3.882z" fill="url(#ian_symbols_8891309d8b4f80e4adbaf255a00b6a3f)"/>
 <linearGradient id="ian_symbols_5d6ab53970861ce401de437b7312a5c2" y2="1913.3" gradientUnits="userSpaceOnUse" x2="1627" gradientTransform="matrix(.08 0 0 .08 65.044 49.113)" y1="2400.8" x1="1627">
  <stop stop-color="#000" offset="0"/>
  <stop stop-color="#000" offset="1"/>
 </linearGradient>
 <path stroke-linejoin="bevel" stroke="#000" stroke-width=".1751" d="m191.5 207.21c13.264-5.068 1.391 11.575 12.438 21.004-5.36 12.51-27.16-15.06-12.44-21z" fill="url(#ian_symbols_5d6ab53970861ce401de437b7312a5c2)"/>
 <linearGradient id="ian_symbols_065a3c185a7bbc34c9ea938c64fc1494" y2="2580.5" gradientUnits="userSpaceOnUse" x2="5391.4" gradientTransform="matrix(.08 0 0 .08 65.044 49.113)" y1="2769.5" x1="5391.4">
  <stop stop-color="#AE9677" offset="0"/>
  <stop stop-color="#FFF0D7" offset="1"/>
 </linearGradient>
 <path stroke-linejoin="bevel" stroke="#000" stroke-width=".1751" d="m494.62 255.43c1.452 5.568 8.366 10.939-.238 14.651-1.8-4.99 5.65.47.24-14.65z" fill="url(#ian_symbols_065a3c185a7bbc34c9ea938c64fc1494)"/>
 <linearGradient id="ian_symbols_59d9a89c96ca30b4a152db69a7c69ce5" y2="1585.4" gradientUnits="userSpaceOnUse" x2="5244.2" gradientTransform="matrix(.08 0 0 .08 65.044 49.113)" y1="3255" x1="5244.2">
  <stop stop-color="#AE9677" offset="0"/>
  <stop stop-color="#FFF0D7" offset="1"/>
 </linearGradient>
 <path stroke-linejoin="bevel" stroke="#000" stroke-width=".1751" d="m486.88 175.94c3.368 25.512-5.354 54.716 3.95 61.515 4.942 6.741-8.896 18.38-6.109 24.479 6.459 14.25-6.981 3.151-4.072 32.569 1.166 7.553-2.264 5.884-.982 15.005-3.368-5.518.044-7.22-1.162-12.163-1.228-4.994-2.509-17.072 1.206-22.891 8.56-8.26.826-9.726 3.451-17.863 2.729-8.206 9.354-11.997 4.474-19.94-7.85-13.11 1.16-45.03-.76-60.73z" fill="url(#ian_symbols_59d9a89c96ca30b4a152db69a7c69ce5)"/>
</svg>
