<?xml version="1.0" encoding="UTF-8" standalone="no"?>
<svg xmlns:rdf="http://www.w3.org/1999/02/22-rdf-syntax-ns#" xmlns="http://www.w3.org/2000/svg" height="361px" width="501px" xmlns:cc="http://creativecommons.org/ns#" xmlns:xlink="http://www.w3.org/1999/xlink" xmlns:dc="http://purl.org/dc/elements/1.1/">
<title>Bos primigenius (Cow) 3</title>
<desc xmlns:ian_image_library="http://ian.umces.edu/imagelibrary/">
      <ian_image_library:title>Bos primigenius (Cow) 3</ian_image_library:title>
      <ian_image_library:descr>Illustration of Bos primigenius (Cow) </ian_image_library:descr>
      <ian_image_library:scene>
		<ian_image_library:contains>symbol,vector,illustration,mammal,cow,cattle,Chordata,Mammalia,Artiodactyla,Bovidae,Bovinae,Bos,primigenius</ian_image_library:contains>
        <ian_image_library:when>2005-11-06</ian_image_library:when> 
	  </ian_image_library:scene>
   </desc>
    <metadata
		id="metadata-iil-901566b85a579ee431764dd262909130">
      <rdf:RDF>
      <cc:Work
         rdf:about="">
        <dc:format>image/svg+xml</dc:format>
        <dc:type
           rdf:resource="http://purl.org/dc/dcmitype/StillImage" />
        <cc:license
           rdf:resource="http://creativecommons.org/licenses/by-sa/3.0/" />
        <dc:title>Bos primigenius (Cow) 3</dc:title>
		<dc:date>2005-11-06</dc:date>
        <dc:creator>
			<cc:Agent>
				<dc:title>Jason C. Fisher</dc:title>
			</cc:Agent>	
		</dc:creator>   
		<dc:rights>
          <cc:Agent>
            <dc:title>Jason C. Fisher, University of California Los Angeles</dc:title>
          </cc:Agent>
        </dc:rights>
        <dc:publisher>
          <cc:Agent>
            <dc:title>Integration and Application Network</dc:title>
          </cc:Agent>
        </dc:publisher>
		<dc:identifier>http://ian.umces.edu/imagelibrary/displayimage-3795.html</dc:identifier>
        <dc:source>http://ian.umces.edu/imagelibrary/displayimage-3795.html</dc:source>
        <dc:language>en-US</dc:language>
        <dc:subject>
          <rdf:Bag>
            <rdf:li>symbol,vector,illustration,mammal,cow,cattle,Chordata,Mammalia,Artiodactyla,Bovidae,Bovinae,Bos,primigenius</rdf:li>
          </rdf:Bag>
        </dc:subject>
        <dc:coverage></dc:coverage>
        <dc:description>Illustration of Bos primigenius (Cow) </dc:description>
        <dc:contributor>
          <cc:Agent>
            <dc:title></dc:title>
          </cc:Agent>
        </dc:contributor>
      </cc:Work>
      <cc:License
         rdf:about="http://creativecommons.org/licenses/by-sa/3.0/">
        <cc:permits
           rdf:resource="http://creativecommons.org/ns#Reproduction" />
        <cc:permits
           rdf:resource="http://creativecommons.org/ns#Distribution" />
        <cc:requires
           rdf:resource="http://creativecommons.org/ns#Notice" />
        <cc:requires
           rdf:resource="http://creativecommons.org/ns#Attribution" />
        <cc:permits
           rdf:resource="http://creativecommons.org/ns#DerivativeWorks" />
        <cc:requires
           rdf:resource="http://creativecommons.org/ns#ShareAlike" />
      </cc:License>
    </rdf:RDF>
  </metadata>
	
 <defs></defs>
 <path stroke-linejoin="round" d="m18.546 112.85s-4.297 59.187-9.026 67.04c0 0-5.087 28.206-3.525 34.49 1.623 6.288 4.369-5.498 4.369-5.498s3.885-27.44 6.209-30.54c2.398-3.185 9.026-45.87 9.026-48.272.001-2.34-7.053-17.22-7.053-17.22z" stroke="#000" stroke-linecap="round" stroke-width=".3531" fill="#414042"/>
 <path stroke-linejoin="round" d="m12.13 170.64s4.308-1.133 5.08-2.756c0 0 1.762.766 1.552 3.171-.215 2.324-8.254 30.339-7.833 37.266.361 6.835 1.973 11.483 4.732 13.105 0 0 5.849 8.043 7.197 8.615l-.987.344s3.518 12.572 1.623 17.855l3.518 38.603s-6.703-5.094-8.25-6.431c0 0 1.197 1.763.772 2.549 0 0-3.311-5.308-4.297-5.73 0 0-3.947-6.271-2.971-8.958 0 0-4.511-9.456-4.511-13.178 0 0 1.201 7.461.85 8.455 0 0-3.746-17.624-4.739-18.196-.98-.636-8.247-14.103.792-29.206 0 .02-.575-16.86 7.472-45.49z" stroke="#000" stroke-linecap="round" stroke-width=".3531" fill="#fff"/>
 <path d="m15.798 169.86s-12.49 44.659-7.193 53.117c5.284 8.404 3.311 18.219 4.097 20.747.773 2.545.773 19.407 2.96 27.447 2.11 8.037 10.714 13.337 10.714 13.337l-3.096-43.512s-1.272-9.955-2.188-10.738l.63-.364-2.399-2.396s-4.511-5.069-4.869-5.284c0 0-4.089-2.052-4.512-12.837 0 0-.279-7.836 8.043-39.103l-.775-1.392-1.412.96z" fill="#C7C8CA"/>
 <path stroke-linejoin="round" d="m7.754 255.1s-2.123-11.503-2.896-12.139c0 0-2.538-14.123-1.551-15.46" stroke="#000" stroke-linecap="round" stroke-width=".3531" fill="none"/>
 <path stroke-linejoin="round" d="m9.377 243.38s3.661 13.477 4.097 16.998c.415 3.515 3.735 18.826 5.287 20.033" stroke="#000" stroke-linecap="round" stroke-width=".3531" fill="none"/>
 <path stroke-linejoin="round" d="m7.962 248.67s1.979 7.057 5.3 10.581" stroke="#000" stroke-linecap="round" stroke-width=".3531" fill="none"/>
 <path stroke-linejoin="round" d="m14.811 230.26s2.181 6.066 2.398 10.578c0 0-.425 10.166.987 13.474 0 0 4.311 21.172 5.434 23.132 1.201 1.98.986 4.947.986 4.947" stroke="#000" stroke-linecap="round" stroke-width=".3531" fill="none"/>
 <path stroke-linejoin="round" d="m24.616 283.75s-8.179-19.199-8.043-21.955c.211-2.759-.562-7.485-.562-7.485" stroke="#000" stroke-linecap="round" stroke-width=".3531" fill="none"/>
 <line stroke-linejoin="round" x1="21.871" y2="229.62" x2="19.533" stroke="#000" stroke-linecap="round" y1="230.39" stroke-width=".3531" fill="none"/>
 <path stroke-linejoin="round" d="m15.661 225.11s5.849 2.96 6.631 20.033" stroke="#000" stroke-linecap="round" stroke-width=".3531" fill="none"/>
 <path stroke-linejoin="round" d="m29.138 165.34s-12.564 42.335 3.171 57.224c0 0-1.198-54.04-3.171-57.22z" stroke="#000" stroke-linecap="round" stroke-width=".3531" fill="#fff"/>
 <path d="m64.543 235.4c.364-1.188 4.389-1.337 5.512.214-.779 1.197-.714 4.433-.779 5.719-.072.922 0 1.623-.136 2.31-.149.946 0 1.351-.078 2.705-.129 1.129 0 2.603-.772 3.579-1.77 1.497-2.96-.14-2.96-.555-.072-2.184-.146-3.807-.222-6.138-.001-1.67-1.051-6.2-.565-7.82z" fill="#E6E7E8"/>
 <path d="m68.149 249.93c-1.63 1.361-2.681-.14-2.681-.555-.075-1.973-.139-3.446-.139-5.569-.072-1.548-.998-5.729-.559-7.193.337-1.133 4.012-1.211 5.005.201-.637 1.062-.637 4.022-.715 5.233 0 .837 0 1.477-.071 2.1-.136.851 0 1.282-.058 2.409-.149 1.06.001 2.46-.782 3.37z" fill="#EBE5E3"/>
 <path d="m68.081 249.86c-1.487 1.266-2.402-.075-2.402-.49-.072-1.759-.136-3.178-.211-5.015 0-1.477-.847-5.212-.504-6.549.293-.997 3.675-1.146 4.59.136-.564 1.051-.564 3.739-.622 4.808-.079.769 0 1.337-.079 1.892-.136.782 0 1.123-.071 2.184-.143.99 0 2.25-.701 3.03z" fill="#EDE5E2"/>
 <path d="m68.003 249.86c-1.337 1.136-2.185-.126-2.185-.412-.075-1.637-.14-2.899-.14-4.597-.072-1.262-.772-4.647-.422-5.859.211-.922 3.246-1.051 4.083.15-.558.901-.487 3.31-.558 4.236-.065.708 0 1.262-.143 1.759-.072.714 0 1.055-.072 1.974.001.85.001 1.97-.563 2.75z" fill="#F1E5E0"/>
 <path d="m67.932 249.86c-1.188.925-1.974-.126-1.974-.412 0-1.422-.068-2.548-.139-4.025 0-1.123-.711-4.164-.351-5.301.211-.765 2.898-.844 3.671.136-.5.857-.5 2.974-.572 3.828 0 .629 0 1.106-.064 1.551-.071.626 0 .912-.071 1.759 0 .79 0 1.77-0.5 2.46z" fill="#F5E5DE"/>
 <path d="m67.867 249.79c-1.065.851-1.688-.051-1.759-.336 0-1.266-.078-2.212-.078-3.525 0-.997-.637-3.671-.351-4.593.21-.714 2.538-.786 3.174.136-.422.701-.351 2.62-.422 3.311-.065.575 0 .986-.065 1.361-.078.551 0 .837-.078 1.544.001.70.001 1.56-.421 2.11z" fill="#F7E5DD"/>
 <path stroke-linejoin="round" d="m69.554 237.45s-.772 4.879-.622 10.863c0 0 0 2.684-2.617 2.113 0 0-1.272.146-1.058-3.099 0 0 0-4.447-.351-6.066 0 0-.5-1.902-.5-4.025" stroke="#000" stroke-linecap="round" stroke-width=".3531" fill="none"/>
 <path d="m65.89 242.54c.218-.657 2.191-.657 2.75.051-.35.643-.35 2.263-.35 2.889-.072.446 0 .786-.072 1.136-.068.497 0 .711-.068 1.337 0 .571 0 1.361-.357 1.833-.912.715-1.477-.051-1.477-.265-.072-1.146-.072-1.909-.136-3.042-.001-.84-.501-3.17-.290-3.94z" fill="#FEE7DC"/>
 <path d="m58.69 236.61c.357-1.211 4.458-1.347 5.505.201-.701 1.188-.701 4.382-.776 5.645-.064.977 0 1.688-.064 2.399-.146.84 0 1.34-.146 2.623-.062 1.113 0 2.596-.776 3.596-1.759 1.473-2.902-.149-2.96-.571 0-2.188-.146-3.811-.146-6.073-.064-1.69-1.051-6.28-.637-7.83z" fill="#E6E7E8"/>
 <path d="m62.284 251c-1.609 1.334-2.67-.139-2.67-.571-.083-1.973-.14-3.45-.14-5.573-.075-1.548-.987-5.709-.561-7.196.275-1.133 4.011-1.208 5.008.214-.636 1.123-.636 4.011-.71 5.219-.062.837 0 1.497-.062 2.103-.15.867 0 1.286-.15 2.49-.076.99-.001 2.4-.715 3.32z" fill="#EBE5E3"/>
 <path d="m62.223 250.93c-1.487 1.262-2.399-.065-2.474-.497 0-1.762-.065-3.188-.136-5.001 0-1.408-.851-5.219-.504-6.566.289-.986 3.674-1.123 4.597.136-.558 1.051-.558 3.756-.636 4.808-.072.786 0 1.337-.072 1.892-.139.786 0 1.133-.139 2.205-.075.98 0 2.25-.636 3.03z" fill="#EDE5E2"/>
 <path d="m62.147 250.93c-1.337 1.123-2.184-.065-2.184-.422-.064-1.626-.14-2.889-.14-4.576-.074-1.283-.847-4.665-.497-5.879.287-.901 3.321-1.051 4.168.16-.572.912-.572 3.313-.572 4.222-.064.711 0 1.266-.14 1.766-.068.708 0 1.044-.068 1.991-.067.89.002 2.03-.567 2.74z" fill="#F1E5E0"/>
 <path d="m62.083 250.93c-1.197.986-1.983-.136-1.983-.422-.065-1.426-.065-2.548-.136-4.021 0-1.126-.701-4.151-.35-5.219.21-.851 2.895-.929 3.596.071-.426.837-.426 2.97-.494 3.807 0 .626 0 1.126-.068 1.552-.074.636 0 .922-.074 1.762-.066.78-.001 1.76-.491 2.47z" fill="#F5E5DE"/>
 <path d="m62.008 250.86c-1.058.851-1.759-.071-1.759-.357 0-1.188-.075-2.188-.075-3.525 0-.997-.643-3.596-.351-4.593.211-.701 2.535-.786 3.175.157-.425.694-.351 2.599-.425 3.313-.065.548 0 .973-.065 1.385-.075.5 0 .79-.075 1.5s0 1.55-.425 2.12z" fill="#F7E5DD"/>
 <path d="m60.1 243.72c.149-.629 2.184-.701 2.759.082-.351.626-.351 2.177-.426 2.813 0 .497 0 .861-.075 1.198-.075.425 0 .711 0 1.351-.075.572 0 1.262-.412 1.759-.851.786-1.493-.065-1.493-.286 0-1.062-.068-1.899-.068-3.025 0-.84-.486-3.09-.285-3.88z" fill="#FEE7DC"/>
 <path stroke-linejoin="round" d="m63.985 237.6l-.279 1.548s-.287 1.973-.211 2.188c.064.266-.211 4.021-.211 4.021s-.074 4.797-.5 5.358c-.5.576-2.109 1.974-3.253-.074l-.268-4.577s0-2.133-.075-2.542" stroke="#000" stroke-linecap="round" stroke-width=".3531" fill="none"/>
 <path stroke-linejoin="round" d="m284.04 341.79c.341.857.144 5.645.144 5.645l.347 5.931c3.109 8.903 20.669 6.145 20.669 6.145l-1.058-2.971 3.109 2.134c3.382-1.283 1.974-7.281 1.974-7.281l-6.921-10.789-1.473-1.211s-4.587-.201-7.696 2.685c.01 0-6.9 3.04-9.09-.29z" stroke="#000" stroke-linecap="round" stroke-width=".2825" fill="#C7C8CA"/>
 <path d="m285.24 342.29s1.633 1.413 3.82 1.283c2.109-.211-3.116 12.841 6.557 15.1 0 0-7.829-.215-10.152-5.569l-.23-10.81z" fill="#B1B3B6"/>
 <path stroke-linejoin="round" d="m296.53 297.28s-13.892-3.311-14.041-3.025c0 .129-.137 5.358-.065 5.931.415 2.316-2.259 28.075-3.031 32.387-.789 4.361 2.396 8.669 2.396 8.669s1.126-1.633 2.32-.783c.568.357-.282.569-.062 1.334 0 0 2.389 4.318 7.897 2.831 0 0 6.491.915 7.832 1.766 1.412.908 1.197-2.052 1.763-2.548.636-.477 1.197-2.113 1.058-2.6-.071-.5-.486-1.562-.486-1.562l-.361-1.194c0-1.978-4.722-5.913-4.722-5.913l1.197-3.11c.775-4.32-1.974-10.941-1.974-10.941-.65-3.28-.22-13.07.27-21.26z" stroke="#000" stroke-linecap="round" stroke-width=".3531" fill="#fff"/>
 <polygon points="299.49 342.79 299.77 344.27 299.21 342.58" fill="#fff"/>
 <polygon points="298.22 342.58 298.92 344.12 298.01 343.08" fill="#fff"/>
 <polygon points="297.73 344.27 299.06 345.39 298.14 345.04" fill="#fff"/>
 <path d="m295.69 331.65s-1.272-.575-1.211-1.623c-.136 2.96.779-3.886-1.763-.089-.982 1.497-6.416 8.193-8.039 7.642 0 0 1.344 1.474 8.039-4.808 0 0 1.201-1.122 2.123-1.071l.85-.05z" fill="#D1D3D4"/>
 <path d="m307.04 358.46s-6.706-16.232-8.329-15.811c0 0-1.412.429-.49 1.901l6.981 14.961-1.058-2.971 2.9 1.92z"/>
 <path stroke-linejoin="round" d="m300.7 273.29c0-.072-.078.979-.152.925 0 0-.348 6.271-3.1 10.918 0 0-.497 5.569-.919 12.14 0 0-5.362 11.575-9.458 2.96 0 0-3.521-8.108-4.369-3.025v.211.064c-.064.572-.214 1.201-.279 1.701-.496-4.226-1.058-13.626-1.058-13.626s-3.886-13.34-3.116-23.132-2.746-29.002-2.392-35.643c0 0-16.012-16.862-42.679-7.883 0 0-29.784 12.19-52.566 10.217 0 0-49.746-1.963-66.247-9.813 0 0-6.066-.905-7.203-1.19l-77.25-15.671c-.422-8.172-1.413-33.438-7.618-66.597 0 0-18.07-46.275-6.281-57.224l8.25-8.244s1.977-27.443 40.702-14.528c0 0 24.348 2.759 34.153.425 0 0 4.518-4.732 12.912-.214 0 0 8.605-1.337 10.591-2.545 0 0 1.548-3.099 21.936 5.094 0 0 47.408 5.484 66.672 3.936 0 0 28.991-4.722 41.91-3.524 0 0 28.226-2.409 37.606-6.292 0 0 18.485-14.102 44.737-5.072 0 0 8.18 2.759 26.661-7.819 18.406-10.591 34.425-20.407 40.358-24.354 0 0 2.334-1.547 2.746-7.821 0 0 7.06-14.545 21.938-3.097 0 0 2.555 2.311 5.855 7.172 1.354 1.984 13.348 9.241 13.348 9.241s18.406 21.53 21.581 23.503c3.103 1.977 18.771 14.889 22.721 16.1 3.882 1.177 7.828 7.033 7.828 7.033s.361 3.12-.411 5.859c-.786 2.759-5.859 11.786-9.822 13.337-3.869 1.551-2.671.429-2.671.429s-5.155 9.812-15.732 4.647-13.688-.766-16.012-1.129l-19.621 3.12s-10.867 3.44-18.346-3.392c0 0-12.629-3.674-14.181 4.944l-4.719 7.478s-17.223 30.964-25.13 37.245l-11.36 20.74s-7.829 21.945-9.381 23.561c0 0-7.828 16.794-7.478 20.319 0 0 1.197 11.003-7.407 18.485l-9.881 6.628s-3.596.861-3.671.986l-13.612 1-1.197 2.263s-2.688 13.388-3.539 14.235l-2.667 14.126-.987 11.003v-.22z" stroke="#000" stroke-linecap="round" stroke-width=".3531" fill="#58595B"/>
 <path stroke-linejoin="round" d="m23.208 337.34c.286 1.068-.143 3.467-.143 3.467l-.35 7.061c2.324 10.999 23.497 10.217 23.497 10.217l-.922-3.674 3.457 2.973c4.097-1.051 3.311-8.328 3.311-8.328l-6.621-13.767-1.562-1.548s-5.434-.977-9.452 2.049c-.001 0-9.385 5.23-11.215 1.55z" stroke="#000" stroke-linecap="round" stroke-width=".3531" fill="#C7C8CA"/>
 <path d="m24.48 338.48s1.119.782 3.661.854c2.544.14-4.162 12.344 6.917 16.365 0 0-9.24-1.337-11.214-8.032l.636-9.19z" fill="#B1B3B6"/>
 <path stroke-linejoin="round" d="m79.295 314.16c.351.677.561 4.773.561 4.773l.851 5.093c3.385 7.407 18.346 3.597 18.346 3.597l-1.201-2.483 2.888 1.575c2.743-1.426 1.058-6.431 1.058-6.431l-6.842-8.754-1.412-.841s-3.947.137-6.342 2.885c-.002-.01-6 2.89-7.909.58z" stroke="#000" stroke-linecap="round" stroke-width=".2825" fill="#C7C8CA"/>
 <path d="m80.496 314.36s1.483 1.133 3.317.771c1.837-.299-1.558 11.341 6.91 12.487 0 0-6.767.479-9.169-3.957l-1.058-9.3z" fill="#B1B3B6"/>
 <path stroke-linejoin="round" d="m95.671 312.52l.272-1.075c.426-3.521-6.417-7.458-6.417-7.458-1.973-6.641-1.766-40.787-1.766-40.787-.421-1.966 2.338-13.681 2.338-13.681 3.099-5.093 9.019-18.271 9.019-18.271 1.558-1.136 8.608-11.946 8.608-11.946 1.208-1.19 13.272 3.957 14.895 4.328l39.219 5.484c41.553 5.859 76.41-10.578 76.41-10.578 20.744-6.284 37.606 8.244 37.606 8.244l-1.123-16.076c-77.26-6.274-58.84 2.759-61.599 4.658-2.685 1.967-32.309 3.886-32.309 3.886s19.822-1.919.208-1.136c-19.622.786-23.915-3.886-23.915-3.886s-28.637-23.132-35.704-24.677c-7.049-1.551-33.652-32.536-33.652-32.536s-11.007-2.739-28.229-12.98c-17.28-10.163-21.577 28.208-21.577 28.208-3.532 8.689-8.043 30.199-8.043 30.199.425 31.407-7.196 34.081-7.196 34.081-5.505 7.492-3.953 11.003-3.953 11.003l3.953 16.447c3.875 11.003-2.756 61.949-2.756 61.949-1.974 8.264 2.756 11.003 2.756 11.003 3.661 5.431 20.323 6.056 20.462 6.431l2.398-4.879-.139-3.188c.775-2.31-3.246-4.934-3.246-4.934 0-2.388-4.236-9.951-4.236-9.951-.772-2.735 3.943-40.345 3.943-40.345 1.977-15.671 7.835-25.892 7.835-25.892 1.987-1.545 14.113-16.433 14.113-16.433 2.957-3.675 9.034 0 9.384 1.973.422 1.974-3.104 18.822-3.104 18.822-2.402 3.12 3.104 7.407 3.104 7.407 3.524 12.925.772 34.932.772 34.932-1.974 7.843 1.973 10.166 1.973 10.166 1.558-1.562.997 2.534 2.188 2.534-.065.14 1.347 1.263 1.347 1.426 0 0 3.032 2.882 8.744 2.524 5.642-.429 3.596-.979 5.291-.711 0 0 2.538-1.051 2.333-2.653l-.214-1.6z" stroke="#000" stroke-linecap="round" stroke-width=".3531" fill="#fff"/>
 <path d="m97.43 231.59s-6.556 8.819-22.507 9.669l-2.395-2.974s15.079 2.12 24.902-6.7z" fill="#C7C8CA"/>
 <path d="m69.489 237.52s-3.531-1.283-5.008-.286c0 0 .289 2.188.351 2.334 0 0 2.12.636 4.372-.146l.285-1.89z" fill="#DCD5D3"/>
 <path stroke-linejoin="round" d="m444.41 22.535s17.631-10.578 9.026 9.816l-9.03-9.816z" stroke="#000" stroke-linecap="round" stroke-width=".3531" fill="#6D6E71"/>
 <path stroke-linejoin="round" d="m308.38 330.02c.285.908.074 5.641.074 5.641l.426 5.934c3.035 8.955 20.669 6.124 20.669 6.124l-1.122-2.888 3.167 2.122c3.314-1.337 1.974-7.352 1.974-7.352l-6.979-10.793-1.487-1.126s-4.586-.271-7.617 2.674c0 .02-6.98 2.99-9.1-.32z" stroke="#000" stroke-linecap="round" stroke-width=".2825" fill="#C7C8CA"/>
 <path d="m309.58 330.52s1.622 1.388 3.742 1.262c2.113-.215-3.106 12.837 6.553 15.103 0 0-7.825-.214-10.149-5.576l-.14-10.78z" fill="#B1B3B6"/>
 <path stroke-linejoin="round" d="m319.81 279.49c-.565 8.118.067 24 .786 27.239 0 0 2.745 6.645 1.897 10.942l-1.126 3.181s4.658 3.886 4.658 5.859l.35 1.177s.491 1.068.565 1.568c.071.477-.497 2.188-1.062 2.664-.626.446-.422 3.386-1.763 2.549-1.412-.926-7.835-1.767-7.835-1.767-5.492 1.416-7.9-2.881-7.9-2.881-.215-.786.633-.926 0-1.352-1.123-.782-2.324.786-2.324.786s-3.109-4.32-2.323-8.604c.769-4.311 2.749-29.226 2.323-31.536-.071-.585 0-1.494 0-1.637.137-.286-5.083-12.912-5.083-12.912s.215-11.925 1.337-16.651c1.208-4.729 2.545-12.136 2.545-12.136l3.525-15.65h8.254l9.809-3.545s-4.511 26.814-4.861 28.576c-.426 1.783-.215 9.4 0 11.024.132 1.551-.851 9.795-1.201 10.928-.42 1.21-.57 2.18-.57 2.18z" stroke="#000" stroke-linecap="round" stroke-width=".3531" fill="#fff"/>
 <path d="m325.45 229.41l-1.766 9.877s0 1.211-2.535 1.766c-2.548.636-14.813 1.283-15.1.782-.285-.497 2.474-10.452 2.474-10.452l16.94-1.98z" fill="#D1D3D4"/>
 <polygon points="323.76 331.01 324.11 332.48 323.48 330.81" fill="#fff"/>
 <polygon points="322.49 330.81 323.2 332.41 322.35 331.28" fill="#fff"/>
 <polygon points="321.99 332.48 323.4 333.67 322.43 333.25" fill="#fff"/>
 <path d="m77.533 237.31c.351-1.194 4.372-1.337 5.499.214-.701 1.188-.701 4.447-.776 5.712-.068.909 0 1.62-.136 2.331-.064.916 0 1.337-.064 2.62-.075 1.187 0 2.674-.793 3.651-1.752 1.477-2.953-.126-2.953-.626-.076-2.133-.146-3.732-.211-6.07-.001-1.7-.988-6.18-.566-7.82z" fill="#E6E7E8"/>
 <path d="m452.51 23.321s-2.031 2.187-1.827 3.255c.211 1.051-1.477-1.974-1.477-1.974s1.42-2.067 3.31-1.281z" fill="#6D6E71"/>
 <path stroke-linejoin="round" d="m448.92 24.868s1.769-1.888 2.541-1.762l1.412.215s.36-.997 1.136-.786c.77.231.77 1 .77 1.782" stroke="#000" stroke-linecap="round" stroke-width=".3531" fill="none"/>
 <path stroke-linejoin="round" d="m497.32 66.285s-3.735.357-5.294.571c0 0-1.752-1.759-5.287-1.211 0 0-2.112 1.562-.562 4.736 1.552 3.096 4.583 7.352 3.811 9.312 0 0 1.47 3.946 1.059 4.811-.286.551 4.439-1.786 6.699-8.268 2.11-6.283 3.52-6.069-.43-9.951z" stroke="#000" stroke-linecap="round" stroke-width=".3531" fill="#808285"/>
 <path d="m491.54 83.769s4.232-4.361 4.654-5.144c0 0 2.898-7.036 2.898-7.887 0-.786-2.898.98-3.538 2.399 0 0-1.334.786-1.119 4.096 0 0-1.415.976-1.772-.786-.916-4.093-4.379-4.729-4.934-4.729 0 0 2.745 3.732 2.745 6.491l.572 2.535c0 .001.70 2.689.49 3.025z" fill="#6D6E71"/>
 <path d="m496.97 69.191s-1.198-.997-2.75-.211c-1.558.848-5.083-.936-5.083-.936s-.637.571-.214 1.909c.779 2.549 2.898 1.211 3.323 3.185.416 1.963 1.338 3.725 1.974 1.337.42-1.899 2.89-1.76 2.75-5.284z"/>
 <path d="m478.34 79.197l-6.838-9.244s1.759 4.311 1.337 5.729c0 0 7.41 8.822 5.5 3.515z" fill="#282829"/>
 <path stroke-linejoin="round" d="m315.08 206.98s5.645-2.334 7.406-7.492c0 0 .848-5.291 3.733-6.42 0 0 4.174-1.759 7.069-6.07l2.96 2.552s-.99 1.545 1.756 2.525c0 0 1.204 1.197.99 3.746 0 0-1.76 4.855.214 3.668l.776 1.762s-1.98 5.284-.426 5.155c1.562-.208 5.083-4.729 6.069-6.917.987-2.123-2.748 5.709-1.548 11.564 0 0-2.548 8.482-6.631 12.007-4.161 3.518-8.05 6.056-8.05 6.056s-8.676 3.525-10.442 3.11c-1.759-.351-10.359.201-10.359.201l6.48-25.46z" stroke="#000" stroke-linecap="round" stroke-width=".3531" fill="#fff"/>
 <path d="m312.54 217.34s3.882-1.337 6.423-1.551c0 0 1.416-.977 2.191-2.314.776-1.412 5.855-2.548 6.632-3.385 0 0 1.197.425-.922 2.174 0 0-2.61 1.973-2.61 3.946 0 0-2.674 2.337-5.423 3.334l-6.917.977.63-3.19z" fill="#D1D3D4"/>
 <path d="m310.79 224.61s1.753 1.974 6.271 1.552c0 0 6.07-2.109 7.196-3.311 0 0 3.957-3.542 5.505-3.732 0 0 1.763.19-.354 1.545 0 0-3.743 2.402-4.729 3.524 0 0-5.284 3.732-6.842 3.732l-7.683-.351.63-2.95z" fill="#D1D3D4"/>
 <path d="m361.93 44.901s4.369 28.154 5.641 31.546c0 .001-7.61-23.642-5.64-31.546z" fill="#282829"/>
 <path d="m356.64 52.733s-.351 18.571 3.528 26.675c-.01 0-7.06-14.103-3.53-26.675z" fill="#282829"/>
 <path d="m359.4 48.211s1.823 25.837 4.865 32.534c0 0-6.49-10.864-4.86-32.534z" fill="#282829"/>
 <path stroke-linejoin="round" d="m426.2 37.845s6.635-6.696 9.602-5.284c2.963 1.337 4.865 5.519 5.717 5.519 0 0-2.964.129-3.175.891 0 0-4.236 3.886-6.632 1.783-4.31-3.674-5.51-2.909-5.51-2.909z" stroke="#000" stroke-linecap="round" stroke-width=".3531" fill="#808285"/>
 <path stroke-linejoin="round" d="m427.18 37.634s7.425-4.859 9.03-3.937c1.555.987 2.827 2.6 3.402 4.147l-1.272 1.126s-3.886 2.756-5.645 2.208c-1.767-.575-1.767-1.211-1.767-1.211l-3.75-2.333z" stroke="#000" stroke-linecap="round" stroke-width=".5639" fill="#fff"/>
 <path stroke-linejoin="round" d="m435.8 40.39c2.604-1.259 2.893-3.518 1.767-5.206-1.137-1.623-3.11-1.701-4.869-.5-1.837 1.263-4.661 1.263-3.461 3.525.92 1.759 3.67 3.596 6.56 2.181z" stroke="#000" stroke-linecap="round" stroke-width=".3531" fill="#6B6053"/>
 <path d="m431.5 36.793c.351 0 .711-.21.711-.496 0-.35-.36-.555-.711-.555-.422 0-.719.205-.719.555 0 .286.30.496.72.496z" fill="#fff"/>
 <path d="m433.82 37.845c1.136 0 2.048-.351 2.048-.687 0-.365-.912-.714-2.048-.714-1.123 0-1.974.35-1.974.714 0 .336.85.687 1.97.687z"/>
 <path d="m442.29 35.32l2.123 2.524s.987-.21-.786.572c-1.762.786-1.979 2.548-2.108 3.174-.494 1.348-5.938 1.422 2.108 2.548 5.716.763 12.137 6.832 12.137 6.832s-6.421-6.695-7.403-7.818-.215-.789.771-1.974c.987-1.211 0-2.762-.771-2.97-.78-.128-5.51-1.911-6.07-2.888z" fill="#282829"/>
 <path d="m439.54 40.39s-2.185 3.749-3.171 4.511c-.986.786-.986 4.096-.986 4.096s-1.912 1.422.636 1.422 4.29 3.861 3.096 5.434c0 0-1.973-.783-.986-.575.986.214-.561 1.551.215 1.997.771.34 1.966 4.287 2.535 4.855 0 0-.212.979-1.764-1.344 0 0-7.267-4.171-8.183-3.957 0 0-.207-.34 2.89 0l.214-.976-4.876-.575s4.097-.762 5.648-.422c0 0 3.535-.34-2.109-1.123 0 0-6.135.547-7.057-.215-.987-.786-1.63-1.337-3.174-1.766-1.552-.421-6.847.79-7.833 0-.986-.783-1.197-4.518.215-4.719 0 0 3.521-1.348 4.858-.572 0 0 6.706 3.317 8.264 2.331 1.552-.994.776-1.344.201-1.896-.637-.649.575-.649 1.564-.86l-2.555-6.621s3.749 2.756 4.314 2.947c1.85.576 5.79.790 8.05-1.972z" fill="#282829"/>
 <path d="m437.77 32.351s-1.188-5.298-11.354 2.333c0 0 8.6-5.644 11.35-2.333z"/>
 <path d="m434.04 29.25s-5.287.786-7.836 4.311c0 .001 3.11-5.147 7.84-4.311z"/>
 <path stroke-linejoin="round" d="m402.85 25.705s-2.752 5.158-5.433 4.944c-.568 0-2.263 3.75-.415 7.716 1.411 2.865 3.096 6.335 3.442 7.533" stroke="#414042" stroke-linecap="round" stroke-width=".5639" fill="none"/>
 <path stroke-linejoin="round" d="m397.57 31.013l1.474 1.548-1.47-1.548z" stroke="#000" stroke-linecap="round" stroke-width=".5639" fill="#414042"/>
 <line stroke-linejoin="round" x1="397.57" y2="42.172" x2="399.25" stroke="#000" stroke-linecap="round" y1="39.628" stroke-width=".5639" fill="none"/>
 <path d="m404.54 26.78s-1.272-.49-1.695.847c-.35 1.413-.84 2.409-.84 2.409l.776 5.148s-.776-1.912.351-2.752c1.197-.783 2.259-.582 2.96.415.703 1 1.697 4.025 1.697 4.025s-3.175 1.493-4.236 2.595-2.544 2.409.215.715c2.749-1.617 3.311-1.48 3.807-1.974.49-.5 2.188-2.338 2.188-2.338l.422 2.832s0 2.262-1.059 3.388c-1.062 1.062-2.749 2.61-2.749 2.61s-.562.701.701 0c1.272-.711 2.756-1.844 3.535-5.073.771-3.256 0-7.689 0-7.689l-3.039-3.885-3.02-1.273z" fill="#6D6E71"/>
 <path d="m409.77 41.676s2.538-5.855 2.188-6.992c-.289-1.052-.565-3.385-.646-3.821-.619-1.973-5.065-4.212-5.488-4.287-.425-.082-1.562-.286-1.983 0 0 0 4.729 2.177 5.294 3.937 0 0 .5 1.623-.497 3.119-.278.266-2.041 4.002-1.265 4.498 0 0 1.912-2.044 1.912-.762.01.341 1.42.552.50 4.308z"/>
 <path d="m415.2 29.75s1.697 1.337 1.473 3.882c-.06.902.71-3.745-1.47-3.882z"/>
 <path d="m416.61 29.601s.986-.085.986.701-.70-.701-.99-.701z"/>
 <path d="m398.05 40.965s-3.097 2.674-3.39 4.518c-.351 1.892 2.753 3.229 4.025 3.175 1.272-.15 3.031-.361 3.031-.361s-3.23-7.118-3.66-7.332z" fill="#282829"/>
 <path d="m414.7 29.601s-6.845-2.113-8.043-3.522c0 0-3.596-1-3.946.416-.429 1.344-.429 4.593-.211 6.566 0 0 2.746 6.406-.779 6.567 0 0-1.408.214-1.623 2.735-.136 2.538 1.201 7.196 4.161 5.437 0 0 6.07-2.113 7.407-4.45 0 0 4.443-2.96 4.235-5.641-.064-1.266.708.708.497 2.474-.211 1.782 0 .571 0 .571s.425 3.096 2.181 3.861l-3.167.66s3.81-1.075 1.262-1.551c0 0-.701-2.62-1.974-2.133l-3.174 3.11s-7.468 4.093-8.815 4.093c-1.412 0-2.964-4.093-2.964-4.093s-1.408-5.233 2.613-6.621l.351-2.419s-1.763-4.296-1.126-6.835c.915-3.382 1.901-3.746 1.901-3.746s1.548-1.122 3.532.215c1.897 1.357 5.358 3.045 5.572 2.459.208-.623-.149-2.885.698-2.048.77.789 2.55 1.425 1.41 3.895z"/>
 <path d="m415.2 36.297s1.908-1.398 2.745-.901c0 0-.7.551-.486.901.01 0 .71-.691-2.25 0z"/>
 <path d="m428.75 6.118s-2.549-.656-3.743.211l-3.885-.657c-.416-.551-.626-.337-.626-.337s-7.057 1.759-8.189 3.668l-.43 3.385s1.201.139 1.001.976c0 0 1.759.576 3.096.786 0 0 2.75-2.759 5.295-.786 0 0 4.726 5.308 14.534 8.404 0 0 6.063 4.726 7.475 8.818 0 0-.425 2.974 15.876 6.836 0 0 2.531 1.547 3.531 2.205l-3.382-4.521-8.186-8.816-6.492-7.492s-10.802-7.407-12.354-7.821c.01 0-2.17-3.31-3.51-4.859z" fill="#fff"/>
 <path d="m458.94 52.733l14.462 8.615s-2.33-.35-4.297-.762c-1.97-.446-10.16-7.853-10.16-7.853z" fill="#282829"/>
 <path d="m405.03 12.954s1.766 2.178 2.971.571c0 0-2.399-3.542-2.185-5.858l-.79 5.287z" fill="#282829"/>
 <path d="m342.88 90s10.229 22.707 11.003 30.117c.01 0-10.57-21.513-11-30.12z" fill="#282829"/>
 <path d="m356.15 90.911c.061.137.911.075.911 0 .844-5.073-.775-9.867-1.412-14.889.075 1.052.286 2.188.562 3.1 1.272 3.47 1.773 7.355 1.974 11.003.149 1.551.439 3.184.5 4.756.075 5.698.286 10.292.496 13.316-.922.072-1.058-.711-1.058-1.211-.775-8.03-2.263-15.651-5.223-23.054 1.55 2.117 1.91 4.716 3.25 6.975z" fill="#282829"/>
 <path d="m298.3 141.99c.626.997 1.337.837 1.973 1.262 2.889 1.548 5.22 3.671 7.693 5.93.837.786 3.95-1.208 12.204 7.407-5.859-10.582-11.504-12.425-14.331-13.892-.204-.082-.555.079-.694-.082-2.97-3.174-3.605-7.407-5.294-11.289-.36-.837-1.2-1.551-1.912-2.239-.136-.149-.775.065-1.048.351-2.188 2.746-4.1 5.855-4.175 9.312 0 .429-.771 1.766 1.763.766 1.41.71 2.97 1.21 3.82 2.47z" fill="#282829"/>
 <path d="m186.68 94.436c-4.447 8.264-4.723 10.953-3.596 9.026-.714 1.137-1.201 2.338-1.909 3.525-.351.571-.779.996-1.13 1.623-.99 1.569-1.272 3.256-1.194 5.093 0 .565-.218 1.211-.78 1.552-.207.071-.496 0-.789 0 1.003-3.675-.405-7.346-.198-10.942.144-2.109 1.416-4.022 2.538-5.92.136-.361-.082-.861.072-1.124 1.266-2.337 2.188-4.885 5.011-5.722 1.474-.422 3.035-1.834 4.723-1.763 1.63 2.272-1.89 3.188-2.74 4.665z" fill="#282829"/>
 <path d="m172.14 97.978c-.636.891-2.045.891-2.681 1.966-5.577 9.167-4.726 11.636-5.427 13.399 0 0 .279.211.279.36.072.477.146 1.473-.7 1.051-.715-.415-.5-1.463-.368-2.252.504-2.396.368-4.729 1.14-7.067-.772-2.181-.286-4.433-.422-6.621 1.688-3.167 3.869-6.28 7.132-7.689 1.759-.714 3.872-1.477 5.784-.84.136.054.136.701 0 1.051-.78 1.048-2.549.912-2.899 2.048-.55 1.554-.84 3.177-1.83 4.599z" fill="#282829"/>
 <path d="m158.1 96.429c-1.337 4.151-3.596 7.669-5.709 11.48-.575.915-.929 1.984-1.133 3.035-.565 2.474-1.487 4.583-1.902 7.067-.071.5-.21 1.405-1.068 1.112-.204-.058-.34-.473-.34-.687.136-.5.636-.786.701-1.208.636-5.284 1.408-10.241 3.808-14.96.911-1.827.911-3.95 1.684-5.838-1.61-1.072-3.161.691-4.154 1.678-.28.286-1.48 4.307-1.902 4.518-.987.629-.85-2.045-1.837-1.623-2.746 1.051-5.355 2.409-8.118 3.246-3.311-.497-6.556-.357-9.802-.357-2.113-1.687-3.736-3.739-5.573-5.859-.636-.71-1.548-.976-2.259-1.603-.137-.16 0-.496 0-.782.632.072 1.412-.564 1.347-.714-.636-2.548-2.895-4.379-3.321-7.121-.286-1.408-2.044-1.408-2.395-2.756-.364-1.551.351-2.389 1.623-3.096 0 .759.422 1.545 1.541 1.896.082 0 .293-.287.354-.287 1.201.072 1.623 1.337.851 2.27 2.122 1.691 4.657 2.528 7.406 2.45.776 0 1.626.649 2.324.578.497-.078 1.133-.415 1.562-.214 2.96 1.759 6.206.214 9.104-.765.562-.222 1.262-.146 1.899 0 5.644 1.115 10.863 1.265 16.508 0 .35-.075.772.351 1.126.265.211-.055.211-.623.426-.623 1.272-.429 3.324-1.552 3.742-.078.275.915-.925 1.623-.633 2.674-3.54-.551-4.95 3.545-5.87 6.304z" fill="#282829"/>
 <path d="m46.772 57.616c-2.259.997-5.08.051-6.995 2.048-2.746 2.671-3.661 4.995-2.038 3.096.493.35-3.804 3.099 1.98.711 1.262-.572 2.177-1.548 3.167-2.685.15-.074.564-.074.714 0 .486.636-2.688 3.236-4.597 4.573 3.111-.486 11.498-5.355 7.769-7.743z" fill="#282829"/>
 <path d="m161.41 73.138s-6.828-.211-8.607 1.762c0 0-.555-3.311-4.93.551l-1.545 1.569s.772-3.542-1.973-2.896c0 0-2.052 1.898-4.035 3.311 0 0-6.907-1.548-8.88-3.743 0 0-7.632-6.073-10.941-7.05-.851 0-9.03-4.307-9.456-6.842 0 0-5.073-7.257-11.568-2.324 0 0-15.661 8.959-16.855 9.38-1.136.351-.564-.214-.564-.214s3.524-.997 1.408-1.337c-.636.144-5.154-.207-6.277-.432 0 0 7.615-.775 11.344-2.538 0 0 10.387-5.845 11.588-5.845 1.123 0 4.505-4.736 13.463 1.126 9.04 5.907 15.31 10.578 21.383 11.214 0 0 23.35 4.522 26.45 4.308z" fill="#282829"/>
 <path d="m114.58 56.616l9.456-2.882s6.42-.293 17.984 4.879c0 0 2.188.976 3.525.976 0 0-15.089-1.214-15.869-1.762 0 0-13.12-1.973-15.09-1.211z" fill="#282829"/>
 <path d="m247.49 69.044c-1.201 1.051-2.328 2.044-3.678 2.96-.619.422-1.184.922-1.892 1.188-.701.36-1.416-.551-1.902-.405-4.097.905-5.726-.286-8.618 1.337-2.824.977-5.706 1.272-8.679 1.762-3.872.687-7.468-.571-11.279-1.126-.5-.072-.708-.997-.071-1.834-.351-.286-.779-.711-1.13-.711-1.408 0-3.113 1.477-4.232.211-.286-.286-.218-.922 1.051-1.473-.354-.215-.701-.65-1.123-.714-6.145-.837-11.993-1.259-18.063-1.77-1.834-.139-3.535-.901-5.508-1.112-.136 0-.351-.575-.272-.65 1.97-1.834 5.219-.901 7.683-.636 2.123.286 4.168.5 6.355.636.772.075 1.548.572 2.324.65 4.021.497 7.689-.786 11.786-.079.565.129 1.266-.286 1.977-.207 5.355.547 10.717 1.123 16.086-.29 1.337-.347 2.821.075 4.232-.211 2.324-.629 4.444-1.552 6.696-2.188 1.987-.486 3.882.715 5.855.636 1.766-.071 3.039-.997 4.736-1.408 1.623-.426 3.246-.215 4.654.772.279.215-.071.775-.357 1.065-.851.622-1.973.197-2.674.837-1.22 1.209-2.69 1.709-3.97 2.76z" fill="#282829"/>
 <path d="m28.349 173.24c.079.636 1 8.475.565 10.237 0 .14 1.204 16.512 1.422 16.437 1.973 7.281 12.129-11.575 12.129-11.575-.214-1.341.77-3.882 1.552-5.648.783-1.759.636-10.217.636-10.217-3.525-8.043.146-7.638.146-7.638 5.92-.98 6.07-3.94 6.284-4.512 0-1.548 1.194-2.524 1.194-2.524 2.116-3.185 1.19-7.066 1.19-7.066-.976-7.05 2.821-11.983 2.821-11.983.5-.497.851-1.068.714-1.909 1.273-2.184 2.896-4.232 4.308-6.28-.425-.286-.775-.572-1.211-.786.436.075.922.446 1.136.286.561-.412.772-1.473 0-2.174-3.042-2.688-7.271-4.308-8.608-8.329-2.259.055-3.32-2.123-3.596-4.307-.211-1.337-3.808-4.597-5.294-4.226-.85-1.136 1.973-.445 1.333-1.568-1.836-3.164-5.144-4.788-7.257-7.958-.221-.351-.221-.923-.497-1.062-.5-.289-1.409.139-1.837-.225-2.746-2.024-4.583-4.729-7.131-6.907-3.167.36-6.342-.973-7.815-3.946-1.772.551-2.412-1.075-3.11-2.334-1.902 1.123-2.123 3.46-2.824 5.505-.146.295-.636.496-.711.775-.35 1.623.075 3.246.841 4.668.156.266.718.266 1.068.416-.211.421-.773.85-.636 1.136.286.837-1.409.837-1.124 1.833.272.841-.643 1.402.416 2.314 0 0-.204 7.618 7.057 27.654 0 0 2.97 8.615 4.308 21.166l2.531 20.76z" fill="#282829"/>
 <path d="m301.19 103.46c-1.13-3.933-1.266-8.665.139-12.551.568-1.473-1.126-.625-1.69-1.547-.146-.29-.146-.783 0-1.126.422-1.208 1.552-2.331 1.337-3.522-.425-2.548-.701-5.148-1.905-7.427-1.19-2.388-2.402-4.787-2.817-7.461-.636-3.968-2.612-7.564-2.334-11.789 0-.708-.211-1.548-.139-2.331 0-.429.35-.979.214-1.136-1.412-1.266-3.386-.055-5.012.286-.493 1.837.279 4.018.851 5.93.215.69.915 1.263 1.052 1.974.422 3.099 1.908 5.648 2.896 8.543.769 2.174-.072 4.147.35 6.345.15.762.575 1.474.711 2.324.351 1.773-.21 3.382-.496 5.083-.426 2.11-2.188 3.681-2.609 5.93-2.824 1.398-3.886 4.447-4.583 7.407-.215.922-.429 1.898.697 2.684.211.126.64 0 .711.075.422 1.323 1.905 1.898 2.324 3.161.496 1.201-.419 2.252-.626 3.535-.075.351.139.762.35 1.137.698 1.048 2.324.412 2.61 1.599.489 2.208 1.837 3.885 1.262 6.216-.136.714-.84 1.065-1.048 1.637-1.63 4.647-4.45 8.397-7.557 12.129-.697 2.684-2.749 4.593-4.446 6.907-.772 1.136-2.109 1.633-3.311 2.188-1.198.497-2.11 1.283-2.324 2.62-.289 1.337.065 2.6-.221 3.937-.415 1.848-1.688 4.308-2.459 6.073-2.402 5.801 2.609.153 2.96.071.558-.071.708-1.051 1.197-1.337 2.049-1 3.11-3.045 5.083-3.937.351-.16.841-.235 1.123 0 .912.551 1.412 1.392 2.048 2.249.351.401 1.062 1.133 1.834-.436 1.337-2.759 1.337-5.91 3.6-8.172-.074-4.093 1.834-8.115 4.301-11.371 0-1.626.993-3.018.919-4.723-.075-.976.489-1.909 1.126-2.677.775-.919 1.412-1.841 2.334-2.185 2.746-1.208 2.96-3.596 3.732-5.995.211-.933.5-1.834.564-2.834.149-1.051.786-1.959 1.483-2.811 1.205-1.272-.074-2.745-1.483-3.46-.415.912-1.337 1.051-1.898.626-.48-.32-.63-1.15-.83-1.87z" fill="#fff"/>
 <path d="m257.02 159.77c2.398 1.633 1.623 3.47 1.337 5.645-.136 1.347-1.262 2.188-2.674 2.334-1.698 2.528-2.337 5.284-4.233 7.883-.214.446 0 .997-.075 1.569-.425 1.551-.987 2.817-1.762 4.161-.572 1.126-.286 2.603-1.412 3.175-.289.211-1.058.286-1.058-.286 0-1.892-.146-3.736-.636-5.434-.987-3.31-.351-6.621 1.198-9.52 1.555-2.82 1.555-6.131 3.46-8.89 1.266-1.834 1.909-3.671 2.82-5.645.776-1.902.351-4.161.912-6.209-.912-1.837-2.185-3.46-2.674-5.505-.422-1.902-.211-4.147 2.324-4.291 2.123 2.739 2.474 6.485 1.552 9.795 1.136 2.188.286 4.447-.351 6.706-.43 1.63-.07 3.61 1.27 4.52z" fill="#fff"/>
 <path d="m279.95 170.14c-.5.837-.922 1.834-.986 2.756-.14 1.892-.987 3.6-2.556 4.576-.405.286-.976.071-1.541.071.204-1.83 1.909-3.232 1.837-5.069-.079-3.542.35-6.981.136-10.578 1.831-1.062 2.756-2.974 4.447-4.182.637-.497.565.371.426 1.837 0 .211.847.497.922.772.27 3.53-.93 6.71-2.69 9.81z" fill="#fff"/>
 <path d="m234.94 201.47c-.987-1.762.35-3.6-.136-5.437-.078-.357-.714-.762-1.075-.708-1.112.136-1.337 1.837-2.385 2.133-2.334.476-4.808-.088-7.06 1.123-1.276.626-10.802.912-11.5 3.525 1.837 1.283 9.03 3.722 11.149 4.647 1.266-1.337 3.239 1.283 4.726.446.636.963 17.284 0 17.985.963 2.48-.34-14.88-3.38-11.7-6.69z" fill="#fff"/>
 <path d="m253.98 191.23c.211-1.548 1.198-2.674 1.412-4.226.065-.633.922-.497.987-.347 1.272 2.898 1.902 5.995-.064 8.805-.997 1.497-2.552 2.909-4.519 2.473-.075-.976-2.048.572-.714-1.902.92-1.69 2.61-2.88 2.89-4.8z" fill="#fff"/>
 <path d="m100.46 91.411c3.603-.786 7.121.136 10.581.211.289 0 .565-.636.775-1.068-1.898-1.19-2.674-3.661-3.035-5.838-.421-2.208.286-4.257.286-6.305-.071-1.623-1.684-3.174-1.198-4.719 4.373-12.555-1.337-1.477-2.262-.715-1.272 1.072-1.974 2.419-3.596 3.045-1.272 2.814-2.684 5.509-4.658 7.911-3.597-.365-6.982.973-10.081 2.544-2.123.974-4.447 1.334-6.291 2.674-4.937 3.733-8.384 8.669-13.392 12-.497 1.813-1.848 3.096-2.759 4.711-.139.287.075.858-.062 1.124-1.064 1.919-2.197 3.756-3.46 5.515.412 2.538.772 5.147 3.096 6.699.137 1.337-.075 2.459-1.051 3.596-1.072 1.337 1.051 1.211 1.827 1.837-.987 1.211-3.386 7.904-2.899 9.241 1.987 5.645 8.057 9.527 11.718 14.103 1.136-.48 3.746.371 5.083.786.986 2.12 2.334 1.051 4.378 1.974.204.071 1.899-1.211 2.324-1.211 1.626-.054 2.674-1.548 4.311-1.963.625-.136 4.086.575 4.722.415.421-.129-3.6-4.147-3.46-4.512.286-.847-.139-1.609-1.412-2.398-.701-.497-.211-1.677-.923-2.259-1.612-1.337-2.81.296-4.225 1.062-.497.204-1.272.204-1.408-.688-.361-1.837-1.205-3.334.136-5.593.351-.629-.351-1.402-1.473-1.888-.793-3.47-.572-7.281-3.045-10.241-.418-.561.5-1.344.5-1.898 0-3.671-.564-7.267.286-10.952.701-2.674 3.032-4.297 4.083-6.771.425-.922.775-1.813 1.415-2.596.708-1 1.194-2.337 2.313-2.61 2.27-.575 3.753-2.126 5.802-3.038 1.336-.636 1.061-2.833 2.398-3.256 1.627-.477 2.614 1.497 4.657 1.071z" fill="#fff"/>
 <path d="m98.981 143.9c-.143.901-1.276 4.998-.279 4.447.986-.5 1.415 8.383 4.726 2.749.695-1.126 2.47 3.521 3.518 4.287 1.912 1.497 2.474-2.252 4.808-2.6 1.684-2.477 3.388-8.618 5.998-10.506-.429-.422-1.766.551-.779-1.909-.422-.139-.844-.425-1.208-.35-2.327.636-4.373 1.898-6.696 2.123-2.96.272-6.073-1-8.952.272-.502.21-1.003.85-1.139 1.49z" fill="#fff"/>
 <path d="m97.294 178.39c.558.425 1.048.861 1.623 1.133 1.759.789 3.46 1.562 5.069 2.752 1.702 1.208 3.596.997 5.508 1.347 4.311.776 6.985 4.008 9.88 7.192 1.337 1.416 3.246 1.909 5.009 2.889 1.473.857 1.973 2.259.421 3.46.844.35 1.337 1.133 1.974 1.895.636.714 1.552 1.146 2.337 1.623.136-.262.201-.623.415-.688.558-.221 1.409-.286 1.831.064.279.211-.061 1.052.143 1.337.922.783 1.98 1.548 3.106 1.994 3.733 1.177 6.706 3.865 10.582 4.773.772 1.922 3.032 1.848 4.654 2.824.925.571 1.551 1.487 2.402 2.252-.782 1.137-.428 2.331-.354 3.542.068.422.354.922.776 1.051.636.286 1.474 0 2.262.14 1.334.357 2.61.932 3.947 1.068 3.532.214 7.056.34 10.581-.286 3.735.84 7.478-.136 11.364.5 1.909.34 3.807.126 5.501 1.409 5.012.429 9.874-.412 14.878-.786.575-.071 1.137-.568 1.633-.568 4.784-.619 9.384-1.051 14.106-2.453.847-.286 1.759 0 2.685-.149.708-.075 1.337-.422 1.973-.708.351-.054.772 0 1.123-.054.775-.078 1.351-.575 2.051-.636 2.045-.289 4.019-.932 5.924-1.912 1.483-.711 3.252.425 5.015.214-.562.551-1.273.973-1.487 1.62-.061.286.351 4.365.497 4.311 3.525-1.422 4.862-2.123 9.03-2.545 19.972-2.188 31.475 8.952 31.747 8.615-.769-14.688-1.405-17.073-1.548-18.07-1.773.997-11.225 1.623-10.585-1.129-3.603.204-1.419-3.756-15.314.129-3.024 1.422-25.817-1.052-27.654-4.284-2.048-.575-4.093-.289-6.281-.15-.772.072-1.824-.425-2.746-.5-.49 0-.779.912-1.13 1.412.204.136.64.211.701.425.139.357.214.837 0 1.123-1.623 2.188-2.681 4.597-2.681 7.142-1.412 1.262-3.174 2.024-4.729 3.1-2.042-.497-3.239 1.398-5.076 1.898-1.123.289-2.538-.351-3.45.575-.847.837-2.048.977-2.685.477-1.759-1.262-3.321-1.188-5.294-.84-1.062.214-1.909.418-3.035.149-.35-.071-.49-.861-.857-.997-1.405-.555-2.742.847-4.287-.072-1.837 2.406-5.298 1.623-7.417 0-2.756 1.623-6.199 1.49-8.676-.769-.347-.286-.983-.286-1.483-.497-2.535-1.051-2.895-3.96-4.869-5.648-.701-.547-1.187-1.473-2.184-1.83-.351-.143-.497-.766-.851-1-.701-.479-1.551-.626-2.324-.837.137-.425.419-.98.286-1.136-2.184-1.889-5.154-2.024-7.692-3.311-.847-.415-1.833-.977-2.324-1.912-.847-1.398-.292-3.161-1.272-4.569-.286-.429-.701-.714-1.133-.786-.84-.136-1.616-.34-2.324-.551-1.837-.575-3.596-1.477-5.147-2.623-2.688 0-4.808-1.762-7.407-2.038-.786-.071-1.348-.772-2.049-1.068-.425-.132-1.061.082-1.486-.132-2.11-1.283-4.369-2.181-6.07-4.093-.351-.351-1.337-.711-2.185-.5-2.049-4.147-3.035-8.666-1.688-13.402.139-.572-.5-1.262-.572-1.909-.279-2.099.279-4.308-.279-6.196-1.058-3.259-.636-6.219 2.049-8.404 1.551-1.337-1.059-1.762-1.834-2.674-1.351.772-2.896.071-4.311-.214-1.408-.211-1.623-2.048-2.395-3.311-1.759.265-3.46.626-5.083-.371-2.539 1.763-6.209.289-8.605-1.197-2.538.357-4.933 1.623-7.471 1.486-1.909-.129-3.321-1.837-4.308-3.46-.775.572-1.201 1.409-1.201 2.409-.636 0-1.547.211-1.834-.435-1.276-2.664-3.6-4.498-5.573-6.696-.207-.286-.149-.851-.422-1.062-2.474-1.477-3.324-3.936-5.158-5.93-.204-.214-.912-.415-.986-.343-2.12 3.174-4.512 5.777-5.717 9.319-.204.762-1.126 1.188-1.837 1.613.36.36.915.701 1.133 1.197.772 1.837-1.201 1.902-2.324 2.688.35 3.328 2.895 5.57 5.083 7.822 1.542 1.629 3.17 1.418 5.145 1.282.35 0 .775.636 1.126.636 1.197-.16.36-1.973 1.197-2.123 1.552-.139 2.474 1.749 3.96 2.123 1.892.412 3.311-2.048 4.933-1.266 3.957 1.892 6.556 5.277 8.819 9.169.5.762 1.27 1.262 1.837 1.963.636.851.208 1.973.909 2.684 2.051 2.474 3.184 5.359 5.583 7.332 1.367 1.23 3.266 1.8 4.828 2.99z" fill="#D1D3D4"/>
 <path d="m81.058 251.5c-1.623 1.337-2.674-.156-2.674-.571-.074-1.974-.15-3.447-.221-5.57 0-1.551-.977-5.723-.565-7.196.361-1.058 4.096-1.208 5.083.201-.701 1.136-.626 4.096-.701 5.233-.075.837 0 1.473-.15 2.174-.061.786 0 1.211-.061 2.419-.075 1.06 0 2.4-.711 3.32z" fill="#EBE5E3"/>
 <path d="m80.983 251.5c-1.474 1.191-2.464-.156-2.464-.497-.071-1.833-.136-3.184-.136-5.072-.074-1.419-.922-5.219-.5-6.566.279-1 3.671-1.147 4.586.211-.64.976-.64 3.664-.701 4.732 0 .762 0 1.337-.075 1.963-.139.711 0 1.133-.075 2.188-.063.93.001 2.19-.635 3.05z" fill="#EDE5E2"/>
 <path d="m80.918 251.43c-1.348 1.123-2.259-.085-2.259-.426 0-1.626-.068-2.813-.14-4.596 0-1.262-.772-4.647-.421-5.855.286-.915 3.321-.976 4.089.16-.493.892-.493 3.311-.568 4.287-.064.701 0 1.201-.064 1.769-.136.636 0 .977-.072 1.977-.065.84 0 1.98-.565 2.69z" fill="#F1E5E0"/>
 <path d="m80.782 251.43c-1.136.987-1.912-.085-1.912-.426-.071-1.422-.136-2.544-.136-4.021-.075-1.123-.711-4.171-.425-5.223.21-.847 2.953-.922 3.67.129-.497.786-.425 2.97-.497 3.811-.064.572 0 1.068-.064 1.544-.157.575 0 .946-.075 1.783-.081.72 0 1.77-.561 2.41z" fill="#F5E5DE"/>
 <path d="m80.707 251.43c-.986.837-1.698-.136-1.698-.351-.064-1.286-.064-2.283-.14-3.596 0-.997-.561-3.62-.351-4.521.215-.701 2.613-.857 3.25.064-.425.701-.425 2.62-.507 3.328 0 .555 0 .98-.058 1.392-.072.5 0 .786 0 1.575-.071.61.001 1.47-.496 2.11z" fill="#F7E5DD"/>
 <path d="m78.945 244.43c.14-.626 2.188-.708 2.674.078-.357.633-.276 2.256-.357 2.892 0 .415 0 .786-.058 1.126-.072.497 0 .711 0 1.337-.072.564 0 1.347-.422 1.847-.925.701-1.486-.085-1.486-.286 0-1.136-.065-1.902-.065-3.11-.001-.84-.572-3.12-.286-3.89z" fill="#FEE7DC"/>
 <path stroke-linejoin="round" d="m65.393 236.53s19.407 6.145 32.313-5.855c0 0 9.455-11.006 11.363-15.103 0 0 4.512-3.862 5.924-4.297 1.344-.351 12.912-4.862-1.555-9.38-14.521-4.521-.633-.211-.633-.211s-7.832-4.518-11.146-4.096c-3.317.35-8.604.786-12.347 5.434-3.733 4.729-12.766 18.281-12.766 18.281s-8.18 14.1-11.154 15.23z" stroke="#000" stroke-linecap="round" stroke-width=".3531" fill="#fff"/>
 <path d="m79.435 237.74c3.596-.14 20.604-4.726 4.028-3.12-.364.072-2.681.497-3.181.572-3.171.36-9.591.837-8.959-1.337.276-.84 14.678-.84 19.751-4.933-6.481 2.749-15.246 2.674-15.515 2.749-3.181.762-4.868.061-5.083.211-.85 1.402-3.381 4.443-3.732 4.443 0 .078.486.415.979.49.779.065 1.416.29 2.402.562.137 0 .701-.136.78.15.636 5.069 2.109 4.307.558 12-.14.691-.351 1.973.565 1.973 2.188-.422.5-3.042 1.623-4.167.136-3.947.84-5.729 2.609-9.591.150-.28.351.15 3.175.01z" fill="#E6E7E8"/>
 <path d="m116.13 209.16c.708 1.347-2.613 2.756-3.885 3.311-1.688.765-3.736 1.759-4.797 5.645-.062.286 6.495-3.311 6.631-3.46 2.123-1.473 4.375-1.133 6.355-.425.915.286 1.827.5 2.749.997.425.214.775.555 1.201.714.343.126.83 0 1.197.054.637.286 12.13 3.542 12.694 3.311.432-.133-10.009-3.157-11.006-4.576-.425-.708-.425-1.909 0-2.599.847-1.361 9.877.126 16.162-.286-2.26-1.075-16.587-4.648-18.135-6.57-.85-.997-1.762-2.831-3.256-2.623-3.3-4.569-20.584-10.925-31.38-.548-.782.837 6.903 1.885 19.823 2.123 1.973.051 3.596 1.759 4.869 3.161.16.16.66 1.42.80 1.78z" fill="#C7C8CA"/>
 <path stroke-linejoin="round" d="m80.207 230.67l7.842-1.837" stroke="#C7C8CA" stroke-linecap="round" stroke-width=".1413" fill="none"/>
 <path d="m490.69 64.873s-4.726-1.19-5.076 1.198c-.423 2.338-3.188-3.171-3.188-3.171s-5.48-3.876 8.27 1.973z" fill="#4D4D4F"/>
 <path d="m403.27 17.461s-1.906 10.091-3.446 12.054c0 0-1.634.998-2.056 1.072 0 0-.769-.551-1.269 1.208 0 0-.708 1.337-.708 2.313 0 .997-1.616 1.075-2.116.925-.486-.215.078-2.474 1.065-3.886.02.002 7.78-8.668 8.55-13.686z" fill="#282829"/>
 <path d="m353.11 45.275s-4.16 4.933-3.323 9.241l-.211-7.281 3.53-1.96z" fill="#282829"/>
 <polygon points="346.83 47.661 346.83 51.182 345.28 48.011" fill="#58595B"/>
 <path d="m28.771 256.86c-1.759.286-2.317-1.051-1.895-2.474.701-2.548.289-4.862 0-7.407-.071-.497.214-1.123.426-1.552.203-.571.775-1.068 1.047-1.623 1.348-3.256 2.126-6.853 4.808-9.326.136-.129 1.048-.551.915.711-.286 2.184-3.535 4.732-.987 6.641.286 1.477-.714 2.6-1.201 3.937 2.61.715 2.398 3.311 2.749 5.522-2.113 1.76-2.749 5.07-5.862 5.57z" fill="#D1D3D4"/>
 <path d="m28.914 310.61s-1.552 16.862-3.096 18.41l-.78-1.548c1.201-1.54 3.876-15.23 3.876-16.86z" fill="#D1D3D4"/>
 <path d="m48.46 357.1s-5.573-20.102-7.546-19.813c0 0-1.759.286-.908 2.185l6.206 18.614-.922-3.674 3.17 2.68z"/>
 <path d="m42.114 330.72s-3.947-1.201-3.524-2.539c.351-1.348.132-2.188-1.409-.425-1.562 1.763-10.942 9.03-12.919 7.903 0 0 1.337 2.334 12.147-4.168 0 0 1.959-1.137 3.096-.771h2.609z" fill="#D1D3D4"/>
 <path d="m88.325 304.54s-1.263-.5-1.201-1.551c-.136 2.973.779-3.883-1.762-.072-.983 1.409-6.417 8.118-8.04 7.632 0 0 1.412 1.474 8.04-4.872 0 0 1.204-1.137 2.113-1l.850-.14z" fill="#D1D3D4"/>
 <path d="m100.46 326.55s-7.053-13.47-8.465-12.896c0 0-1.201.501-.292 1.603l7.349 12.361-1.201-2.483 2.609 1.42z"/>
 <polygon points="41.264 336.72 41.478 338.69 40.914 337.29" fill="#fff"/>
 <polygon points="40.141 337.29 40.914 339.05 39.369 338.05" fill="#fff"/>
 <path d="m42.68 338.84l-.429 1.401.429-1.4z" fill="#fff"/>
 <polygon points="40.005 339.48 41.264 341.02 40.141 340.46" fill="#fff"/>
 <polygon points="92.282 313.22 92.422 314.36 91.996 313.66" fill="#fff"/>
 <polygon points="91.435 314 92.282 315.34 91.704 315.26" fill="#fff"/>
 <polygon points="93.833 314 93.619 315.55 93.197 314.16" fill="#fff"/>
 <path d="m152.4 208.16c1.051.585 1.33 1 2.389 1.562.149.075.571.786.765.986 2.48 2.327-1.116 6.145 2.344 6.856 2.746-1.361 9.871-.079 12.763.976 1.211.497 3.457-.075 4.671 0 3.174.146 3.729-.571 6.907-.571.351-.055 3.525-.055 3.885 0 1.473.208 2.324-.691 3.521.146 1.412 0 5.573-.286 6.281-.361 2.538-.269 4.236-.477 6.635-1.188.497-.149 2.317-.214 2.746-.364 1.912-.762 5.437-1.759 5.147-3.946 1.348-2.62 2.263-5.849 4.308-8.268-.636-.336-5.083-4.933-5.645-4.719-1.548.436-3.035.5-4.308.075-3.45-1.188-6.971-1.548-10.227-3.385-7.472-.286-14.817-1.837-22.01-3.882-1.473-1.402-2.684-2.954-4.021-4.658-.214-.204-.912.082-1.409-.078-.429-.126-.779-.623-1.201-.687-.85-.075-1.623-.286-2.323-.572-6.921-3.174-10.307-5.076-11.293-5.573-13.051-6.771-24.69-15.385-34.567-26.018-1.701-.5-2.263-3.185-4.661-1.847-.422.211-.351 1.347-.922 1.688-1.762 1.283-3.311 3.385-1.473 5.223 0 2.044-.214 4.158.062 6.277.149 1.425-2.039 2.763-2.599 4.1 0 0 0 11.003 1.547 11.925 1.552.986 10.578 7.06 10.578 7.06l32.1 19.22z" fill="#282829"/>
 <path stroke-linejoin="round" d="m234.17 220.3s18.196-10.789 41.689 6.485" stroke="#000" stroke-linecap="round" stroke-width=".3531" fill="none"/>
 <path d="m300.76 209.58c-.64.054-1.477-.572-2.249.214-2.188 1.973-3.967 4.093-6.42 5.716-.64.429-1.698.055-1.776-.708-.207-4.097-.422-8.054-.844-12.153-.064-.398.357-.837.222-1.113-.637-2.12.486-4.378 1.188-6.345.285-.708.422-1.708.285-2.259-1.626-6.356 1.272-11.854 2.824-17.784.068-.361-.286-1.201-1.837-.286-.637.422-.987 1.208-1.623 1.422-.422.211-1.201.211-1.419.551-1.612 2.906-4.151 5.019-6.41 7.353-.279.269-.775.204-1.126.5-.211.126-.211.551-.426.677-.496.299-1.062.429-1.622.714-.497.286-1.338-.078-1.834.211-1.065.708-2.123.922-3.099 1.548-.361.235.204 1.133-.497 1.497-1.065.34-1.283-1.919-2.538.055-.568.782.701 1.783.851 2.685.201 1.833.486 3.667.558 5.505.064.636.493 1.266.701 1.973.214.711-.136 1.623.15 2.259.837 2.126.98 4.307 1.752 6.345.286.851-.068 1.848.221 2.688 1.337 5.015.987 9.952 1.402 14.96 0 .351-.351.772-.275 1.136.561 6.066 1.487 12 .986 18.05-.289 2.96-1.337 6.216.14 9.026-.705 1.075-.065 2.488.558 3.389 1.211 1.708 2.688 3.256 2.763 5.219.062 1.847.49 3.892.211 5.858 1.974 5.229 6.131 8.952 9.802 13-.136 1.099.275 2.259.919 2.947.568.701 1.133-.286 2.756-.351 4.368-.072 5.709-12 5.495-13.412-.062-.902-5.92 8.692-6.271 8.264-1.272-1.497-1.412-3.671-1.412-5.716 0-.564-.426-1.137-.637-1.612-.136-.361.426-.936.275-1.572-.35-1.548-1.126-2.813-2.323-3.865.775-1.908-.136-4.093.564-5.791 1.272-2.97 2.824-5.644 3.801-8.669.082-.085.643-.085.643 0 .286 1.263-.074 2.539.14 3.862.637 3.746 2.609 6.771 3.185 10.598.062.269.701.691 1.048.64.361-.085.711-.64.776-1.071.149-1.191.285-2.324.636-3.45 1.552-5.859 2.474-11.364 3.811-17.294.215-.977.987-1.759.987-2.739.214-4.042.785-7.829 1.408-11.789.715-3.947 0-7.832.351-11.714.146-.922.5-1.899.5-2.756.068-.769-.354-1.551-.136-2.317.486-2.47 1.548-4.597 1.622-7.141 0-.551.701-1.263.562-1.889-.064-.214-.911-.422-.986-.371-2.11 2.91-4.93 4.87-8.32 5.29z" fill="#282829"/>
 <path d="m319.96 321.06s-1.201-.571-1.126-1.633c-.225 2.97.775-3.882-1.848-.078-.987 1.5-6.417 8.196-7.972 7.621 0 0 1.34 1.497 7.972-4.784 0 0 1.208-1.126 2.123-1.054l.86-.08z" fill="#D1D3D4"/>
 <path d="m318.19 282.04s-2.331 4.733-3.883 5.495c-1.548.783 2.749-1.612 2.749.361l1.13-5.86z" fill="#D1D3D4"/>
 <path d="m324.68 179.96c-1.122 1.548-1.616 3.521-2.745 5.069.636 6.771-2.968 12.629-4.522 19.25-.061.156.711.711.926.571 1.337-.486 2.464-1.548 2.681-3.035.351-2.324 1.266-4.733 3.175-6.355.286-.19 0-1.051.486-1.402 1.98-1.283 3.811-2.259 5.931-3.117 1.551-.626 1.837-3.024 3.46-3.024.564 0 1.766-.129 1.837.636.269 2.259 1.763 3.596 3.175 5.219.422.5.064 1.422-.215 2.259-.071.214.351.575.279.715-.279.711-.778 1.412.497 2.31.074.078.49-.337.711-.262.2.055.275.477.415.698.36 1.136-1.766 1.762.772 3.161.711-1.333 1.622-2.31 2.048-3.858.075-.374.5-.575.637-.861.351-.976.636-2.109.986-3.024 1.974-4.661 4.447-8.955 6.842-13.473.215-.429 0-1 .078-1.477.637-2.96 3.457-4.808 2.746-7.842 1.412-2.324 2.263-4.947 3.886-7.067.351-4.001 2.045-7.669 3.731-11.269.43-.925.776-2.123 2.188-2.474.422-2.044 1.772-3.596 2.688-5.505.271-.5.271-1.051.489-1.473.847-1.837 2.256-3.263 3.242-5.097.286-.626 1.272-.912 1.766-1.688.493-.783 1.194-1.272 1.831-1.963 4.235-5.018 6.845-10.874 11.503-15.259 4.657-6.621 7.128-14.099 11.289-21.241.215-.34.282-.976.489-1.477.926-1.674 2.549-3.311 2.12-5.508-.136-.612.851-1.259.916-1.973.285-3.097-.416-6.122-1.76-9.01-.143-.286.071-.858.357-1.072.136-.136.564-.136.629 0 2.12 2.888 4.094 5.362 7.129 6.985.911-.922.21-1.892-.212-2.674-1.411-3.025-3.811-5.284-5.723-8.257-.351-.647-1.048-.997-1.473-1.623-2.474-3.671-3.675-7.768-6.992-10.714-1.187-1.075-.279-3.389-1.763-4.458-.139-.065-.911.412-.911.701-.215 2.681-.286 5.937-3.321 6.638.136 1.136-.84 1.827-1.337 2.688-3.1 5.644-4.661 8.403-3.946 4.362-.078.146.908.432.908.783-.351 2.099-.136 4.518-1.483 6.271-4.868 2.187-8.604-12.416-9.592-14.31-.425.271 3.883 12.064 3.808 12.401-.275 2.624.775 5.305-.275 7.692-1.559 3.542-3.532 6.646-5.855 9.816-.211.289-1.133.497-1.276.925-.285.974-.351 2.1-.7 3.021-.357.912-.993 1.834-1.408 2.834-.501 1.052.836 1.548.636 2.263-.922 2.81-1.772 6.478.565 9.081-.565 2.896-1.845 5.648-1.566 8.615-1.258 2.548-2.259 5.148-3.096 7.832-.851 3.035-.771 6.145-1.837 8.955-1.338 3.532-1.759 7.271-3.743 10.653-.489.925-.139 1.919-.489 2.688-1.763 4.093-3.671 7.904-6.209 11.786-.422.63-1.484.63-1.759.29-.997-1.283-.637-2.97-1.974-4.236-.286-.286-.286-1.072 0-1.494 1.551-3.035 1.473-6.485 1.974-9.819.136-.892.35-1.813.557-2.732.293-.916 0-1.837.144-2.752.282-1.137 1.408-1.898 1.486-3.11.072-.415-.078-.837.072-1.198.915-2.337 1.266-4.933 1.052-7.407-.079-.351-.701-.551-1.052-.837-.222 1.623-1.208 2.725-1.559 4.362-.633 3.12-1.474 6.145-2.609 9.026-.351.786-.564 1.762-.637 2.688 0 .412-.564.772-.64 1.201-.911 5.43-3.446 9.877-6.271 14.525-.21.445 0 1.208-.499 1.493-.773.416-1.338-1.048-2.246.055-1.001 1.283-1.565 2.759-2.198 4.243-.775 1.848-1.973 3.606-3.45 5.073-.436.425-1.064.66-1.486 1.262-1.17 1.78-1.87 3.83-4.34 4.33z" fill="#282829"/>
 <path d="m430.3 91.676c-.422-.129-5.58-7.672-5.855-7.607-1.136.436 2.896 5.645 1.688 6.001-1.474.419-2.889 0-4.236-.707-3.313-2.886-17.559-13.266-17.834-11.578.911.214 11.354 15.044 18.896 16.025.5.071 2.051.34 2.544.34 2.675.231 4.44.432 8.047-.555.49-.136 2.188-.35 2.824-.497 1.898-.269 3.382-.425 5.219-.851 2.109-.487 13.327-1.123 16.226-1.759 5.22 0 6.907-3.175 6.632-3.038-8.254 2.888-29.702-4.573-33.37-7.672-.144.397 4.369 6.964 4.093 7.172-.996.861-2.259.579-3.457.078-.14.422-.214.997-.5 1.068-.63.270-.13 3.741-.91 3.58z" fill="#282829"/>
 <path stroke-linejoin="round" d="m484.83 87.451s-5.499 2.548-11.779 1.129c-4.869-1.051-9.03-1.98-9.244-1.337l-.986 1.123s-7.192 2.474-8.18 2.123c0 0 7.336.636 8.043.772 1.902.361 6.631-.275 8.891 1.075 0 0 3.596 2.171 8.744-.445 4.1-2.028 4.52-4.44 4.52-4.44z" stroke="#000" stroke-linecap="round" stroke-width=".3531" fill="#C7C8CA"/>
 <path stroke-linejoin="round" d="m484.83 87.451s-8.68 3.674-18.476-.422c0 0-3.32-.976-4.093-.429 0 0-.779.851.422.851" stroke="#000" stroke-linecap="round" stroke-width=".7758" fill="none"/>
 <path d="m464.02 83.718s-6.284.351-5.855 2.759c0 .001-8.25-2.408 5.86-2.759z" fill="#4D4D4F"/>
 <path stroke-linejoin="round" d="m428.75 6.118s2.749 4.487 3.521 4.859c.769.415 12.354 7.481 12.915 8.247.63.786 10.228 12.572 11.564 13.126 0 0 5.083 5.858 6.849 8.04" stroke="#000" stroke-linecap="round" stroke-width=".3531" fill="none"/>
 <path stroke-linejoin="round" d="m77.461 238.45c.561 3.726.701 10.792.701 10.792-.204 3.174 1.068 3.096 1.068 3.096 2.599.579 2.599-2.181 2.599-2.181-.136-6.631 1.202-12.629 1.202-12.629" stroke="#000" stroke-linecap="round" stroke-width=".3531" fill="none"/>
 <path d="m82.827 237.88s-2.681.486-5.161.415c0 0-.068 1.344 0 1.494 0 0 2.691.551 4.875-.286l.286-1.62z" fill="#DCD5D3"/>
 <path stroke-linejoin="round" d="m65.679 236.66s6.699 1.497 8.322 1.337c0 0 8.468.214 12.351-1.123" stroke="#000" stroke-linecap="round" stroke-width=".3531" fill="none"/>
 <path d="m70.963 236.74c.428-1.188 4.443-1.051 5.447.5-.775 1.208-.922 4.447-1.062 5.644-.075.977-.075 1.708-.211 2.399-.215.861-.078 1.337-.215 2.62-.136 1.123-.136 2.603-.986 3.596-1.837 1.337-2.896-.286-2.896-.783 0-2.188 0-3.81.071-6.069.080-1.69-.713-6.36-.148-7.91z" fill="#E6E7E8"/>
 <path d="m73.865 251.43c-1.688 1.262-2.674-.214-2.674-.636.058-2.048.058-3.549.132-5.593 0-1.552-.71-5.771-.211-7.196.429-1.123 4.09-1.048 5.012.446-.718 1.051-.851 4.011-.987 5.148-.078.837-.078 1.473-.215 2.174-.136.786 0 1.211-.211 2.419-.074.98-.074 2.39-.846 3.24z" fill="#EBE5E3"/>
 <path d="m73.787 251.43c-1.555 1.123-2.463-.296-2.463-.636.068-1.766.068-3.174.14-5.093 0-1.392-.636-5.202-.14-6.549.354-.987 3.675-.933 4.505.425-.625.976-.769 3.664-.83 4.732-.146.762-.076 1.337-.211 1.963-.15.711-.075 1.133-.221 2.188-.144.92-.076 2.18-.780 2.97z" fill="#EDE5E2"/>
 <path d="m73.725 251.34c-1.412 1.072-2.184-.211-2.184-.48 0-1.623 0-2.905.058-4.593.078-1.272-.559-4.723-.137-5.934.286-.837 3.324-.762 4.096.429-.561.837-.707 3.256-.772 4.233-.075.646-.075 1.201-.221 1.698-.144.708 0 1.048-.144 1.973-.134.85-.134 1.97-.696 2.67z" fill="#F1E5E0"/>
 <path d="m73.583 251.34c-1.204.922-1.905-.211-1.905-.48 0-1.408 0-2.545.072-4.032.064-1.133-.5-4.236-.149-5.284.292-.783 3.038-.711 3.674.34-.486.786-.636 2.896-.707 3.756-.075.626-.075 1.123-.144 1.548-.136.626-.061.912-.136 1.762-.137.78-.137 1.76-.705 2.38z" fill="#F5E5DE"/>
 <path d="m73.515 251.34c-1.065.786-1.701-.211-1.701-.48.079-1.194.079-2.194.079-3.531.071-.98-.429-3.685-.079-4.576.214-.708 2.609-.653 3.185.269-.432.701-.576 2.62-.636 3.328-.075.555-.075.891-.146 1.337-.065.555 0 .84-.143 1.552-.073.62-.073 1.55-.559 2.1z" fill="#F7E5DD"/>
 <path d="m71.963 243.93c.215-.548 2.253-.548 2.749.292-.425.558-.496 2.181-.561 2.81 0 .446 0 .783-.078 1.154-.136.405-.071.69-.136 1.337-.071.551-.071 1.337-.5 1.766-.908.687-1.473-.16-1.408-.364v-3.025c.070-.87-.352-3.18-.066-3.97z" fill="#FEE7DC"/>
 <path stroke-linejoin="round" d="m76.41 237.31s-1.487 6.212-1.698 12.694c0 0-.221 2.123-2.684 1.973l-.987-3.185s.208-4.434 0-6.121c0 0-.428-3.389-.136-5.433" stroke="#000" stroke-linecap="round" stroke-width=".3531" fill="none"/>
 <path stroke-linejoin="round" d="m24.262 70.382s3.879-3.947 7.622-4.097c0 0 8.608-1.188 11.003-4.723" stroke="#000" stroke-linecap="round" stroke-width=".3531" fill="none"/>
 <path d="m75.407 255.94s-4.294 2.882 1.565 10.377l1.337 4.093s-3.672-10.802-1.124-16.236l-1.778 1.77z" fill="#C7C8CA"/>
 <path d="m331.31 346.74s-6.693-16.222-8.248-15.811c0 0-1.479.429-.568 1.901l7.057 14.889-1.122-2.888 2.88 1.91z"/>
 <path stroke-linejoin="round" d="m447.72 66.992s11.429 4.648 13.337 7.822c0 0 .772 3.893 3.175 5.515 0 0-6.287-7.067-8.607-7.067l-7.91-6.27z" stroke="#000" stroke-linecap="round" stroke-width=".3531" fill="#282829"/>
</svg>
