<?xml version="1.0" encoding="UTF-8" standalone="no"?>
<!-- Created with Inkscape (http://www.inkscape.org/) -->

<svg
   xmlns:dc="http://purl.org/dc/elements/1.1/"
   xmlns:cc="http://creativecommons.org/ns#"
   xmlns:rdf="http://www.w3.org/1999/02/22-rdf-syntax-ns#"
   xmlns:svg="http://www.w3.org/2000/svg"
   xmlns="http://www.w3.org/2000/svg"
   xmlns:sodipodi="http://sodipodi.sourceforge.net/DTD/sodipodi-0.dtd"
   xmlns:inkscape="http://www.inkscape.org/namespaces/inkscape"
   width="402.84616"
   height="402.58398"
   id="svg2"
   version="1.1"
   inkscape:version="0.47 r22583"
   sodipodi:docname="New document 1">
  <defs
     id="defs4">
    <inkscape:perspective
       sodipodi:type="inkscape:persp3d"
       inkscape:vp_x="0 : 526.18109 : 1"
       inkscape:vp_y="0 : 1000 : 0"
       inkscape:vp_z="744.09448 : 526.18109 : 1"
       inkscape:persp3d-origin="372.04724 : 350.78739 : 1"
       id="perspective10" />
    <inkscape:perspective
       id="perspective2824"
       inkscape:persp3d-origin="0.5 : 0.33333333 : 1"
       inkscape:vp_z="1 : 0.5 : 1"
       inkscape:vp_y="0 : 1000 : 0"
       inkscape:vp_x="0 : 0.5 : 1"
       sodipodi:type="inkscape:persp3d" />
    <inkscape:perspective
       id="perspective2953"
       inkscape:persp3d-origin="0.5 : 0.33333333 : 1"
       inkscape:vp_z="1 : 0.5 : 1"
       inkscape:vp_y="0 : 1000 : 0"
       inkscape:vp_x="0 : 0.5 : 1"
       sodipodi:type="inkscape:persp3d" />
    <inkscape:perspective
       id="perspective3029"
       inkscape:persp3d-origin="0.5 : 0.33333333 : 1"
       inkscape:vp_z="1 : 0.5 : 1"
       inkscape:vp_y="0 : 1000 : 0"
       inkscape:vp_x="0 : 0.5 : 1"
       sodipodi:type="inkscape:persp3d" />
  </defs>
  <sodipodi:namedview
     id="base"
     pagecolor="#ffffff"
     bordercolor="#666666"
     borderopacity="1.0"
     inkscape:pageopacity="0.0"
     inkscape:pageshadow="2"
     inkscape:zoom="0.98994949"
     inkscape:cx="257.42233"
     inkscape:cy="78.617088"
     inkscape:document-units="px"
     inkscape:current-layer="layer1"
     showgrid="false"
     inkscape:window-width="1280"
     inkscape:window-height="999"
     inkscape:window-x="0"
     inkscape:window-y="0"
     inkscape:window-maximized="1" />
  <metadata
     id="metadata7">
    <rdf:RDF>
      <cc:Work
         rdf:about="">
        <dc:format>image/svg+xml</dc:format>
        <dc:type
           rdf:resource="http://purl.org/dc/dcmitype/StillImage" />
        <dc:title></dc:title>
      </cc:Work>
    </rdf:RDF>
  </metadata>
  <g
     inkscape:label="Layer 1"
     inkscape:groupmode="layer"
     id="layer1"
     transform="translate(-140.43776,-101.37014)">
    <path
       style="fill:#006582;fill-opacity:1"
       d="m 328.76158,503.23198 c -3.94348,-0.32357 -7.4609,-0.88073 -7.81648,-1.23813 -0.35559,-0.3574 -1.47024,-6.36997 -2.477,-13.36126 -1.11183,-7.72088 -2.4102,-13.29115 -3.30707,-14.18803 -0.81213,-0.81212 -6.59599,-2.75742 -12.85303,-4.32289 -6.25704,-1.56547 -13.94025,-3.74356 -17.0738,-4.84019 -7.21189,-2.5239 -27.31662,-12.33377 -35.71639,-17.42739 -7.27284,-4.41026 -11.75101,-5.49539 -15.15674,-3.67269 -2.296,1.22878 -14.13914,10.2087 -16.75094,12.7012 -0.72678,0.69359 -1.99586,1.26107 -2.82017,1.26107 -1.62981,0 -29.3584,-27.23724 -29.3584,-28.83816 0,-0.53819 2.97644,-4.72578 6.61432,-9.30577 6.77017,-8.52345 8.56535,-11.75017 8.61017,-15.47624 0.014,-1.16609 -3.32079,-8.14109 -7.41072,-15.5 -4.08993,-7.3589 -8.16433,-14.95572 -9.05422,-16.8818 -3.10355,-6.71732 -5.93837,-13.52666 -7.28466,-17.49803 -1.12985,-3.33289 -6.47489,-24.07224 -6.47489,-25.12329 0,-1.46422 -7.46953,-3.39015 -17.16678,-4.42625 l -11.6419,-1.24387 -0.59566,-2.97829 c -0.94438,-4.7219 -0.69136,-35.34638 0.31387,-37.99035 0.84165,-2.2137 1.74456,-2.48282 12.09707,-3.60565 15.05131,-1.63246 16.98941,-3.05264 19.96837,-14.6323 1.62922,-6.333 5.23131,-17.38545 7.98478,-24.5 1.17073,-3.025 2.40572,-6.36212 2.74442,-7.41583 1.14082,-3.54911 9.97834,-21.042 13.15049,-26.02995 1.72994,-2.72018 3.14534,-6.11335 3.14534,-7.54039 0,-1.66163 -2.72467,-6.28476 -7.57729,-12.85691 l -7.57728,-10.2623 3.77954,-4.61243 c 5.4921,-6.70239 24.52432,-25.28219 25.89781,-25.28219 0.64416,0 2.25255,0.9382 3.57421,2.08488 1.32166,1.14668 5.58407,4.52168 9.47203,7.5 8.67597,6.64611 12.75478,7.17046 19.00284,2.44294 2.16048,-1.6347 4.2569,-2.9847 4.65872,-3 0.40182,-0.0153 3.10182,-1.52842 6,-3.36248 7.50681,-4.75057 22.87136,-11.08807 36.75956,-15.16245 6.56712,-1.92659 12.52643,-3.50289 13.2429,-3.50289 0.71648,0 2.96627,-1.13043 4.99953,-2.51207 4.29125,-2.91597 5.32759,-5.86922 6.65492,-18.96446 0.54784,-5.40499 1.41091,-9.12416 2.25057,-9.69824 1.83849,-1.25701 41.73731,-0.36446 49.36194,1.10425 10.07357,1.94044 26.60732,6.0688 34.13159,8.52242 7.9326,2.58677 28.0351,11.23969 30.36841,13.07177 0.825,0.64778 4.39958,2.70745 7.94351,4.57705 3.54394,1.86961 7.14394,3.94361 8,4.60891 0.85607,0.6653 4.70649,3.51459 8.55649,6.33175 26.73579,19.5634 47.99022,45.41908 63.50232,77.24942 15.2712,31.33622 20.8462,56.68521 19.7068,89.60543 -1.1009,31.80653 -8.0409,57.96804 -23.2804,87.75963 -14.4185,28.18662 -35.10694,52.15124 -62.91233,72.87509 -8.91978,6.64807 -30.39759,18.55935 -39.83133,22.08988 -32.26554,12.07521 -57.83101,15.97202 -88.35504,13.46748 z m 69.24183,-21.72122 c 2.71048,-0.89811 5.30479,-1.97225 5.76513,-2.38699 1.21208,-1.092 -1.92203,-4.43393 -9.33698,-9.95607 -10.17094,-7.57461 -26.82409,-15.54677 -44,-21.06359 -7.90751,-2.53985 -41.33981,-10.74379 -45.48071,-11.16049 -2.83038,-0.28482 -3.01365,-0.073 -3.63402,4.20005 -0.35932,2.475 -0.368,4.79894 -0.0193,5.16431 0.34871,0.36536 7.50537,2.04951 15.90369,3.74254 32.17812,6.48685 59.15869,17.94587 70.66742,30.01344 3.40949,3.57505 3.6207,3.6052 10.13477,1.4468 z m 47.94353,-23.00867 c 3.01654,-2.00287 5.48462,-4.03796 5.48462,-4.52243 0,-2.38648 -27.366,-17.83599 -31.59322,-17.83599 -0.77373,0 -1.40678,-0.45 -1.40678,-1 0,-0.55 -0.68111,-1 -1.51357,-1 -0.83246,0 -2.29496,-0.4208 -3.25,-0.93511 -2.12813,-1.14604 -22.52019,-7.42323 -30.73643,-9.46144 -23.42375,-5.81075 -52.07519,-11.02622 -76.5,-13.9254 -1.10741,-0.13145 -1.63686,1.18258 -2.02291,5.02054 -0.5863,5.82867 -0.9089,5.5705 8.52291,6.82058 2.75,0.36448 10.175,1.55637 16.5,2.64864 6.325,1.09227 14.2,2.42549 17.5,2.96271 19.87298,3.23522 53.35013,13.37193 69.19096,20.95067 4.50502,2.15535 8.46151,3.91881 8.7922,3.91881 0.33069,0 1.14476,0.46564 1.80905,1.03476 1.19972,1.02784 12.96534,8.81046 13.47317,8.91212 0.14597,0.0292 2.73347,-1.58559 5.75,-3.58846 z M 279.51805,432.03756 c 0.34755,-1.86662 1.16375,-7.89385 1.81379,-13.39385 2.33547,-19.76065 4.26523,-35.17612 5.65824,-45.19949 0.77961,-5.60972 1.14973,-10.89722 0.82249,-11.75 -1.00744,-2.62534 -4.68492,-1.72615 -9.00112,2.20087 -2.26606,2.06174 -10.36606,9.32046 -18,16.13049 -20.43439,18.22896 -26.37989,24.11166 -26.37989,26.10125 0,1.46755 5.32796,6.5678 15.02665,14.38443 6.75499,5.44417 13.84222,10.31421 19.09129,13.11875 7.39586,3.95155 10.00689,3.57247 10.96855,-1.59245 z m 202.82754,-5.14385 c 2.23543,-2.3375 4.05171,-4.7 4.03619,-5.25 -0.0449,-1.59072 -8.47949,-7.38031 -16.87094,-11.58036 -14.43452,-7.22471 -29.94381,-11.55062 -65.57928,-18.29166 -21.12401,-3.99595 -93.74323,-12.80042 -94.91888,-11.50812 -0.19021,0.20908 -0.6004,2.5228 -0.91154,5.14161 -0.31115,2.61881 -0.84065,5.20631 -1.17667,5.75 -0.33602,0.54369 0.27982,0.98853 1.36852,0.98853 4.40732,0 33.31673,2.07987 43.13857,3.10358 27.7186,2.88905 65.51844,11.04992 85,18.35124 11.06543,4.14712 30.19521,12.27033 34.5,14.64997 2.75,1.52018 5.52866,2.79349 6.17481,2.82958 0.64615,0.0361 3.00379,-1.84687 5.23922,-4.18437 z M 236.47672,391.87285 c 3.59984,-3.42602 8.09984,-7.5252 10,-9.10927 3.1321,-2.61107 12.19869,-10.72928 25.13598,-22.50671 4.96969,-4.52415 6.26988,-8.34237 3.23707,-9.50617 -0.86998,-0.33385 -17.46488,-0.60699 -36.87755,-0.60699 -27.68694,0 -35.52767,0.27942 -36.37148,1.29615 -2.32671,2.80352 4.3476,17.41035 15.74304,34.45385 6.36406,9.51836 8.68074,12.24535 10.38912,12.22914 1.3107,-0.0124 4.84202,-2.53659 8.74382,-6.25 z M 511.23938,382.677 c 1.2693,-2.64973 1.9443,-5.15262 1.5,-5.56198 -1.575,-1.45114 -24.83379,-9.09194 -37.72627,-12.39354 -19.92044,-5.10137 -28.69537,-6.69507 -58.08155,-10.54875 -16.00718,-2.09918 -53.5972,-4.02241 -78.68261,-4.02568 -28.84175,-0.004 -26.39658,-0.72784 -27.00406,7.99666 l -0.31333,4.5 36,0.6544 c 63.42846,1.153 109.02014,8.05686 157.50002,23.8499 3.6863,1.20088 4.2765,0.81329 6.8078,-4.47101 z m -75.51892,-68.85671 c 5.35715,-3.1395 8.62657,-6.83009 11.83326,-13.35761 1.96485,-3.99963 2.36824,-6.3759 2.3726,-13.97615 0.005,-8.74634 -0.13362,-9.32959 -3.08982,-13 -4.69925,-5.83457 -9.75595,-8.30683 -17.03051,-8.32637 -10.91201,-0.0293 -20.54653,6.10235 -25.11457,15.98355 -2.05729,4.45014 -3.47051,14.10961 -2.75873,18.8561 0.84875,5.65985 2.42732,8.79521 6.26392,12.44142 3.96563,3.76885 7.40817,4.7082 15.87924,4.33292 5.53379,-0.24515 8.15878,-0.91103 11.64461,-2.95386 z m -18.4447,-7.93155 c -5.13004,-4.33659 -6.05141,-9.34342 -3.37009,-18.31353 1.7209,-5.75714 5.38481,-10.05678 10.33085,-12.12337 11.61549,-4.85326 19.10847,7.46406 12.85285,21.12814 -1.4159,3.09273 -3.15564,6.19069 -3.86609,6.88436 -5.32724,5.20144 -11.5443,6.14658 -15.94752,2.4244 z m -122.47449,8.00497 c 0.33164,-1.2375 0.60913,-3.29482 0.61664,-4.57181 l 0.0137,-2.32182 -14.00127,0.32182 c -7.7007,0.17699 -14.0007,0.23127 -14,0.1206 0.006,-0.91816 3.03383,-11.54245 3.50869,-12.3108 0.35018,-0.56661 6.02337,-0.98833 13.3016,-0.98879 l 12.69098,-8.1e-4 0.29611,-4.58927 0.2961,-4.58928 -11.96263,0.34008 c -6.57945,0.18704 -12.25969,0.0431 -12.62276,-0.3199 -0.36307,-0.363 -0.27451,-2.613 0.1968,-5 l 0.85693,-4.34002 13.25561,-0.27928 c 14.55386,-0.30662 13.37741,0.21988 15.62463,-6.99257 l 0.70786,-2.27186 -19.28057,0.27186 -19.28056,0.27185 -4.72463,23 c -2.59855,12.65 -4.75574,23.7875 -4.79376,24.75 -0.0635,1.60886 1.49422,1.75 19.31424,1.75 19.25594,0 19.38733,-0.0148 19.98634,-2.25 l -5e-5,0 z m 18.55144,-3 c 0.59779,-2.8875 1.63332,-7.1625 2.30118,-9.5 l 1.2143,-4.25 7.65669,0 c 10.46645,0 13.39075,-0.74248 17.24194,-4.37776 3.35716,-3.16895 6.66474,-10.33796 6.66474,-14.44551 0,-3.52344 -3.57663,-9.6628 -6.37105,-10.93602 -2.25208,-1.02612 -29.30387,-2.01003 -30.04133,-1.09264 -0.1556,0.19356 -0.85242,3.05193 -1.54849,6.35193 -3.96814,18.8125 -5.0481,23.92173 -6.94577,32.86008 -1.15135,5.42304 -2.09336,10.03554 -2.09336,10.25 0,0.21446 2.43771,0.38992 5.41714,0.38992 l 5.41713,0 1.08688,-5.25 z m 5.07885,-23.80718 c 0,-2.1694 2.32411,-10.48812 3.26677,-11.69282 1.18789,-1.51808 5.91805,-1.60409 10.97544,-0.19957 6.25493,1.7371 6.13028,8.15423 -0.22219,11.43922 -3.33903,1.72668 -14.02002,2.07192 -14.02002,0.45317 z m 42.34575,21.52876 c 0.90984,-4.14063 1.65425,-8.64063 1.65425,-10 0,-2.24786 0.39155,-2.47158 4.32569,-2.47158 3.24593,0 4.80865,0.56163 6.26055,2.25 2.30686,2.68258 4.89266,7.75639 6.75268,13.25 l 1.35432,4 6.15338,0.29772 c 5.89209,0.28507 7.15744,-0.27503 5.30376,-2.34772 -0.46729,-0.5225 -1.59211,-2.87116 -2.4996,-5.21924 -0.90749,-2.34808 -2.77516,-6.05164 -4.15038,-8.23013 -2.81317,-4.45635 -3.1938,-6.48069 -1.06495,-5.66377 1.75997,0.67536 7.18616,-2.89907 9.83912,-6.4814 2.44406,-3.30026 2.86633,-12.33745 0.76079,-16.28212 -2.58147,-4.83633 -5.48882,-5.57334 -21.9857,-5.57334 -8.27731,0 -15.05507,0.1125 -15.06167,0.25 -0.0215,0.44694 -6.12595,30.06566 -7.57425,36.75 -0.7746,3.575 -1.69345,7.9625 -2.04189,9.75 l -0.63353,3.25 5.47659,0 5.4766,0 1.65424,-7.52842 z m 5.06764,-21.61172 c -0.22082,-0.35729 0.0458,-3.00835 0.59256,-5.89123 0.54673,-2.88289 0.99405,-5.40519 0.99405,-5.60512 0,-0.86745 15.31623,-0.26464 17.06574,0.67167 2.61286,1.39836 2.43448,4.27175 -0.47519,7.65445 -2.15175,2.50155 -3.23121,2.85563 -10.09256,3.3105 -4.22571,0.28015 -7.86378,0.21702 -8.0846,-0.14027 z m -64.22583,-43.10986 c 1.18936,-0.94704 2.33956,-7.67269 4.74573,-27.75 1.74675,-14.575 3.82634,-31.43193 4.62131,-37.45984 0.79497,-6.02791 1.4454,-13.84049 1.4454,-17.36129 l 0,-6.40145 -3.4162,0.64088 c -11.21222,2.10343 -40.23781,14.26276 -48.26708,20.21992 -1.7508,1.29898 -3.56271,2.36178 -4.02647,2.36178 -1.27261,0 -13.04781,9.60464 -21.45486,17.5 -10.75682,10.10213 -19.31403,21.78953 -27.3222,37.31656 -3.22557,6.25406 -3.61255,7.66995 -2.66482,9.75 l 1.10875,2.43344 46.83031,0 c 35.96034,0 47.19469,-0.29014 48.40013,-1.25 z m 213.62346,0.63779 c 1.6836,-0.33672 3.3006,-1.23624 3.5933,-1.99893 0.9788,-2.55094 -12.1991,-29.52704 -21.9285,-44.88886 -3.40308,-5.37315 -12.89274,-17.5 -13.69433,-17.5 -0.42982,0 -0.78149,-0.57243 -0.78149,-1.27208 0,-1.45957 -13.84143,-15.22837 -22,-21.88456 -19.42739,-15.84988 -45.74955,-28.70553 -75,-36.62974 -20.49046,-5.55104 -21.06831,-5.29641 -19.21389,8.46695 1.22361,9.08156 5.45484,43.88368 7.27283,59.81943 0.5647,4.95 1.45025,12.15 1.96787,16 0.51763,3.85 1.87627,14.19041 3.0192,22.9787 1.14292,8.78828 2.27596,16.17661 2.51786,16.41851 0.2419,0.24189 5.49113,-4.92352 11.66495,-11.4787 6.17383,-6.55518 14.49085,-15.29351 18.48227,-19.41851 l 7.25713,-7.5 0.0159,19.25 c 0.009,10.5875 0.38396,19.25 0.83381,19.25 0.44986,0 3.78847,-3.2625 7.41913,-7.25 3.63067,-3.9875 10.91134,-11.75 16.17928,-17.25 5.26793,-5.5 9.57933,-10.22925 9.58087,-10.50945 0.002,-0.2802 0.9028,-1.07152 2.0028,-1.75848 1.97366,-1.23257 2,-0.99869 2,17.75946 0,10.45466 0.36807,19.00847 0.81792,19.00847 0.44986,0 3.78904,-3.2625 7.42039,-7.25 3.63135,-3.9875 11.79941,-12.65 18.15124,-19.25 l 11.54879,-12 0.0308,19.08333 c 0.017,10.49584 0.33083,19.38334 0.6975,19.75 0.83626,0.83627 16.02997,0.87734 20.14437,0.0545 l 0,-4e-5 z"
       id="path3053"
       sodipodi:nodetypes="csssssssssssssssscccssssssscccssssssssssssssssssssssccssssssssccsssssssssssssssccssssssssccsssssssssssccsssssssccsssscccsccssssssssccsssscccccsscccccsccccccccssccccccsssssssccccsssccssscccsssssssssccccccsssssccsscccsssscccccsssssssssssscccsssssssscccscc" />
  </g>
</svg>
