<?xml version="1.0" encoding="UTF-8" standalone="no"?>
<!-- Created with Inkscape (http://www.inkscape.org/) -->

<svg
   xmlns:dc="http://purl.org/dc/elements/1.1/"
   xmlns:cc="http://creativecommons.org/ns#"
   xmlns:rdf="http://www.w3.org/1999/02/22-rdf-syntax-ns#"
   xmlns:svg="http://www.w3.org/2000/svg"
   xmlns="http://www.w3.org/2000/svg"
   xmlns:xlink="http://www.w3.org/1999/xlink"
   xmlns:sodipodi="http://sodipodi.sourceforge.net/DTD/sodipodi-0.dtd"
   xmlns:inkscape="http://www.inkscape.org/namespaces/inkscape"
   width="154.28572"
   height="440"
   id="svg2"
   version="1.1"
   inkscape:version="0.47 r22583"
   sodipodi:docname="New document 1">
  <defs
     id="defs4">
    <inkscape:perspective
       sodipodi:type="inkscape:persp3d"
       inkscape:vp_x="0 : 526.18109 : 1"
       inkscape:vp_y="0 : 1000 : 0"
       inkscape:vp_z="744.09448 : 526.18109 : 1"
       inkscape:persp3d-origin="372.04724 : 350.78739 : 1"
       id="perspective10" />
    <inkscape:perspective
       id="perspective3600"
       inkscape:persp3d-origin="0.5 : 0.33333333 : 1"
       inkscape:vp_z="1 : 0.5 : 1"
       inkscape:vp_y="0 : 1000 : 0"
       inkscape:vp_x="0 : 0.5 : 1"
       sodipodi:type="inkscape:persp3d" />
    <inkscape:perspective
       id="perspective3624"
       inkscape:persp3d-origin="0.5 : 0.33333333 : 1"
       inkscape:vp_z="1 : 0.5 : 1"
       inkscape:vp_y="0 : 1000 : 0"
       inkscape:vp_x="0 : 0.5 : 1"
       sodipodi:type="inkscape:persp3d" />
    <linearGradient
       gradientUnits="userSpaceOnUse"
       y2="341.15503"
       x2="319.80603"
       y1="325.44354"
       x1="310.36252"
       id="linearGradient4467"
       xlink:href="#linearGradient4461"
       inkscape:collect="always" />
    <linearGradient
       id="linearGradient4461"
       inkscape:collect="always">
      <stop
         id="stop4463"
         offset="0"
         style="stop-color:#fffffa;stop-opacity:1;" />
      <stop
         id="stop4465"
         offset="1"
         style="stop-color:#fffffa;stop-opacity:0;" />
    </linearGradient>
    <inkscape:perspective
       id="perspective3899"
       inkscape:persp3d-origin="122.73997 : 161.51219 : 1"
       inkscape:vp_z="245.47995 : 242.26828 : 1"
       inkscape:vp_y="0 : 1000 : 0"
       inkscape:vp_x="0 : 242.26828 : 1"
       sodipodi:type="inkscape:persp3d" />
    <inkscape:perspective
       id="perspective3955"
       inkscape:persp3d-origin="0.5 : 0.33333333 : 1"
       inkscape:vp_z="1 : 0.5 : 1"
       inkscape:vp_y="0 : 1000 : 0"
       inkscape:vp_x="0 : 0.5 : 1"
       sodipodi:type="inkscape:persp3d" />
  </defs>
  <sodipodi:namedview
     id="base"
     pagecolor="#ffffff"
     bordercolor="#666666"
     borderopacity="1.0"
     inkscape:pageopacity="0.0"
     inkscape:pageshadow="2"
     inkscape:zoom="0.7"
     inkscape:cx="108.01867"
     inkscape:cy="285.37424"
     inkscape:document-units="px"
     inkscape:current-layer="layer1"
     showgrid="false"
     inkscape:object-paths="false"
     inkscape:snap-bbox="true"
     inkscape:window-width="1366"
     inkscape:window-height="692"
     inkscape:window-x="1280"
     inkscape:window-y="282"
     inkscape:window-maximized="1" />
  <metadata
     id="metadata7">
    <rdf:RDF>
      <cc:Work
         rdf:about="">
        <dc:format>image/svg+xml</dc:format>
        <dc:type
           rdf:resource="http://purl.org/dc/dcmitype/StillImage" />
        <dc:title></dc:title>
      </cc:Work>
    </rdf:RDF>
  </metadata>
  <g
     inkscape:label="Layer 1"
     inkscape:groupmode="layer"
     id="layer1"
     transform="translate(-245.71429,-355.2193)">
    <path
       sodipodi:type="arc"
       style="fill:#8e2bff;fill-opacity:1;fill-rule:evenodd;stroke:none"
       id="path2816"
       sodipodi:cx="322.85715"
       sodipodi:cy="575.2193"
       sodipodi:rx="77.14286"
       sodipodi:ry="220"
       d="m 400.00001,575.2193 c 0,121.50264 -34.53804,220 -77.14286,220 -42.60483,0 -77.14286,-98.49736 -77.14286,-220 0,-121.50265 34.53803,-220 77.14286,-220 42.60482,0 77.14286,98.49735 77.14286,220 z" />
    <path
       sodipodi:type="arc"
       style="fill:#000000;fill-opacity:1;fill-rule:evenodd;stroke:none"
       id="path3590"
       sodipodi:cx="291.93408"
       sodipodi:cy="444.25034"
       sodipodi:rx="8.73423"
       sodipodi:ry="7.2799053"
       d="m 300.66831,444.25034 c 0,4.02058 -3.91045,7.2799 -8.73423,7.2799 -4.82378,0 -8.73423,-3.25932 -8.73423,-7.2799 0,-4.02058 3.91045,-7.27991 8.73423,-7.27991 4.82378,0 8.73423,3.25933 8.73423,7.27991 z"
       transform="matrix(1,0,0,0.66854371,0,144.571)" />
    <path
       sodipodi:type="arc"
       style="fill:#000000;fill-opacity:1;fill-rule:evenodd;stroke:none"
       id="path3590-2"
       sodipodi:cx="291.93408"
       sodipodi:cy="444.25034"
       sodipodi:rx="8.73423"
       sodipodi:ry="7.2799053"
       d="m 300.66831,444.25034 c 0,4.02058 -3.91045,7.2799 -8.73423,7.2799 -4.82378,0 -8.73423,-3.25932 -8.73423,-7.2799 0,-4.02058 3.91045,-7.27991 8.73423,-7.27991 4.82378,0 8.73423,3.25933 8.73423,7.27991 z"
       transform="matrix(1,0,0,0.66854371,57.99449,144.43284)" />
    <g
       transform="translate(-229.89808,36.319581)"
       id="layer1-9"
       inkscape:label="Layer 1">
      <path
         transform="matrix(0.44150023,0,0,0.47181133,405.85722,256.97834)"
         d="m 405.80305,393.32004 c 0,12.71916 -33.72721,23.03007 -75.33183,23.03007 -41.60462,0 -75.33183,-10.31091 -75.33183,-23.03007 0,-12.71916 33.72721,-23.03008 75.33183,-23.03008 41.60462,0 75.33183,10.31092 75.33183,23.03008 z"
         sodipodi:ry="23.030073"
         sodipodi:rx="75.331833"
         sodipodi:cy="393.32004"
         sodipodi:cx="330.47122"
         id="path4528"
         style="fill:#000000;fill-opacity:1;fill-rule:nonzero;stroke:#000000;stroke-width:0.98701739;stroke-linejoin:round;stroke-miterlimit:4;stroke-opacity:1;stroke-dasharray:none;stroke-dashoffset:0"
         sodipodi:type="arc" />
      <path
         sodipodi:nodetypes="cccscssscc"
         id="path16990"
         d="m 573.39774,434.64973 c -8.8416,-2.63814 -33.41051,-4.46633 -46.74328,1.33881 2.42791,1.87555 5.54623,4.24924 7.84442,7.76612 2.14606,-4.48491 4.92812,-9.62972 6.24463,-9.8163 2.2012,-0.31294 3.21499,5.34999 5.1003,9.92882 1.15225,-4.0149 4.29579,-10.07653 5.48379,-10.24156 1.75936,-0.2444 4.99202,10.16618 4.93438,9.48257 -0.0576,-0.6836 3.22251,-9.28719 5.87268,-9.18801 2.65017,0.0992 5.34237,4.93074 5.02537,9.04271 2.1657,-4.23215 4.57729,-5.88484 6.23771,-8.31316 z"
         style="fill:#ffffff;fill-opacity:1;fill-rule:evenodd;stroke:none" />
      <path
         sodipodi:nodetypes="cccscccccccc"
         id="path3661"
         d="m 524.82056,448.05258 c 11.10474,6.01466 39.45339,6.37642 52.26559,0.98092 -1.99738,-2.60052 -3.69034,-5.62654 -4.632,-7.36115 -1.56381,2.27769 -4.83134,8.00127 -5.96019,8.32155 -0.82358,0.23368 -3.47936,-6.13157 -4.6453,-7.62767 -1.94987,1.74606 -4.17409,8.42517 -5.71973,8.28787 -1.20486,0.2624 -3.73842,-6.41644 -4.82498,-8.46561 -1.1348,2.35269 -3.86188,9.17371 -6.3148,8.3899 -2.45291,-0.78381 -3.1053,-7.8247 -4.51649,-9.52433 -1.1483,2.27652 -4.11802,7.08779 -5.70396,8.89159 -2.02408,-1.48555 -3.77442,-5.91453 -5.3381,-7.71807 -0.81884,2.65155 -4.36171,6.11417 -4.61004,5.825 z"
         style="fill:#ffffff;fill-opacity:1;fill-rule:evenodd;stroke:none" />
      <path
         sodipodi:type="arc"
         style="fill:#ffffff;fill-opacity:1;fill-rule:evenodd;stroke:none"
         id="path3945"
         sodipodi:cx="278.92838"
         sodipodi:cy="452.58411"
         sodipodi:rx="1.8940361"
         sodipodi:ry="1.8940361"
         d="m 280.82241,452.58411 c 0,1.04604 -0.84799,1.89403 -1.89403,1.89403 -1.04605,0 -1.89404,-0.84799 -1.89404,-1.89403 0,-1.04605 0.84799,-1.89404 1.89404,-1.89404 1.04604,0 1.89403,0.84799 1.89403,1.89404 z"
         transform="translate(242.77752,-47.431259)" />
      <path
         sodipodi:type="arc"
         style="fill:#ffffff;fill-opacity:1;fill-rule:evenodd;stroke:none"
         id="path3945-9"
         sodipodi:cx="278.92838"
         sodipodi:cy="452.58411"
         sodipodi:rx="1.8940361"
         sodipodi:ry="1.8940361"
         d="m 280.82241,452.58411 c 0,1.04604 -0.84799,1.89403 -1.89403,1.89403 -1.04605,0 -1.89404,-0.84799 -1.89404,-1.89403 0,-1.04605 0.84799,-1.89404 1.89404,-1.89404 1.04604,0 1.89403,0.84799 1.89403,1.89404 z"
         transform="translate(301.11384,-47.683796)" />
    </g>
  </g>
</svg>
