<?xml version="1.0" encoding="UTF-8" standalone="no"?>
<!-- Created with Inkscape (http://www.inkscape.org/) -->

<svg
   xmlns:dc="http://purl.org/dc/elements/1.1/"
   xmlns:cc="http://creativecommons.org/ns#"
   xmlns:rdf="http://www.w3.org/1999/02/22-rdf-syntax-ns#"
   xmlns:svg="http://www.w3.org/2000/svg"
   xmlns="http://www.w3.org/2000/svg"
   xmlns:xlink="http://www.w3.org/1999/xlink"
   xmlns:sodipodi="http://sodipodi.sourceforge.net/DTD/sodipodi-0.dtd"
   xmlns:inkscape="http://www.inkscape.org/namespaces/inkscape"
   width="529.20941"
   height="232.0121"
   id="svg2"
   version="1.1"
   inkscape:version="0.48.0 r9654"
   sodipodi:docname="propane tank.svg">
  <sodipodi:namedview
     id="base"
     pagecolor="#ffffff"
     bordercolor="#666666"
     borderopacity="1.0"
     inkscape:pageopacity="0.0"
     inkscape:pageshadow="2"
     inkscape:zoom="1.0559903"
     inkscape:cx="314.53042"
     inkscape:cy="163.45544"
     inkscape:document-units="px"
     inkscape:current-layer="layer1"
     showgrid="false"
     inkscape:window-width="1366"
     inkscape:window-height="692"
     inkscape:window-x="0"
     inkscape:window-y="24"
     inkscape:window-maximized="1"
     showguides="true"
     inkscape:guide-bbox="true"
     fit-margin-top="2"
     fit-margin-right="2"
     fit-margin-bottom="2"
     fit-margin-left="2" />
  <defs
     id="defs4">
    <linearGradient
       inkscape:collect="always"
       id="linearGradient5613">
      <stop
         style="stop-color:#b3b3b3;stop-opacity:1;"
         offset="0"
         id="stop5615" />
      <stop
         style="stop-color:#b3b3b3;stop-opacity:0;"
         offset="1"
         id="stop5617" />
    </linearGradient>
    <linearGradient
       inkscape:collect="always"
       id="linearGradient5579">
      <stop
         style="stop-color:#000000;stop-opacity:1"
         offset="0"
         id="stop5581" />
      <stop
         style="stop-color:#666666;stop-opacity:1"
         offset="1"
         id="stop5583" />
    </linearGradient>
    <linearGradient
       inkscape:collect="always"
       id="linearGradient5571">
      <stop
         style="stop-color:#666666;stop-opacity:1"
         offset="0"
         id="stop5573" />
      <stop
         style="stop-color:#cccccc;stop-opacity:1"
         offset="1"
         id="stop5575" />
    </linearGradient>
    <linearGradient
       y2="777.28162"
       x2="154.66379"
       y1="785.39142"
       x1="154.66379"
       gradientUnits="userSpaceOnUse"
       id="linearGradient4071"
       xlink:href="#linearGradient3866"
       inkscape:collect="always" />
    <linearGradient
       y2="752.61304"
       x2="162.39697"
       y1="735.66968"
       x1="162.39697"
       gradientUnits="userSpaceOnUse"
       id="linearGradient4069"
       xlink:href="#linearGradient3874"
       inkscape:collect="always" />
    <clipPath
       id="clipPath4038"
       clipPathUnits="userSpaceOnUse">
      <path
         sodipodi:nodetypes="ccccccc"
         inkscape:connector-curvature="0"
         id="path4040"
         d="m 376.71678,686.69282 7.36494,14.72988 12.15216,24.3043 c 16.73308,9.38694 32.46033,4.69216 48.24037,0.7365 l 40.50718,-78.80488 -117.83907,4.05072 z"
         style="fill:none;stroke:#000000;stroke-width:1px;stroke-linecap:butt;stroke-linejoin:miter;stroke-opacity:1" />
    </clipPath>
    <filter
       color-interpolation-filters="sRGB"
       height="1.5337186"
       y="-0.26685932"
       width="1.0386039"
       x="-0.01930194"
       id="filter3967"
       inkscape:collect="always">
      <feGaussianBlur
         id="feGaussianBlur3969"
         stdDeviation="2.2206835"
         inkscape:collect="always" />
    </filter>
    <filter
       color-interpolation-filters="sRGB"
       height="1.3537455"
       y="-0.17687275"
       width="1.2586437"
       x="-0.1293219"
       id="filter3949"
       inkscape:collect="always">
      <feGaussianBlur
         id="feGaussianBlur3951"
         stdDeviation="0.61123669"
         inkscape:collect="always" />
    </filter>
    <linearGradient
       gradientUnits="userSpaceOnUse"
       y2="205.77057"
       x2="176.39035"
       y1="160.84442"
       x1="170.13016"
       id="linearGradient3895"
       xlink:href="#linearGradient3889"
       inkscape:collect="always" />
    <linearGradient
       gradientUnits="userSpaceOnUse"
       y2="752.61304"
       x2="162.39697"
       y1="735.66968"
       x1="162.39697"
       id="linearGradient3880"
       xlink:href="#linearGradient3874"
       inkscape:collect="always" />
    <linearGradient
       gradientUnits="userSpaceOnUse"
       y2="777.28162"
       x2="154.66379"
       y1="785.39142"
       x1="154.66379"
       id="linearGradient3872"
       xlink:href="#linearGradient3866"
       inkscape:collect="always" />
    <radialGradient
       r="38.90625"
       fy="719.39215"
       fx="231.16766"
       cy="719.39215"
       cx="231.16766"
       gradientTransform="matrix(1.3454533,-0.13995424,0.0757546,0.72826864,-133.11318,221.78515)"
       gradientUnits="userSpaceOnUse"
       id="radialGradient3842"
       xlink:href="#linearGradient3796"
       inkscape:collect="always" />
    <filter
       color-interpolation-filters="sRGB"
       id="filter3822"
       inkscape:collect="always">
      <feGaussianBlur
         id="feGaussianBlur3824"
         stdDeviation="0.28735158"
         inkscape:collect="always" />
    </filter>
    <filter
       color-interpolation-filters="sRGB"
       id="filter3818"
       inkscape:collect="always">
      <feGaussianBlur
         id="feGaussianBlur3820"
         stdDeviation="0.057470315"
         inkscape:collect="always" />
    </filter>
    <filter
       color-interpolation-filters="sRGB"
       height="1.8800001"
       y="-0.44000003"
       width="1.0375355"
       x="-0.018767772"
       id="filter3790"
       inkscape:collect="always">
      <feGaussianBlur
         id="feGaussianBlur3792"
         stdDeviation="1.7590619"
         inkscape:collect="always" />
    </filter>
    <radialGradient
       gradientUnits="userSpaceOnUse"
       gradientTransform="matrix(1.7981416,-3.0543891e-7,4.0568375e-8,0.33652754,-163.62242,132.78717)"
       r="138.05971"
       fy="213.6637"
       fx="212.53751"
       cy="213.6637"
       cx="212.53751"
       id="radialGradient3018"
       xlink:href="#linearGradient3012"
       inkscape:collect="always" />
    <linearGradient
       id="linearGradient2996">
      <stop
         id="stop2998"
         offset="0"
         style="stop-color:#808080;stop-opacity:1" />
      <stop
         style="stop-color:#fbfbfb;stop-opacity:1;"
         offset="0.52815682"
         id="stop3004" />
      <stop
         id="stop3000"
         offset="1"
         style="stop-color:#808080;stop-opacity:1" />
    </linearGradient>
    <linearGradient
       id="linearGradient3012"
       inkscape:collect="always">
      <stop
         id="stop3014"
         offset="0"
         style="stop-color:#ffffff;stop-opacity:1" />
      <stop
         id="stop3016"
         offset="1"
         style="stop-color:#ffffff;stop-opacity:0;" />
    </linearGradient>
    <linearGradient
       id="linearGradient3796"
       inkscape:collect="always">
      <stop
         id="stop3798"
         offset="0"
         style="stop-color:#d40000;stop-opacity:1;" />
      <stop
         id="stop3800"
         offset="1"
         style="stop-color:#d40000;stop-opacity:0;" />
    </linearGradient>
    <linearGradient
       id="linearGradient3866"
       inkscape:collect="always">
      <stop
         id="stop3868"
         offset="0"
         style="stop-color:#800000;stop-opacity:1" />
      <stop
         id="stop3870"
         offset="1"
         style="stop-color:#d40000;stop-opacity:1" />
    </linearGradient>
    <linearGradient
       id="linearGradient3874"
       inkscape:collect="always">
      <stop
         id="stop3876"
         offset="0"
         style="stop-color:#aa0000;stop-opacity:1;" />
      <stop
         id="stop3878"
         offset="1"
         style="stop-color:#ff0000;stop-opacity:1" />
    </linearGradient>
    <linearGradient
       id="linearGradient3889"
       inkscape:collect="always">
      <stop
         id="stop3891"
         offset="0"
         style="stop-color:#ffffff;stop-opacity:1;" />
      <stop
         id="stop3893"
         offset="1"
         style="stop-color:#ffffff;stop-opacity:0;" />
    </linearGradient>
    <linearGradient
       inkscape:collect="always"
       xlink:href="#linearGradient3874"
       id="linearGradient3261"
       gradientUnits="userSpaceOnUse"
       x1="162.39697"
       y1="735.66968"
       x2="162.39697"
       y2="752.61304" />
    <linearGradient
       inkscape:collect="always"
       xlink:href="#linearGradient3866"
       id="linearGradient3263"
       gradientUnits="userSpaceOnUse"
       x1="154.66379"
       y1="785.39142"
       x2="154.66379"
       y2="777.28162" />
    <radialGradient
       inkscape:collect="always"
       xlink:href="#linearGradient3796"
       id="radialGradient3267"
       gradientUnits="userSpaceOnUse"
       gradientTransform="matrix(1.3454533,-0.13995424,0.0757546,0.72826864,-133.11318,221.78515)"
       cx="231.16766"
       cy="719.39215"
       fx="231.16766"
       fy="719.39215"
       r="38.90625" />
    <linearGradient
       inkscape:collect="always"
       xlink:href="#linearGradient3866"
       id="linearGradient3278"
       gradientUnits="userSpaceOnUse"
       x1="154.66379"
       y1="785.39142"
       x2="154.66379"
       y2="777.28162"
       gradientTransform="matrix(1.8314101,0,0,1.8314101,-714.10549,-927.13382)" />
    <linearGradient
       inkscape:collect="always"
       xlink:href="#linearGradient3874"
       id="linearGradient3284"
       gradientUnits="userSpaceOnUse"
       x1="162.39697"
       y1="735.66968"
       x2="162.39697"
       y2="752.61304"
       gradientTransform="matrix(1.8314101,0,0,1.8314101,-727.0205,-908.40704)" />
    <radialGradient
       inkscape:collect="always"
       xlink:href="#linearGradient3012"
       id="radialGradient3288"
       gradientUnits="userSpaceOnUse"
       gradientTransform="matrix(3.2931347,-5.593839e-7,7.4297332e-8,0.61631994,-344.76737,423.22675)"
       cx="212.53751"
       cy="213.6637"
       fx="212.53751"
       fy="213.6637"
       r="138.05971" />
    <filter
       inkscape:collect="always"
       id="filter5545"
       x="-0.36203566"
       width="1.7240713"
       y="-0.012411387"
       height="1.0248228"
       color-interpolation-filters="sRGB">
      <feGaussianBlur
         inkscape:collect="always"
         stdDeviation="0.7313596"
         id="feGaussianBlur5547" />
    </filter>
    <linearGradient
       inkscape:collect="always"
       xlink:href="#linearGradient5571"
       id="linearGradient5577"
       x1="348.53156"
       y1="480.63156"
       x2="343.64206"
       y2="490.41446"
       gradientUnits="userSpaceOnUse" />
    <radialGradient
       inkscape:collect="always"
       xlink:href="#linearGradient5579"
       id="radialGradient5585"
       cx="343.32996"
       cy="470.19385"
       fx="343.32996"
       fy="470.19385"
       r="13.99553"
       gradientTransform="matrix(3.1670621,0.26549553,-0.27260065,3.2518199,-614.70363,-1152.2431)"
       gradientUnits="userSpaceOnUse" />
    <filter
       inkscape:collect="always"
       id="filter5587"
       color-interpolation-filters="sRGB">
      <feGaussianBlur
         inkscape:collect="always"
         stdDeviation="0.099075625"
         id="feGaussianBlur5589" />
    </filter>
    <filter
       inkscape:collect="always"
       id="filter5599"
       color-interpolation-filters="sRGB">
      <feGaussianBlur
         inkscape:collect="always"
         stdDeviation="0.15122255"
         id="feGaussianBlur5601" />
    </filter>
    <linearGradient
       inkscape:collect="always"
       xlink:href="#linearGradient5613"
       id="linearGradient5619"
       x1="375.95041"
       y1="617.6991"
       x2="375.95041"
       y2="591.98108"
       gradientUnits="userSpaceOnUse"
       gradientTransform="matrix(1.0532993,0,0,1.2243568,-25.646417,-139.41814)" />
    <filter
       inkscape:collect="always"
       id="filter5621"
       color-interpolation-filters="sRGB">
      <feGaussianBlur
         inkscape:collect="always"
         stdDeviation="1.6675344"
         id="feGaussianBlur5623" />
    </filter>
    <linearGradient
       inkscape:collect="always"
       xlink:href="#linearGradient3874"
       id="linearGradient5684"
       gradientUnits="userSpaceOnUse"
       gradientTransform="matrix(1.8314101,0,0,1.8314101,-727.0205,-908.40704)"
       x1="162.39697"
       y1="735.66968"
       x2="162.39697"
       y2="752.61304" />
    <linearGradient
       inkscape:collect="always"
       xlink:href="#linearGradient3866"
       id="linearGradient5686"
       gradientUnits="userSpaceOnUse"
       gradientTransform="matrix(1.8314101,0,0,1.8314101,-714.10549,-927.13382)"
       x1="154.66379"
       y1="785.39142"
       x2="154.66379"
       y2="777.28162" />
    <radialGradient
       inkscape:collect="always"
       xlink:href="#linearGradient3012"
       id="radialGradient5688"
       gradientUnits="userSpaceOnUse"
       gradientTransform="matrix(3.2931347,-5.593839e-7,7.4297332e-8,0.61631994,-344.76737,423.22675)"
       cx="212.53751"
       cy="213.6637"
       fx="212.53751"
       fy="213.6637"
       r="138.05971" />
    <radialGradient
       inkscape:collect="always"
       xlink:href="#linearGradient3796"
       id="radialGradient5690"
       gradientUnits="userSpaceOnUse"
       gradientTransform="matrix(1.3454533,-0.13995424,0.0757546,0.72826864,-133.11318,221.78515)"
       cx="231.16766"
       cy="719.39215"
       fx="231.16766"
       fy="719.39215"
       r="38.90625" />
    <radialGradient
       inkscape:collect="always"
       xlink:href="#linearGradient5579"
       id="radialGradient5692"
       gradientUnits="userSpaceOnUse"
       gradientTransform="matrix(3.1670621,0.26549553,-0.27260065,3.2518199,-614.70363,-1152.2431)"
       cx="343.32996"
       cy="470.19385"
       fx="343.32996"
       fy="470.19385"
       r="13.99553" />
    <linearGradient
       inkscape:collect="always"
       xlink:href="#linearGradient5571"
       id="linearGradient5694"
       gradientUnits="userSpaceOnUse"
       x1="348.53156"
       y1="480.63156"
       x2="343.64206"
       y2="490.41446" />
    <linearGradient
       inkscape:collect="always"
       xlink:href="#linearGradient5613"
       id="linearGradient5696"
       gradientUnits="userSpaceOnUse"
       gradientTransform="matrix(1.0532993,0,0,1.2243568,-25.646417,-139.41814)"
       x1="375.95041"
       y1="617.6991"
       x2="375.95041"
       y2="591.98108" />
  </defs>
  <metadata
     id="metadata7">
    <rdf:RDF>
      <cc:Work
         rdf:about="">
        <dc:format>image/svg+xml</dc:format>
        <dc:type
           rdf:resource="http://purl.org/dc/dcmitype/StillImage" />
        <dc:title />
      </cc:Work>
    </rdf:RDF>
  </metadata>
  <g
     inkscape:label="Layer 1"
     inkscape:groupmode="layer"
     id="layer1"
     transform="translate(-120.2021,-416.35612)">
    <g
       id="g5662">
      <rect
         transform="matrix(1.8314101,0,0,1.4409109,-45.10762,-518.07094)"
         ry="9.9858618"
         rx="138.05971"
         y="782.82574"
         x="96.685326"
         height="19.971724"
         width="276.11942"
         id="rect3961"
         style="opacity:0.9;fill:#000000;fill-opacity:1;stroke:none;filter:url(#filter3967)" />
      <g
         transform="matrix(1.8314101,0,0,1.8314101,-46.456443,-830.21386)"
         id="g3826">
        <path
           style="fill:none;stroke:#b3b3b3;stroke-width:3;stroke-linecap:butt;stroke-linejoin:miter;stroke-opacity:1;filter:url(#filter3818)"
           d="m 107.31867,726.09525 c 0.13244,-17.91166 11.52192,-8.36343 12.15216,-7.73319"
           id="path3804"
           inkscape:connector-curvature="0"
           sodipodi:nodetypes="cc" />
        <path
           sodipodi:nodetypes="cc"
           inkscape:connector-curvature="0"
           id="path3808"
           d="m 107.31867,726.09525 c 0.13244,-17.91166 11.52192,-8.36343 12.15216,-7.73319"
           style="opacity:0.88934428;fill:none;stroke:#ececec;stroke-width:1;stroke-linecap:butt;stroke-linejoin:miter;stroke-opacity:1;filter:url(#filter3822)" />
      </g>
      <g
         transform="matrix(-1.8314101,0,0,1.8314101,816.02293,-830.21386)"
         id="g3830">
        <path
           sodipodi:nodetypes="cc"
           inkscape:connector-curvature="0"
           id="path3832"
           d="m 107.31867,726.09525 c 0.13244,-17.91166 11.52192,-8.36343 12.15216,-7.73319"
           style="fill:none;stroke:#b3b3b3;stroke-width:3;stroke-linecap:butt;stroke-linejoin:miter;stroke-opacity:1;filter:url(#filter3818)" />
        <path
           style="opacity:0.88934428;fill:none;stroke:#ececec;stroke-width:1;stroke-linecap:butt;stroke-linejoin:miter;stroke-opacity:1;filter:url(#filter3822)"
           d="m 107.31867,726.09525 c 0.13244,-17.91166 11.52192,-8.36343 12.15216,-7.73319"
           id="path3834"
           inkscape:connector-curvature="0"
           sodipodi:nodetypes="cc" />
      </g>
      <rect
         ry="58.377842"
         rx="56.345474"
         y="480.71826"
         x="130.61403"
         height="144.48225"
         width="505.6879"
         id="rect2985"
         style="opacity:0.954918;fill:#cccccc;fill-opacity:1;stroke:none" />
      <rect
         style="opacity:0.954918;fill:url(#radialGradient5688);fill-opacity:1;stroke:none"
         id="rect3010"
         width="505.6879"
         height="144.48225"
         x="130.61403"
         y="480.71826"
         rx="56.345474"
         ry="58.377842" />
      <rect
         transform="matrix(1.7694055,0,0,1.8314101,-28.405599,-831.56269)"
         ry="3.8767982"
         rx="25.064331"
         y="723.91467"
         x="119.40299"
         height="9.594882"
         width="224.9467"
         id="rect3020"
         style="opacity:0.74180328;fill:#ffffff;fill-opacity:1;stroke:none;filter:url(#filter3790)" />
      <g
         transform="matrix(1.5532975,0,0,1.5532975,19.964002,-635.91919)"
         id="g3838">
        <path
           style="fill:#800000;fill-opacity:1;stroke:none"
           d="m 225.85814,679.21919 c -17.04446,0 -30.75,7.10628 -30.75,15.90625 l 0,26.732 c 32.64791,9.84193 55.61803,5.48978 77.8125,0 l 0,-26.732 c 0,-8.79997 -13.73679,-15.90625 -30.78125,-15.90625 z"
           id="rect2990"
           inkscape:connector-curvature="0"
           sodipodi:nodetypes="ssccsss" />
        <path
           sodipodi:nodetypes="ssccsss"
           inkscape:connector-curvature="0"
           id="path3794"
           d="m 225.85814,679.21919 c -17.04446,0 -30.75,7.10628 -30.75,15.90625 l 0,26.732 c 32.64791,9.84193 55.61803,5.48978 77.8125,0 l 0,-26.732 c 0,-8.79997 -13.73679,-15.90625 -30.78125,-15.90625 z"
           style="fill:url(#radialGradient5690);fill-opacity:1;stroke:none" />
      </g>
      <path
         sodipodi:nodetypes="cc"
         inkscape:connector-curvature="0"
         id="path3929"
         d="m 323.12104,440.2161 c 40.01509,5.37704 80.03015,4.73581 120.04524,-0.67441"
         style="fill:none;stroke:#800000;stroke-width:1.83141005px;stroke-linecap:butt;stroke-linejoin:miter;stroke-opacity:1" />
      <path
         transform="matrix(7.0570482,0.34327878,-0.68049952,1.8829416,-589.50447,156.86927)"
         d="m 155.03203,117.39127 c 0,2.23715 -2.55548,4.05072 -5.70783,4.05072 -3.15234,0 -5.70783,-1.81357 -5.70783,-4.05072 0,-2.23715 2.55549,-4.05071 5.70783,-4.05071 3.15235,0 5.70783,1.81356 5.70783,4.05071 z"
         sodipodi:ry="4.0507183"
         sodipodi:rx="5.70783"
         sodipodi:cy="117.39127"
         sodipodi:cx="149.3242"
         id="path3931"
         style="opacity:0.06000001;fill:#f2f2f2;fill-opacity:1;stroke:none;filter:url(#filter3949)"
         sodipodi:type="arc" />
      <path
         transform="matrix(-1,0,0,1,356.51531,0)"
         sodipodi:nodetypes="cc"
         inkscape:connector-curvature="0"
         id="path3298"
         d="m 176.08885,482.49069 c 0.21077,1.60804 0.44832,3.30075 0.64484,4.91069 0.19648,1.60952 0.24716,3.73172 0.42936,5.34314 0.18222,1.61157 0.0947,2.36336 0.26262,3.97684 0.16787,1.61303 -0.21283,3.53502 -0.0593,5.14996 0.15344,1.6141 0.35443,3.1281 0.49351,4.74411 0.13903,1.61542 0.73337,3.02166 0.85801,4.63899 0.12456,1.61633 0.44844,4.15811 0.55859,5.77636 0.11009,1.61726 0.27096,3.19433 0.36661,4.81351 0.0956,1.61842 -0.0795,2.35455 0.002,3.97489 0.0811,1.61933 0.31612,3.28536 0.38276,4.90661 0.0666,1.61989 0.26333,3.33753 0.31543,4.95935 0.0521,1.61982 -0.37017,3.10841 -0.3326,4.73016 0.0375,1.62033 0.64706,3.91263 0.6701,5.53489 0.023,1.6204 -0.25039,3.52562 -0.24188,5.14795 0.009,1.6207 -0.18231,2.27449 -0.18831,3.89712 -0.006,1.62051 0.42381,4.00253 0.40332,5.62496 -0.0205,1.62055 -0.35348,3.46631 -0.38845,5.08879 -0.0349,1.61985 0.21373,3.03877 0.16432,4.66055 -0.0493,1.61957 -0.61805,3.44682 -0.68188,5.06833 -0.0637,1.61936 0.26766,3.14804 0.18944,4.76932 -0.0781,1.61842 -0.40724,2.34298 -0.4998,3.96333 -0.0924,1.61786 0.0916,4.09789 -0.0153,5.71767 -0.10665,1.61644 -0.27484,3.27808 -0.39593,4.89644 -0.12088,1.61544 -0.19668,2.4564 -0.33197,4.07376 -0.13505,1.61441 -0.62458,4.09629 -0.77403,5.71262 -0.14916,1.61333 -0.42778,3.2106 -0.59133,4.82585 -0.16323,1.61216 -0.68274,2.88697 -0.86034,4.50104 -0.17715,1.61005 -0.38219,3.10166 -0.57366,4.71361 -0.1911,1.60881 0.14601,3.69205 -0.0594,5.30276"
         style="fill:none;stroke:#cccccc;stroke-width:1.5;stroke-linecap:round;stroke-linejoin:round;stroke-opacity:1;filter:url(#filter5545)" />
      <path
         style="fill:none;stroke:#cccccc;stroke-width:1.5;stroke-linecap:round;stroke-linejoin:round;stroke-opacity:1;filter:url(#filter5545)"
         d="m 578.55466,482.49069 c 0.21076,1.60804 0.44831,3.30075 0.64483,4.91069 0.19648,1.60952 0.24716,3.73172 0.42936,5.34314 0.18222,1.61157 0.0947,2.36336 0.26263,3.97684 0.16786,1.61303 -0.21284,3.53502 -0.0593,5.14996 0.15344,1.6141 0.35442,3.1281 0.4935,4.74411 0.13903,1.61542 0.73337,3.02166 0.85801,4.63899 0.12456,1.61633 0.44844,4.15811 0.55859,5.77636 0.11009,1.61726 0.27096,3.19433 0.36662,4.81351 0.0956,1.61842 -0.0795,2.35455 0.002,3.97489 0.0811,1.61933 0.31612,3.28536 0.38276,4.90661 0.0666,1.61989 0.26333,3.33753 0.31543,4.95935 0.0521,1.61982 -0.37016,3.10841 -0.3326,4.73016 0.0375,1.62033 0.64707,3.91263 0.6701,5.53489 0.023,1.6204 -0.25039,3.52562 -0.24187,5.14795 0.009,1.6207 -0.18231,2.27449 -0.18831,3.89712 -0.006,1.62051 0.4238,4.00253 0.40331,5.62496 -0.0205,1.62055 -0.35348,3.46631 -0.38845,5.08879 -0.0349,1.61985 0.21373,3.03877 0.16432,4.66055 -0.0493,1.61957 -0.61805,3.44682 -0.68188,5.06833 -0.0637,1.61936 0.26767,3.14804 0.18944,4.76932 -0.0781,1.61842 -0.40724,2.34298 -0.4998,3.96333 -0.0924,1.61786 0.0916,4.09789 -0.0153,5.71767 -0.10665,1.61644 -0.27484,3.27808 -0.39593,4.89644 -0.12087,1.61544 -0.19668,2.4564 -0.33197,4.07376 -0.13505,1.61441 -0.62458,4.09629 -0.77402,5.71262 -0.14917,1.61333 -0.42779,3.2106 -0.59134,4.82585 -0.16323,1.61216 -0.68274,2.88697 -0.86033,4.50104 -0.17716,1.61005 -0.38219,3.10166 -0.57367,4.71361 -0.1911,1.60881 0.14602,3.69205 -0.0594,5.30276"
         id="path5549"
         inkscape:connector-curvature="0"
         sodipodi:nodetypes="cc" />
      <path
         sodipodi:nodetypes="czzcc"
         inkscape:connector-curvature="0"
         id="path5557"
         d="m 334.30029,488.11665 c 0,0 -5.80064,-17.17568 0.66352,-23.11325 6.46416,-5.93757 14.93327,-6.11898 21.87944,1.30235 6.94617,7.42133 -0.26047,26.23889 -0.26047,26.23889 z"
         style="fill:url(#radialGradient5692);fill-opacity:1;stroke:none;filter:url(#filter5599)" />
      <path
         sodipodi:nodetypes="ccccc"
         inkscape:connector-curvature="0"
         id="path5561"
         d="m 332.38911,480.63157 27.18158,0 c -0.86009,3.95293 -0.87426,6.48763 -3.07177,12.44867 -7.02705,-1.10482 -11.06023,0.38505 -22.28653,-4.35912 -0.97076,-3.42251 -1.38856,-5.7391 -1.82328,-8.08955 z"
         style="fill:url(#linearGradient5694);fill-opacity:1;stroke:none;filter:url(#filter5587)" />
      <rect
         ry="20.880571"
         rx="15.860477"
         y="569.73425"
         x="181.75085"
         height="51.678375"
         width="392.99747"
         id="rect5603"
         style="opacity:0.65;fill:url(#linearGradient5696);fill-opacity:1;stroke:none;filter:url(#filter5621)" />
    </g>
  </g>
</svg>
