<?xml version="1.0" encoding="UTF-8" standalone="no"?>
<!-- Created with Inkscape (http://www.inkscape.org/) -->

<svg
   xmlns:dc="http://purl.org/dc/elements/1.1/"
   xmlns:cc="http://creativecommons.org/ns#"
   xmlns:rdf="http://www.w3.org/1999/02/22-rdf-syntax-ns#"
   xmlns:svg="http://www.w3.org/2000/svg"
   xmlns="http://www.w3.org/2000/svg"
   xmlns:sodipodi="http://sodipodi.sourceforge.net/DTD/sodipodi-0.dtd"
   xmlns:inkscape="http://www.inkscape.org/namespaces/inkscape"
   width="356.64334"
   height="308.01791"
   id="svg2"
   version="1.1"
   inkscape:version="0.47 r22583"
   sodipodi:docname="protein_chain.svg">
  <defs
     id="defs4">
    <inkscape:perspective
       sodipodi:type="inkscape:persp3d"
       inkscape:vp_x="0 : 526.18109 : 1"
       inkscape:vp_y="0 : 1000 : 0"
       inkscape:vp_z="744.09448 : 526.18109 : 1"
       inkscape:persp3d-origin="372.04724 : 350.78739 : 1"
       id="perspective10" />
    <inkscape:perspective
       id="perspective3869"
       inkscape:persp3d-origin="70.150497 : 43.127665 : 1"
       inkscape:vp_z="140.30099 : 64.691498 : 1"
       inkscape:vp_y="0 : 1000 : 0"
       inkscape:vp_x="0 : 64.691498 : 1"
       sodipodi:type="inkscape:persp3d" />
  </defs>
  <sodipodi:namedview
     id="base"
     pagecolor="#ffffff"
     bordercolor="#666666"
     borderopacity="1.0"
     inkscape:pageopacity="0.0"
     inkscape:pageshadow="2"
     inkscape:zoom="1.4"
     inkscape:cx="169.96224"
     inkscape:cy="73.879408"
     inkscape:document-units="px"
     inkscape:current-layer="g3835"
     showgrid="false"
     inkscape:window-width="1280"
     inkscape:window-height="999"
     inkscape:window-x="0"
     inkscape:window-y="0"
     inkscape:window-maximized="1" />
  <metadata
     id="metadata7">
    <rdf:RDF>
      <cc:Work
         rdf:about="">
        <dc:format>image/svg+xml</dc:format>
        <dc:type
           rdf:resource="http://purl.org/dc/dcmitype/StillImage" />
        <dc:title></dc:title>
      </cc:Work>
    </rdf:RDF>
  </metadata>
  <g
     inkscape:label="Layer 1"
     inkscape:groupmode="layer"
     id="layer1"
     transform="translate(-86.617457,-95.70074)">
    <path
       transform="matrix(-0.96592583,0.25881905,-0.25881905,-0.96592583,510.47964,442.95873)"
       sodipodi:type="arc"
       style="fill:#ffe400;fill-opacity:1;fill-rule:evenodd;stroke:#000000;stroke-width:0.5;stroke-linejoin:round;stroke-miterlimit:4;stroke-opacity:1;stroke-dasharray:none"
       id="path3592"
       sodipodi:cx="115.15739"
       sodipodi:cy="341.21478"
       sodipodi:rx="16.162441"
       sodipodi:ry="16.162441"
       d="m 131.31983,341.21478 c 0,8.92627 -7.23617,16.16244 -16.16244,16.16244 -8.92627,0 -16.162444,-7.23617 -16.162444,-16.16244 0,-8.92627 7.236174,-16.16244 16.162444,-16.16244 8.92627,0 16.16244,7.23617 16.16244,16.16244 z" />
    <path
       d="m 131.31983,341.21478 c 0,8.92627 -7.23617,16.16244 -16.16244,16.16244 -8.92627,0 -16.162444,-7.23617 -16.162444,-16.16244 0,-8.92627 7.236174,-16.16244 16.162444,-16.16244 8.92627,0 16.16244,7.23617 16.16244,16.16244 z"
       sodipodi:ry="16.162441"
       sodipodi:rx="16.162441"
       sodipodi:cy="341.21478"
       sodipodi:cx="115.15739"
       id="path3594"
       style="fill:#ffe400;fill-opacity:1;fill-rule:evenodd;stroke:#000000;stroke-width:0.5;stroke-linejoin:round;stroke-miterlimit:4;stroke-opacity:1;stroke-dasharray:none"
       sodipodi:type="arc"
       transform="matrix(-0.96592583,0.25881905,-0.25881905,-0.96592583,471.8426,453.31149)" />
    <path
       d="m 131.31983,341.21478 c 0,8.92627 -7.23617,16.16244 -16.16244,16.16244 -8.92627,0 -16.162444,-7.23617 -16.162444,-16.16244 0,-8.92627 7.236174,-16.16244 16.162444,-16.16244 8.92627,0 16.16244,7.23617 16.16244,16.16244 z"
       sodipodi:ry="16.162441"
       sodipodi:rx="16.162441"
       sodipodi:cy="341.21478"
       sodipodi:cx="115.15739"
       id="path3596"
       style="fill:#ffe400;fill-opacity:1;fill-rule:evenodd;stroke:#000000;stroke-width:0.5;stroke-linejoin:round;stroke-miterlimit:4;stroke-opacity:1;stroke-dasharray:none"
       sodipodi:type="arc"
       transform="matrix(-0.96592583,0.25881905,-0.25881905,-0.96592583,549.11667,432.60597)" />
    <path
       transform="matrix(-0.96592583,0.25881905,-0.25881905,-0.96592583,587.75371,422.2532)"
       sodipodi:type="arc"
       style="fill:#ffe400;fill-opacity:1;fill-rule:evenodd;stroke:#000000;stroke-width:0.5;stroke-linejoin:round;stroke-miterlimit:4;stroke-opacity:1;stroke-dasharray:none"
       id="path3598"
       sodipodi:cx="115.15739"
       sodipodi:cy="341.21478"
       sodipodi:rx="16.162441"
       sodipodi:ry="16.162441"
       d="m 131.31983,341.21478 c 0,8.92627 -7.23617,16.16244 -16.16244,16.16244 -8.92627,0 -16.162444,-7.23617 -16.162444,-16.16244 0,-8.92627 7.236174,-16.16244 16.162444,-16.16244 8.92627,0 16.16244,7.23617 16.16244,16.16244 z" />
    <path
       d="m 131.31983,341.21478 c 0,8.92627 -7.23617,16.16244 -16.16244,16.16244 -8.92627,0 -16.162444,-7.23617 -16.162444,-16.16244 0,-8.92627 7.236174,-16.16244 16.162444,-16.16244 8.92627,0 16.16244,7.23617 16.16244,16.16244 z"
       sodipodi:ry="16.162441"
       sodipodi:rx="16.162441"
       sodipodi:cy="341.21478"
       sodipodi:cx="115.15739"
       id="path3600"
       style="fill:#ffe400;fill-opacity:1;fill-rule:evenodd;stroke:#000000;stroke-width:0.5;stroke-linejoin:round;stroke-miterlimit:4;stroke-opacity:1;stroke-dasharray:none"
       sodipodi:type="arc"
       transform="matrix(-0.96592583,0.25881905,-0.25881905,-0.96592583,626.39074,411.90044)" />
    <path
       transform="matrix(-0.96592583,0.25881905,-0.25881905,-0.96592583,433.20557,463.66425)"
       sodipodi:type="arc"
       style="fill:#ffe400;fill-opacity:1;fill-rule:evenodd;stroke:#000000;stroke-width:0.5;stroke-linejoin:round;stroke-miterlimit:4;stroke-opacity:1;stroke-dasharray:none"
       id="path3602"
       sodipodi:cx="115.15739"
       sodipodi:cy="341.21478"
       sodipodi:rx="16.162441"
       sodipodi:ry="16.162441"
       d="m 131.31983,341.21478 c 0,8.92627 -7.23617,16.16244 -16.16244,16.16244 -8.92627,0 -16.162444,-7.23617 -16.162444,-16.16244 0,-8.92627 7.236174,-16.16244 16.162444,-16.16244 8.92627,0 16.16244,7.23617 16.16244,16.16244 z" />
    <path
       d="m 131.31983,341.21478 c 0,8.92627 -7.23617,16.16244 -16.16244,16.16244 -8.92627,0 -16.162444,-7.23617 -16.162444,-16.16244 0,-8.92627 7.236174,-16.16244 16.162444,-16.16244 8.92627,0 16.16244,7.23617 16.16244,16.16244 z"
       sodipodi:ry="16.162441"
       sodipodi:rx="16.162441"
       sodipodi:cy="341.21478"
       sodipodi:cx="115.15739"
       id="path3604"
       style="fill:#ffe400;fill-opacity:1;fill-rule:evenodd;stroke:#000000;stroke-width:0.5;stroke-linejoin:round;stroke-miterlimit:4;stroke-opacity:1;stroke-dasharray:none"
       sodipodi:type="arc"
       transform="matrix(-0.96592583,0.25881905,-0.25881905,-0.96592583,401.57524,515.62117)" />
    <path
       transform="matrix(-0.96592583,0.25881905,-0.25881905,-0.96592583,381.77625,549.91403)"
       sodipodi:type="arc"
       style="fill:#ffe400;fill-opacity:1;fill-rule:evenodd;stroke:#000000;stroke-width:0.5;stroke-linejoin:round;stroke-miterlimit:4;stroke-opacity:1;stroke-dasharray:none"
       id="path3606"
       sodipodi:cx="115.15739"
       sodipodi:cy="341.21478"
       sodipodi:rx="16.162441"
       sodipodi:ry="16.162441"
       d="m 131.31983,341.21478 c 0,8.92627 -7.23617,16.16244 -16.16244,16.16244 -8.92627,0 -16.162444,-7.23617 -16.162444,-16.16244 0,-8.92627 7.236174,-16.16244 16.162444,-16.16244 8.92627,0 16.16244,7.23617 16.16244,16.16244 z" />
    <path
       d="m 131.31983,341.21478 c 0,8.92627 -7.23617,16.16244 -16.16244,16.16244 -8.92627,0 -16.162444,-7.23617 -16.162444,-16.16244 0,-8.92627 7.236174,-16.16244 16.162444,-16.16244 8.92627,0 16.16244,7.23617 16.16244,16.16244 z"
       sodipodi:ry="16.162441"
       sodipodi:rx="16.162441"
       sodipodi:cy="341.21478"
       sodipodi:cx="115.15739"
       id="path3608"
       style="fill:#ffe400;fill-opacity:1;fill-rule:evenodd;stroke:#000000;stroke-width:0.5;stroke-linejoin:round;stroke-miterlimit:4;stroke-opacity:1;stroke-dasharray:none"
       sodipodi:type="arc"
       transform="matrix(-0.96592583,0.25881905,-0.25881905,-0.96592583,361.97726,584.20689)" />
    <path
       transform="matrix(-0.96592583,0.25881905,-0.25881905,-0.96592583,342.17827,618.49975)"
       sodipodi:type="arc"
       style="fill:#ffe400;fill-opacity:1;fill-rule:evenodd;stroke:#000000;stroke-width:0.5;stroke-linejoin:round;stroke-miterlimit:4;stroke-opacity:1;stroke-dasharray:none"
       id="path3610"
       sodipodi:cx="115.15739"
       sodipodi:cy="341.21478"
       sodipodi:rx="16.162441"
       sodipodi:ry="16.162441"
       d="m 131.31983,341.21478 c 0,8.92627 -7.23617,16.16244 -16.16244,16.16244 -8.92627,0 -16.162444,-7.23617 -16.162444,-16.16244 0,-8.92627 7.236174,-16.16244 16.162444,-16.16244 8.92627,0 16.16244,7.23617 16.16244,16.16244 z" />
    <path
       d="m 131.31983,341.21478 c 0,8.92627 -7.23617,16.16244 -16.16244,16.16244 -8.92627,0 -16.162444,-7.23617 -16.162444,-16.16244 0,-8.92627 7.236174,-16.16244 16.162444,-16.16244 8.92627,0 16.16244,7.23617 16.16244,16.16244 z"
       sodipodi:ry="16.162441"
       sodipodi:rx="16.162441"
       sodipodi:cy="341.21478"
       sodipodi:cx="115.15739"
       id="path3612"
       style="fill:#ffe400;fill-opacity:1;fill-rule:evenodd;stroke:#000000;stroke-width:0.5;stroke-linejoin:round;stroke-miterlimit:4;stroke-opacity:1;stroke-dasharray:none"
       sodipodi:type="arc"
       transform="matrix(-0.96592583,0.25881905,-0.25881905,-0.96592583,322.37928,652.7926)" />
    <path
       transform="matrix(-0.96592583,0.25881905,-0.25881905,-0.96592583,302.58029,687.08546)"
       sodipodi:type="arc"
       style="fill:#ffe400;fill-opacity:1;fill-rule:evenodd;stroke:#000000;stroke-width:0.5;stroke-linejoin:round;stroke-miterlimit:4;stroke-opacity:1;stroke-dasharray:none"
       id="path3614"
       sodipodi:cx="115.15739"
       sodipodi:cy="341.21478"
       sodipodi:rx="16.162441"
       sodipodi:ry="16.162441"
       d="m 131.31983,341.21478 c 0,8.92627 -7.23617,16.16244 -16.16244,16.16244 -8.92627,0 -16.162444,-7.23617 -16.162444,-16.16244 0,-8.92627 7.236174,-16.16244 16.162444,-16.16244 8.92627,0 16.16244,7.23617 16.16244,16.16244 z" />
    <path
       style="fill:none;stroke:#000000;stroke-width:1px;stroke-linecap:butt;stroke-linejoin:miter;stroke-opacity:1"
       d="m 411.38802,116.21178 -7.41693,1.98736"
       id="path3616" />
    <path
       id="path3618"
       d="m 372.75099,126.56454 -7.41693,1.98736"
       style="fill:none;stroke:#000000;stroke-width:1px;stroke-linecap:butt;stroke-linejoin:miter;stroke-opacity:1" />
    <path
       style="fill:none;stroke:#000000;stroke-width:1px;stroke-linecap:butt;stroke-linejoin:miter;stroke-opacity:1"
       d="m 334.11395,136.9173 -7.41693,1.98736"
       id="path3620" />
    <path
       id="path3622"
       d="m 295.47692,147.27006 -7.41693,1.98736"
       style="fill:none;stroke:#000000;stroke-width:1px;stroke-linecap:butt;stroke-linejoin:miter;stroke-opacity:1" />
    <path
       style="fill:none;stroke:#000000;stroke-width:1px;stroke-linecap:butt;stroke-linejoin:miter;stroke-opacity:1"
       d="m 256.83989,157.62282 -7.41693,1.98736"
       id="path3624" />
    <path
       id="path3707"
       d="m 194.05661,229.57006 -3.58044,6.79271"
       style="fill:none;stroke:#000000;stroke-width:1px;stroke-linecap:butt;stroke-linejoin:miter;stroke-opacity:1" />
    <path
       style="fill:none;stroke:#000000;stroke-width:1px;stroke-linecap:butt;stroke-linejoin:miter;stroke-opacity:1"
       d="m 174.78841,264.01499 -3.58045,6.79271"
       id="path3709" />
    <path
       id="path3711"
       d="m 154.47911,298.47744 -3.58045,6.7927"
       style="fill:none;stroke:#000000;stroke-width:1px;stroke-linecap:butt;stroke-linejoin:miter;stroke-opacity:1" />
    <path
       style="fill:none;stroke:#000000;stroke-width:1px;stroke-linecap:butt;stroke-linejoin:miter;stroke-opacity:1"
       d="m 135.21091,332.92237 -3.58045,6.7927"
       id="path3713" />
    <path
       id="path3715"
       d="m 115.32412,367.01016 -3.58045,6.7927"
       style="fill:none;stroke:#000000;stroke-width:1px;stroke-linecap:butt;stroke-linejoin:miter;stroke-opacity:1" />
    <g
       id="g3835"
       transform="matrix(0.28070732,0,0,0.28070732,275.48931,298.99489)">
	<polygon
   id="polygon3837"
   points="92.083,99.344 127.083,116.406 102.09,91.312 125.551,77.836 100.442,73.93 123.771,52.727 89.176,58.445 98.286,32.141 78.997,46.953 76.435,10.906 60.356,48.289 44.052,30.703 44.239,56.352 9.122,43.383 34.458,67.625 18.771,76.062 37.552,82.461 10.606,98.633 44.231,96.242 45.177,121 59.88,98.805 71.356,111.414 75.896,100.906 94.771,114.234 "
   style="fill:#ff3400;fill-opacity:1;stroke:#000000;stroke-width:4.375;stroke-miterlimit:7"
   transform="matrix(-1.1558957,0.30972132,-0.30972132,-1.1558957,-101.68834,-325.41457)" />

	<polygon
   id="polygon3839"
   points="83.114,42.922 79.474,0 77.504,5.422 79.192,45.531 "
   transform="matrix(-1.1558957,0.30972132,-0.30972132,-1.1558957,-101.68834,-325.41457)" />

	<polygon
   id="polygon3841"
   points="106.301,75.297 131.215,50.367 127.715,50.609 101.786,73.914 "
   transform="matrix(-1.1558957,0.30972132,-0.30972132,-1.1558957,-101.68834,-325.41457)" />

	<polygon
   id="polygon3843"
   points="107.708,94.188 132.278,77.602 129.286,76.93 103.583,91.883 "
   transform="matrix(-1.1558957,0.30972132,-0.30972132,-1.1558957,-101.68834,-325.41457)" />

	<polygon
   id="polygon3845"
   points="105.926,93.492 133.293,120.695 140.301,124.32 107.388,89.016 "
   transform="matrix(-1.1558957,0.30972132,-0.30972132,-1.1558957,-101.68834,-325.41457)" />

	<polygon
   id="polygon3847"
   points="94.099,105.531 140.301,124.32 124.911,116.422 93.731,100.828 "
   transform="matrix(-1.1558957,0.30972132,-0.30972132,-1.1558957,-101.68834,-325.41457)" />

	<polygon
   id="polygon3849"
   points="92.06,99.867 96.528,116.844 98.918,120.508 97.981,103.234 "
   transform="matrix(-1.1558957,0.30972132,-0.30972132,-1.1558957,-101.68834,-325.41457)" />

	<polygon
   id="polygon3851"
   points="58.45,102.258 43.786,121.781 44.325,129.383 63.497,105.688 "
   transform="matrix(-1.1558957,0.30972132,-0.30972132,-1.1558957,-101.68834,-325.41457)" />

	<polygon
   id="polygon3853"
   points="44.06,96.789 7.224,99.125 0.997,102.5 44.083,101.195 "
   transform="matrix(-1.1558957,0.30972132,-0.30972132,-1.1558957,-101.68834,-325.41457)" />

	<polygon
   id="polygon3855"
   points="76.411,101.539 71.942,113.914 73.426,117.312 79.192,103.398 "
   transform="matrix(-1.1558957,0.30972132,-0.30972132,-1.1558957,-101.68834,-325.41457)" />

	<polygon
   id="polygon3857"
   points="57.13,102.922 73.426,117.312 70.692,111.992 59.95,100.75 "
   transform="matrix(-1.1558957,0.30972132,-0.30972132,-1.1558957,-101.68834,-325.41457)" />

	<polygon
   id="polygon3859"
   points="74.051,105.531 98.918,120.508 97.138,116.211 77.106,102.969 "
   transform="matrix(-1.1558957,0.30972132,-0.30972132,-1.1558957,-101.68834,-325.41457)" />

	<polygon
   id="polygon3861"
   points="95.083,57.891 103.388,26.477 100.872,28.445 90.458,58.812 "
   transform="matrix(-1.1558957,0.30972132,-0.30972132,-1.1558957,-101.68834,-325.41457)" />

</g>
  </g>
</svg>
