<?xml version="1.0" encoding="UTF-8" standalone="no"?>
<!-- Created with Inkscape (http://www.inkscape.org/) -->

<svg
   xmlns:dc="http://purl.org/dc/elements/1.1/"
   xmlns:cc="http://creativecommons.org/ns#"
   xmlns:rdf="http://www.w3.org/1999/02/22-rdf-syntax-ns#"
   xmlns:svg="http://www.w3.org/2000/svg"
   xmlns="http://www.w3.org/2000/svg"
   xmlns:sodipodi="http://sodipodi.sourceforge.net/DTD/sodipodi-0.dtd"
   xmlns:inkscape="http://www.inkscape.org/namespaces/inkscape"
   width="587.56812"
   height="274.35257"
   id="svg2862"
   version="1.1"
   inkscape:version="0.47 r22583"
   sodipodi:docname="New document 3">
  <defs
     id="defs2864">
    <inkscape:perspective
       sodipodi:type="inkscape:persp3d"
       inkscape:vp_x="0 : 526.18109 : 1"
       inkscape:vp_y="0 : 1000 : 0"
       inkscape:vp_z="744.09448 : 526.18109 : 1"
       inkscape:persp3d-origin="372.04724 : 350.78739 : 1"
       id="perspective2870" />
    <inkscape:perspective
       id="perspective2854"
       inkscape:persp3d-origin="0.5 : 0.33333333 : 1"
       inkscape:vp_z="1 : 0.5 : 1"
       inkscape:vp_y="0 : 1000 : 0"
       inkscape:vp_x="0 : 0.5 : 1"
       sodipodi:type="inkscape:persp3d" />
  </defs>
  <sodipodi:namedview
     id="base"
     pagecolor="#ffffff"
     bordercolor="#666666"
     borderopacity="1.0"
     inkscape:pageopacity="0.0"
     inkscape:pageshadow="2"
     inkscape:zoom="0.35"
     inkscape:cx="23.06977"
     inkscape:cy="14.319137"
     inkscape:document-units="px"
     inkscape:current-layer="layer1"
     showgrid="false"
     inkscape:window-width="1280"
     inkscape:window-height="999"
     inkscape:window-x="0"
     inkscape:window-y="0"
     inkscape:window-maximized="1" />
  <metadata
     id="metadata2867">
    <rdf:RDF>
      <cc:Work
         rdf:about="">
        <dc:format>image/svg+xml</dc:format>
        <dc:type
           rdf:resource="http://purl.org/dc/dcmitype/StillImage" />
        <dc:title></dc:title>
      </cc:Work>
    </rdf:RDF>
  </metadata>
  <g
     inkscape:label="Layer 1"
     inkscape:groupmode="layer"
     id="layer1"
     transform="translate(-351.93023,-272.32876)">
    <path
       d="m 450.63823,274.76831 c 20.8485,13.54575 41.56125,28.6785 58.43025,42.54662 3.75512,-16.28537 9.49987,-28.389 14.829,-40.53762 -27.76888,-5.49488 -50.10413,-5.57675 -73.25925,-2.009 z m -98.54675,92.79212 c 8.449,-35.04012 31.13325,-62.08262 62.09712,-80.21087 4.57338,24.75037 11.71988,46.84037 20.98913,65.84987 -12.06425,1.18625 -24.87788,2.69188 -38.44738,4.88163 -13.98362,2.256 -28.86025,5.2635 -44.63887,9.47937 z m 51.43312,-59.53037 c -13.15512,10.35212 -24.33225,22.80475 -29.19825,39.42525 14.25613,-3.61413 26.89588,-5.64625 37.963,-6.853 -4.23887,-10.48863 -6.58562,-21.43175 -8.76475,-32.57225 z m -51.59437,103.74799 c 10.91625,32.44288 30.75975,61.18513 66.09287,76.54925 1.979,-23.20475 6.30963,-43.18937 13.79413,-65.3605 -27.8365,-2.39462 -52.4615,-6.14087 -79.887,-11.18875 z m 23.5605,19.84325 c 7.20525,13.11125 14.782,25.4115 28.59087,33.95413 0.19425,-7.18088 2.00838,-16.46538 7.0785,-30.10888 -11.25637,-1.16262 -23.07925,-2.47537 -35.66937,-3.84525 z m 71.2385,66.09088 c 27.41,3.41212 47.77975,3.32175 72.359,-1.866 -9.01237,-11.88638 -13.77537,-25.02525 -19.287,-38.60675 -16.53237,13.93125 -34.36012,27.7955 -53.072,40.47275 z m 24.46088,-4.19 c 11.41262,0.439 22.33662,0.31812 32.80437,-0.224 -3.89662,-4.98363 -7.41375,-10.4485 -10.4255,-16.45613 -6.92325,6.06825 -14.41387,11.46263 -22.37887,16.68013 z m 75.27362,-6.99525 c 5.81287,-14.53563 10.00737,-28.7125 12.76588,-42.77975 9.21125,3.78387 17.59187,6.396 25.29712,7.87287 -8.556,13.18013 -21.27688,24.66963 -38.063,34.90688 z m 11.15938,-12.62588 c 2.469,-5.812 4.09925,-11.16662 5.51899,-16.33037 3.65676,0.77775 7.23588,1.377 10.79263,1.35787 -4.90038,5.20113 -10.26812,10.25813 -16.31162,14.9725 z M 543.01373,284.28106 c 5.9095,15.3875 10.29212,29.92812 12.966,43.85475 8.85687,-3.88738 17.71262,-7.042 27.035,-9.11475 -8.264,-12.144 -20.70312,-24.45063 -40.001,-34.74 z m 11.29925,11.7265 c 2.5125,6.35137 4.709,12.52212 6.06462,18.53825 3.97988,-1.39175 8.218,-1.90625 12.324,-2.26875 -5.06687,-5.33663 -11.267,-10.72563 -18.38862,-16.2695 z m -76.00437,-14.7075 c 9.6615,-1.9545 20.228,-2.036 31.30937,-0.59813 -2.77975,5.484 -5.951,10.85463 -8.1925,17.07838 -7.33775,-6.19613 -15.0445,-11.23975 -23.11687,-16.48025"
       style="fill:#26b50a;fill-opacity:1;fill-rule:evenodd;stroke:none"
       id="path34" />
    <path
       d="m 530.1961,323.36581 c 13.24388,2.9665 25.62451,9.18675 34.6405,16.75387 -7.34924,-5.19025 -11.79649,-8.2645 -26.49625,-11.36062 -14.69937,-3.09575 -39.77962,-0.614 -56.346,9.45462 -18.523,11.25813 -30.98375,29.97175 -30.69137,51.86025 0.29225,21.888 13.17325,39.73287 31.77563,49.93012 16.59049,9.09463 41.35999,10.33725 55.82587,6.66463 14.46587,-3.67263 18.88475,-6.891 26.11875,-12.28038 -8.872,7.8225 -21.06775,14.37763 -34.10425,17.87625 -13.03663,3.49875 -19.90388,3.33363 -31.15,2.5105 -11.53662,-0.84437 -23.37237,-3.61625 -33.12637,-8.52775 -22.00351,-11.07987 -37.44638,-30.978 -37.83888,-55.68012 -0.39225,-24.70225 14.5105,-45.67537 36.42475,-57.96537 9.78775,-5.48963 21.70875,-8.84125 33.38087,-10.26638 11.38738,-1.39037 18.34263,-1.936 31.58675,1.03038"
       style="fill:#0070ff;fill-opacity:1;fill-rule:evenodd;stroke:none"
       id="path36" />
    <path
       d="m 539.63335,371.03993 -21.17087,1.159 c -0.47738,-6.35837 -4.02313,-9.54562 -10.63663,-9.54562 -2.71075,0 -4.77325,0.57937 -6.22212,1.72175 -1.44888,1.159 -2.182,2.52237 -2.182,4.12475 0,1.15937 0.59675,2.26737 1.75575,3.324 1.15937,1.03987 3.921,2.38674 8.28462,4.02299 5.54,2.131 10.023,4.14213 13.48338,6.03425 3.46,1.90913 6.28962,4.36363 8.489,7.39775 2.19863,3.0345 3.307,6.80138 3.307,11.33575 0,4.2615 -1.19338,8.23325 -3.57988,11.915 -2.36937,3.66488 -5.81275,6.69938 -10.27875,9.08575 -4.48337,2.3695 -10.84137,3.5625 -19.10862,3.5625 -11.60825,0 -19.8585,-2.233 -24.71638,-6.682 -4.85825,-4.466 -7.296,-10.19375 -7.296,-17.1825 l 0,-1.70437 21.27325,-1.44925 c 0,4.56837 1.006,7.79037 3.0345,9.66512 2.0115,1.8925 4.78988,2.82963 8.35225,2.82963 3.59688,0 6.34113,-0.78375 8.21625,-2.35238 1.89213,-1.56787 2.82975,-3.34062 2.82975,-5.33512 0,-1.50025 -0.59675,-2.881 -1.80712,-4.15913 -1.193,-1.26137 -4.14175,-2.74462 -8.82963,-4.432 -10.756,-3.86962 -17.55737,-7.432 -20.40412,-10.688 -2.84662,-3.27262 -4.2785,-7.19325 -4.2785,-11.79562 0,-4.1935 1.17638,-8.0115 3.52838,-11.48925 2.3525,-3.46 5.76187,-6.13625 10.24474,-8.06237 4.466,-1.90913 9.83563,-2.86375 16.09163,-2.86375 19.8075,0 30.359,7.19325 31.62012,21.56312 z m 76.60488,-20.319 -3.34137,15.73363 -37.16,0 -2.45488,11.64224 35.814,0 -3.29,14.82975 -35.7625,0 -3.10225,14.31888 40.31362,0 -3.59675,16.688 -62.88237,0 15.63087,-73.2125 59.83163,0 z m 78.25787,0 -3.74987,17.98363 -23.76213,0 -11.9495,55.22887 -22.72212,0 11.898,-55.22887 -22.72213,0 3.78425,-17.98363 69.2235,0 z m 9.631,0 41.6605,0 c 7.17663,0 12.44338,1.875 15.76763,5.64225 3.341,3.767 4.99437,8.28425 4.99437,13.5855 0,5.72737 -1.75575,10.722 -5.28412,15.0005 -3.52888,4.27862 -9.17088,7.02325 -16.92675,8.21625 4.58537,3.73325 10.07425,13.99462 16.46612,30.768 l -23.91525,0 c -1.9945,-5.30113 -4.34687,-11.07963 -7.05687,-17.35263 -2.72725,-6.27312 -4.75575,-9.921 -6.11963,-10.9095 -1.36375,-1.00562 -3.01712,-1.49987 -4.94362,-1.49987 l -1.21,0 -6.23875,29.762 -22.72213,0 15.5285,-73.2125 z m 16.3815,29.76225 4.29513,0 c 7.19363,0 11.84713,-0.32375 13.961,-0.9885 2.11362,-0.66513 3.68187,-1.79013 4.7215,-3.375 1.02287,-1.58525 1.55125,-3.1025 1.55125,-4.56837 0,-1.87513 -0.61338,-3.341 -1.85813,-4.398 -1.22712,-1.074 -3.90337,-1.60225 -8.0285,-1.60225 l -11.48912,0 -3.15313,14.93212 z m 123.00376,-29.76225 -3.34101,15.73363 -37.1605,0 -2.45437,11.64224 35.81362,0 -3.29,14.82975 -35.76225,0 -3.1025,14.31888 40.31363,0 -3.5965,16.688 -62.88263,0 15.63088,-73.2125 59.83162,0 z m 95.98599,0 -15.78462,73.2125 -18.81863,0 13.53438,-55.928 -0.30675,0 -27.12013,55.928 -16.67099,0 -3.1535,-55.928 -0.20438,0 -10.53463,55.928 -18.81887,0 15.63125,-73.2125 27.61437,0 2.74438,46.39925 0.20475,0 23.2165,-46.39925 28.46687,0 z"
       style="fill:#26b80a;fill-opacity:1;fill-rule:nonzero;stroke:none"
       id="path38" />
    <path
       d="m 352.87485,528.64205 c 0,-1.57012 0.242,-3.23262 0.71363,-4.97662 0.614,-2.33925 1.55762,-4.3685 2.82325,-6.09375 1.26612,-1.71888 2.867,-3.07775 4.79062,-4.077 1.92963,-1.00525 4.1205,-1.502 6.58375,-1.502 3.295,0 5.95738,1.02437 7.98663,3.07212 2.03525,2.04725 3.04662,4.76538 3.04662,8.14138 0,2.81737 -0.65775,5.535 -1.97937,8.16625 -1.32163,2.631 -3.11488,4.65412 -5.38013,6.069 -2.27125,1.42087 -4.83412,2.1285 -7.69462,2.1285 -2.48213,0 -4.567,-0.56475 -6.25538,-1.688 -1.68162,-1.12963 -2.87262,-2.52538 -3.58012,-4.195 -0.70125,-1.66288 -1.05488,-3.3445 -1.05488,-5.04488 z m 5.41738,-0.10562 c 0,1.83087 0.55837,3.36362 1.67525,4.5985 1.11687,1.2345 2.58125,1.85525 4.39975,1.85525 1.47687,0 2.89775,-0.49 4.26287,-1.46438 1.36525,-0.97412 2.4885,-2.45137 3.38213,-4.437 0.88725,-1.97925 1.33412,-3.90937 1.33412,-5.78937 0,-2.09763 -0.56487,-3.74213 -1.68775,-4.93375 -1.12925,-1.19725 -2.56325,-1.79325 -4.31287,-1.79325 -2.6745,0 -4.85263,1.24762 -6.53425,3.74812 -1.67525,2.4945 -2.51925,5.23138 -2.51925,8.21588 z m 45.21862,3.28887 5.06975,0.81925 c -0.83762,2.25275 -2.07287,3.97163 -3.71087,5.1445 -1.63213,1.17888 -3.531,1.7625 -5.69063,1.7625 -2.45725,0 -4.41212,-0.73275 -5.85137,-2.19725 -1.44,-1.4705 -2.16563,-3.487 -2.16563,-6.05625 0,-2.09762 0.44038,-4.07687 1.30925,-5.945 0.87475,-1.86725 2.19038,-3.33237 3.9465,-4.40575 1.75638,-1.0735 3.68613,-1.6135 5.78338,-1.6135 2.27762,0 4.09575,0.59588 5.45487,1.7875 1.35288,1.18488 2.11613,2.74888 2.28975,4.685 l -4.9645,0.52763 c -0.12412,-1.074 -0.45287,-1.868 -0.9925,-2.37688 -0.54,-0.50887 -1.24125,-0.76325 -2.11612,-0.76325 -1.0055,0 -1.94875,0.37238 -2.81763,1.12325 -0.87487,0.75088 -1.54487,1.874 -2.0105,3.37538 -0.4655,1.49562 -0.70087,2.89837 -0.70087,4.20762 0,1.13525 0.27887,2.01688 0.83737,2.63725 0.55875,0.6145 1.25363,0.9245 2.09125,0.9245 0.838,0 1.64438,-0.304 2.42,-0.906 0.77563,-0.608 1.37775,-1.5205 1.8185,-2.7305 z m 8.37738,-0.74475 c 0,-3.57387 1.011,-6.42862 3.02775,-8.55112 2.01687,-2.1285 4.673,-3.19563 7.95587,-3.19563 2.84813,0 5.06975,0.78838 6.67063,2.35838 1.60087,1.56962 2.40162,3.67975 2.40162,6.33537 0,3.12775 -0.99925,5.827 -3.00325,8.10425 -1.9985,2.28375 -4.67937,3.41975 -8.03625,3.41975 -1.81812,0 -3.42537,-0.36 -4.83412,-1.0925 -1.40213,-0.726 -2.451,-1.756 -3.14613,-3.09037 -0.6885,-1.32775 -1.03612,-2.761 -1.03612,-4.28813 z m 14.87412,-3.729 c 0,-1.23525 -0.36,-2.22162 -1.086,-2.9725 -0.71962,-0.74475 -1.6505,-1.11725 -2.78612,-1.11725 -1.12925,0 -2.1285,0.34763 -3.00325,1.04888 -0.86925,0.69487 -1.55163,1.7065 -2.03563,3.0345 -0.48375,1.328 -0.72612,2.5505 -0.72612,3.66125 0,1.38375 0.3785,2.48212 1.12925,3.295 0.75125,0.80675 1.6945,1.21637 2.83612,1.21637 1.42763,0 2.63088,-0.61437 3.59888,-1.83687 1.378,-1.73125 2.07287,-3.84125 2.07287,-6.32938 z m 11.21313,-7.55862 4.94575,0 -0.50875,2.50725 c 1.23475,-1.06725 2.38925,-1.82438 3.4625,-2.28363 1.07362,-0.45287 2.20325,-0.68275 3.3945,-0.68275 1.5885,0 2.83562,0.45913 3.75412,1.36513 0.91238,0.91275 1.37125,2.11612 1.37125,3.61812 0,0.68238 -0.19837,1.96725 -0.60125,3.85338 l -2.27137,10.92787 -5.21925,0 2.29,-10.96512 c 0.34125,-1.632 0.50887,-2.61213 0.50887,-2.9225 0,-0.67038 -0.19237,-1.19163 -0.58962,-1.57638 -0.39075,-0.3785 -0.94325,-0.57087 -1.64413,-0.57087 -0.76312,0 -1.61362,0.3225 -2.54437,0.96162 -0.93688,0.64563 -1.66925,1.496 -2.20288,2.5445 -0.38487,0.75688 -0.81887,2.29 -1.30925,4.60413 l -1.65087,7.92462 -5.21888,0 4.03363,-19.30537 z m 23.92837,19.30537 -5.21937,0 5.579,-26.65237 5.21887,0 -1.99837,9.48825 c 1.17325,-0.91838 2.27125,-1.58275 3.28887,-1.98563 1.01763,-0.41 2.11013,-0.61475 3.2765,-0.61475 1.55763,0 2.7985,0.45313 3.7045,1.34675 0.9125,0.9 1.36525,2.0725 1.36525,3.53088 0,0.77562 -0.16725,1.97325 -0.50875,3.59937 l -2.36375,11.2875 -5.21937,0 2.42012,-11.51075 c 0.25438,-1.24762 0.37875,-2.04812 0.37875,-2.39562 0,-0.64563 -0.19837,-1.1605 -0.59562,-1.54488 -0.4035,-0.39125 -0.94963,-0.58362 -1.638,-0.58362 -0.87525,0 -1.70688,0.304 -2.50725,0.906 -1.04288,0.8005 -1.83688,1.78687 -2.38287,2.94737 -0.304,0.6455 -0.70125,2.15363 -1.19763,4.5305 l -1.60088,7.651 z m 36.25188,-8.03625 -13.0935,0 c -0.0125,0.20488 -0.0185,0.366 -0.0185,0.47163 0,1.28487 0.366,2.32087 1.0985,3.10925 0.738,0.78775 1.632,1.18487 2.68687,1.18487 1.73125,0 3.08375,-0.89925 4.05213,-2.69287 l 4.6725,0.782 c -0.912,1.88012 -2.12213,3.28887 -3.64888,4.22575 -1.52012,0.94325 -3.22687,1.40887 -5.11299,1.40887 -2.59438,0 -4.70375,-0.81925 -6.32975,-2.46412 -1.61963,-1.638 -2.4325,-3.80975 -2.4325,-6.51575 0,-2.64325 0.732,-4.995 2.19687,-7.05538 1.998,-2.78612 4.8525,-4.1825 8.56313,-4.1825 2.36437,0 4.24487,0.73238 5.63487,2.19075 1.39613,1.4645 2.09125,3.50613 2.09125,6.137 0,1.26 -0.118,2.39525 -0.36,3.4005 z m -4.39975,-3.18325 c 0.0125,-0.22925 0.0125,-0.40325 0.0125,-0.52725 0,-1.42725 -0.3165,-2.50125 -0.962,-3.2145 -0.63888,-0.71362 -1.50138,-1.07362 -2.58138,-1.07362 -1.07962,0 -2.04162,0.40325 -2.89775,1.216 -0.85637,0.81325 -1.43362,2.01687 -1.73762,3.59937 l 8.16625,0 z m 19.39825,3.9465 5.06975,0.81925 c -0.83763,2.25275 -2.07288,3.97163 -3.71088,5.1445 -1.63212,1.17888 -3.53087,1.7625 -5.69025,1.7625 -2.45762,0 -4.4125,-0.73275 -5.85175,-2.19725 -1.44,-1.4705 -2.16562,-3.487 -2.16562,-6.05625 0,-2.09762 0.44037,-4.07687 1.30925,-5.945 0.87475,-1.86725 2.19037,-3.33237 3.9465,-4.40575 1.75637,-1.0735 3.68612,-1.6135 5.78337,-1.6135 2.27763,0 4.09575,0.59588 5.45488,1.7875 1.35287,1.18488 2.11612,2.74888 2.28975,4.685 l -4.9645,0.52763 c -0.124,-1.074 -0.45288,-1.868 -0.9925,-2.37688 -0.54,-0.50887 -1.24125,-0.76325 -2.11613,-0.76325 -1.0055,0 -1.94875,0.37238 -2.81762,1.12325 -0.87475,0.75088 -1.54488,1.874 -2.0105,3.37538 -0.4655,1.49562 -0.70075,2.89837 -0.70075,4.20762 0,1.13525 0.27875,2.01688 0.83725,2.63725 0.55875,0.6145 1.25362,0.9245 2.09125,0.9245 0.838,0 1.64437,-0.304 2.42012,-0.906 0.77588,-0.608 1.37763,-1.5205 1.81838,-2.7305 z m 13.18037,-19.37937 5.21863,0 -0.98688,4.7285 -5.2125,0 0.98075,-4.7285 z m -1.52675,7.347 5.2125,0 -4.03337,19.30537 -5.2185,0 4.03937,-19.30537 z m 10.17663,0 4.90862,0 -0.49012,2.346 c 1.91775,-1.868 3.92812,-2.80513 6.03787,-2.80513 1.45238,0 2.57525,0.304 3.36325,0.91275 0.78838,0.60763 1.29088,1.43925 1.50813,2.5065 0.664,-0.96775 1.62562,-1.78087 2.87325,-2.4325 1.24725,-0.65762 2.544,-0.98675 3.89087,-0.98675 1.5385,0 2.7365,0.41588 3.59888,1.24113 0.8625,0.81925 1.2905,1.91162 1.2905,3.2705 0,0.664 -0.16725,1.81837 -0.50875,3.4565 l -2.47613,11.79637 -5.2125,0 2.47,-11.79637 c 0.304,-1.48363 0.45288,-2.31488 0.45288,-2.51325 0,-0.53363 -0.16125,-0.94963 -0.47763,-1.26 -0.32287,-0.31 -0.8065,-0.46525 -1.44612,-0.46525 -1.2965,0 -2.45688,0.68275 -3.4745,2.054 -0.73875,0.9805 -1.372,2.7245 -1.88688,5.219 l -1.83675,8.76187 -5.21862,0 2.4325,-11.67275 c 0.2795,-1.34612 0.422,-2.21487 0.422,-2.61812 0,-0.50875 -0.17363,-0.92513 -0.52125,-1.25363 -0.34163,-0.32912 -0.81925,-0.49037 -1.42725,-0.49037 -0.57088,0 -1.15438,0.16725 -1.76238,0.50887 -0.60812,0.34113 -1.13537,0.80675 -1.5885,1.40238 -0.45925,0.58925 -0.844,1.35287 -1.17325,2.28975 -0.14837,0.43475 -0.38437,1.42112 -0.70687,2.96037 l -1.85563,8.8735 -5.2185,0 4.03288,-19.30537 z m 48.03637,11.26912 -13.09325,0 c -0.0127,0.20488 -0.0189,0.366 -0.0189,0.47163 0,1.28487 0.36637,2.32087 1.0985,3.10925 0.73837,0.78775 1.632,1.18487 2.68687,1.18487 1.73125,0 3.08413,-0.89925 4.05213,-2.69287 l 4.67287,0.782 c -0.912,1.88012 -2.12199,3.28887 -3.64925,4.22575 -1.52,0.94325 -3.2265,1.40887 -5.113,1.40887 -2.59399,0 -4.70337,-0.81925 -6.32974,-2.46412 -1.61963,-1.638 -2.4325,-3.80975 -2.4325,-6.51575 0,-2.64325 0.7325,-4.995 2.19725,-7.05538 1.99775,-2.78612 4.85262,-4.1825 8.56312,-4.1825 2.3645,0 4.24488,0.73238 5.6345,2.19075 1.3965,1.4645 2.09163,3.50613 2.09163,6.137 0,1.26 -0.11825,2.39525 -0.36025,3.4005 z m -4.39975,-3.18325 c 0.0128,-0.22925 0.0128,-0.40325 0.0128,-0.52725 0,-1.42725 -0.31675,-2.50125 -0.962,-3.2145 -0.63925,-0.71362 -1.50175,-1.07362 -2.58137,-1.07362 -1.08,0 -2.042,0.40325 -2.89763,1.216 -0.8565,0.81325 -1.434,2.01687 -1.738,3.59937 l 8.16625,0 z m 10.41263,-8.08587 4.94575,0 -0.50875,2.50725 c 1.23488,-1.06725 2.38925,-1.82438 3.4625,-2.28363 1.07362,-0.45287 2.20325,-0.68275 3.3945,-0.68275 1.58887,0 2.83575,0.45913 3.75412,1.36513 0.91275,0.91275 1.37125,2.11612 1.37125,3.61812 0,0.68238 -0.198,1.96725 -0.60125,3.85338 l -2.27125,10.92787 -5.219,0 2.28975,-10.96512 c 0.3415,-1.632 0.50875,-2.61213 0.50875,-2.9225 0,-0.67038 -0.19237,-1.19163 -0.58962,-1.57638 -0.39038,-0.3785 -0.94288,-0.57087 -1.644,-0.57087 -0.76325,0 -1.61363,0.3225 -2.54413,0.96162 -0.93725,0.64563 -1.66925,1.496 -2.20325,2.5445 -0.3845,0.75688 -0.81887,2.29 -1.30925,4.60413 l -1.6505,7.92462 -5.21925,0 4.03363,-19.30537 z m 19.94425,3.8725 0.8005,-3.8725 2.54437,0 0.63926,-3.09013 5.98174,-3.59925 -1.40237,6.68938 3.18325,0 -0.80038,3.8725 -3.20212,0 -1.68763,8.08587 c -0.30399,1.47038 -0.45287,2.302 -0.45287,2.51288 0,0.39725 0.124,0.70725 0.37838,0.93725 0.25449,0.22312 0.71337,0.33512 1.38412,0.33512 0.22925,0 0.80637,-0.0435 1.72488,-0.13037 l -0.81888,3.87175 c -0.894,0.18637 -1.8185,0.27362 -2.76162,0.27362 -1.84288,0 -3.18338,-0.354 -4.021,-1.06125 -0.83163,-0.70762 -1.25363,-1.69437 -1.25363,-2.95375 0,-0.596 0.22325,-1.96725 0.67638,-4.1085 l 1.61337,-7.76262 -2.52575,0 z m 11.85237,7.41512 c 0,-3.57387 1.01126,-6.42862 3.02813,-8.55112 2.01687,-2.1285 4.6725,-3.19563 7.95538,-3.19563 2.84849,0 5.06987,0.78838 6.67099,2.35838 1.60088,1.56962 2.40175,3.67975 2.40175,6.33537 0,3.12775 -0.99924,5.827 -3.00375,8.10425 -1.998,2.28375 -4.67887,3.41975 -8.03624,3.41975 -1.81763,0 -3.42488,-0.36 -4.83376,-1.0925 -1.40237,-0.726 -2.45087,-1.756 -3.14612,-3.09037 -0.68875,-1.32775 -1.03638,-2.761 -1.03638,-4.28813 z m 14.87451,-3.729 c 0,-1.23525 -0.36001,-2.22162 -1.08613,-2.9725 -0.72,-0.74475 -1.65037,-1.11725 -2.786,-1.11725 -1.12963,0 -2.1285,0.34763 -3.00375,1.04888 -0.86875,0.69487 -1.55125,1.7065 -2.03525,3.0345 -0.48363,1.328 -0.726,2.5505 -0.726,3.66125 0,1.38375 0.37838,2.48212 1.12925,3.295 0.75112,0.80675 1.69438,1.21637 2.836,1.21637 1.42725,0 2.631,-0.61437 3.599,-1.83687 1.37763,-1.73125 2.07288,-3.84125 2.07288,-6.32938 z m 30.90287,-7.55862 -0.80038,3.8165 -3.68612,0 -3.23925,15.48887 -5.21863,0 3.23926,-15.48887 -2.91075,0 0.80075,-3.8165 2.91049,0 0.41563,-1.98563 c 0.3415,-1.61962 0.658,-2.71775 0.962,-3.28887 0.41563,-0.77563 1.02962,-1.38975 1.84925,-1.84288 0.81925,-0.45925 1.8865,-0.68287 3.20813,-0.68287 1.60125,0 3.2825,0.292 5.05137,0.86925 l -1.01775,3.72925 c -1.2475,-0.422 -2.25875,-0.63913 -3.0345,-0.63913 -0.59587,0 -1.03637,0.19238 -1.32837,0.56475 -0.192,0.24163 -0.39038,0.88088 -0.60201,1.91088 l -0.29125,1.36525 3.69213,0 z m 6.31062,5.467 -5.09412,-0.434 c 0.58287,-1.71888 1.6005,-3.06575 3.0465,-4.03375 1.45237,-0.968 3.36938,-1.45838 5.75225,-1.45838 2.48875,0 4.32563,0.50275 5.5105,1.502 1.19163,0.99913 1.78125,2.22163 1.78125,3.66088 0,0.58362 -0.0496,1.204 -0.15562,1.85562 -0.0991,0.65763 -0.45851,2.3765 -1.07963,5.163 -0.50875,2.30238 -0.76325,3.91538 -0.76325,4.84013 0,0.81925 0.14288,1.73762 0.43475,2.74287 l -5.06975,0 c -0.20512,-0.70125 -0.33512,-1.42725 -0.38475,-2.18412 -0.76325,0.85012 -1.63875,1.50137 -2.63125,1.9545 -0.99925,0.45887 -1.9985,0.68287 -3.00337,0.68287 -1.60113,0 -2.92288,-0.52125 -3.96563,-1.57012 -1.03612,-1.04875 -1.55762,-2.39525 -1.55762,-4.04613 0,-1.84312 0.57112,-3.31325 1.71287,-4.41812 1.148,-1.10438 3.19563,-1.76838 6.137,-1.99838 2.48875,-0.20487 4.14525,-0.45287 4.98325,-0.74487 0.21725,-0.732 0.32913,-1.30888 0.32913,-1.74963 0,-0.552 -0.22988,-1.02362 -0.67675,-1.39637 -0.44675,-0.37813 -1.11075,-0.5645 -1.998,-0.5645 -0.93088,0 -1.66925,0.19237 -2.20925,0.57087 -0.54,0.38475 -0.90601,0.92475 -1.09851,1.62563 z m 4.96463,4.8405 c -0.3165,0.0808 -0.7385,0.16125 -1.26,0.236 -2.61212,0.31637 -4.325,0.77525 -5.1255,1.38362 -0.57075,0.43438 -0.85037,1.02375 -0.85037,1.7625 0,0.60163 0.21762,1.11688 0.65162,1.5325 0.43475,0.42225 1.01163,0.62638 1.72525,0.62638 0.788,0 1.53288,-0.18563 2.22763,-0.5705 0.70125,-0.37838 1.22287,-0.87475 1.56375,-1.47075 0.34762,-0.602 0.65162,-1.53888 0.91837,-2.81088 l 0.14925,-0.68887 z m 7.50862,8.99787 0.74438,-3.52487 10.58063,-11.70963 -8.63813,0 0.85637,-4.07087 15.14125,0 -0.63312,3.10925 -10.6735,11.976 9.28975,0 -0.88763,4.22012 -15.78,0 z m 37.19475,-13.83837 -5.09425,-0.434 c 0.58288,-1.71888 1.6005,-3.06575 3.04663,-4.03375 1.45237,-0.968 3.36962,-1.45838 5.7525,-1.45838 2.4885,0 4.32537,0.50275 5.5105,1.502 1.19125,0.99913 1.78087,2.22163 1.78087,3.66088 0,0.58362 -0.0496,1.204 -0.15512,1.85562 -0.0992,0.65763 -0.45888,2.3765 -1.08,5.163 -0.50888,2.30238 -0.76325,3.91538 -0.76325,4.84013 0,0.81925 0.14275,1.73762 0.43475,2.74287 l -5.06975,0 c -0.20475,-0.70125 -0.33525,-1.42725 -0.38475,-2.18412 -0.76325,0.85012 -1.6385,1.50137 -2.63137,1.9545 -0.99913,0.45887 -1.998,0.68287 -3.00325,0.68287 -1.60125,0 -2.92288,-0.52125 -3.96563,-1.57012 -1.03612,-1.04875 -1.55737,-2.39525 -1.55737,-4.04613 0,-1.84312 0.57087,-3.31325 1.7125,-4.41812 1.148,-1.10438 3.19612,-1.76838 6.13737,-1.99838 2.4885,-0.20487 4.14538,-0.45287 4.983,-0.74487 0.2175,-0.732 0.32913,-1.30888 0.32913,-1.74963 0,-0.552 -0.23,-1.02362 -0.67675,-1.39637 -0.44688,-0.37813 -1.11088,-0.5645 -1.99813,-0.5645 -0.93075,0 -1.66925,0.19237 -2.20925,0.57087 -0.54,0.38475 -0.906,0.92475 -1.09837,1.62563 z m 4.96488,4.8405 c -0.31675,0.0808 -0.73875,0.16125 -1.26,0.236 -2.6125,0.31637 -4.32538,0.77525 -5.12575,1.38362 -0.57087,0.43438 -0.85,1.02375 -0.85,1.7625 0,0.60163 0.21713,1.11688 0.65125,1.5325 0.43475,0.42225 1.01163,0.62638 1.7255,0.62638 0.78775,0 1.5325,-0.18563 2.22775,-0.5705 0.70088,-0.37838 1.22238,-0.87475 1.56325,-1.47075 0.34763,-0.602 0.65163,-1.53888 0.91888,-2.81088 l 0.14912,-0.68887 z m 36.556,8.99787 -4.94575,0 0.44075,-2.09162 c -0.94962,0.91275 -1.8805,1.56437 -2.7925,1.95487 -0.91237,0.39725 -1.94887,0.59 -3.10287,0.59 -1.99813,0 -3.61775,-0.68287 -4.85888,-2.04175 -1.24087,-1.36525 -1.86137,-3.382 -1.86137,-6.04412 0,-3.0965 0.8685,-5.889 2.61212,-8.38388 1.75,-2.4945 4.05813,-3.748 6.93137,-3.748 2.59375,0 4.53651,1.03038 5.83301,3.09075 l 2.09162,-9.97862 5.21862,0 -5.56612,26.65237 z m -12.05088,-7.85587 c 0,1.38362 0.34763,2.46337 1.04213,3.239 0.70125,0.77562 1.55763,1.16 2.57525,1.16 0.94363,0 1.8245,-0.32238 2.64363,-0.96725 0.81924,-0.65163 1.4705,-1.64488 1.967,-2.9725 0.49037,-1.33438 0.73275,-2.61288 0.73275,-3.84138 0,-1.39037 -0.37275,-2.51962 -1.12325,-3.376 -0.75725,-0.8625 -1.61963,-1.2905 -2.6005,-1.2905 -1.52638,0 -2.78613,0.84363 -3.7665,2.54413 -0.98038,1.694 -1.4705,3.53087 -1.4705,5.5045 z m 22.52551,-18.7965 5.21862,0 -0.98675,4.7285 -5.21262,0 0.98075,-4.7285 z m -1.52638,7.347 5.2125,0 -4.03362,19.30537 -5.21863,0 4.03975,-19.30537 z m 19.75775,0 -0.80038,3.8165 -3.68612,0 -3.23925,15.48887 -5.21863,0 3.23926,-15.48887 -2.91038,0 0.80075,-3.8165 2.91013,0 0.41562,-1.98563 c 0.34163,-1.61962 0.658,-2.71775 0.962,-3.28887 0.41563,-0.77563 1.02963,-1.38975 1.84925,-1.84288 0.81925,-0.45925 1.8865,-0.68287 3.20813,-0.68287 1.60125,0 3.2825,0.292 5.05137,0.86925 l -1.01775,3.72925 c -1.2475,-0.422 -2.25875,-0.63913 -3.03437,-0.63913 -0.596,0 -1.0365,0.19238 -1.32813,0.56475 -0.19237,0.24163 -0.39075,0.88088 -0.602,1.91088 l -0.29162,1.36525 3.69212,0 z m 17.74775,11.26912 -13.09362,0 c -0.0125,0.20488 -0.0188,0.366 -0.0188,0.47163 0,1.28487 0.36637,2.32087 1.0985,3.10925 0.73837,0.78775 1.632,1.18487 2.68687,1.18487 1.73125,0 3.084,-0.89925 4.05213,-2.69287 l 4.67287,0.782 c -0.912,1.88012 -2.12212,3.28887 -3.64925,4.22575 -1.51975,0.94325 -3.2265,1.40887 -5.11262,1.40887 -2.59438,0 -4.70375,-0.81925 -6.33013,-2.46412 -1.61962,-1.638 -2.4325,-3.80975 -2.4325,-6.51575 0,-2.64325 0.73237,-4.995 2.19725,-7.05538 1.99775,-2.78612 4.8525,-4.1825 8.56313,-4.1825 2.36437,0 4.24487,0.73238 5.6345,2.19075 1.3965,1.4645 2.09162,3.50613 2.09162,6.137 0,1.26 -0.11837,2.39525 -0.36,3.4005 z m -4.39975,-3.18325 c 0.0125,-0.22925 0.0125,-0.40325 0.0125,-0.52725 0,-1.42725 -0.3165,-2.50125 -0.96212,-3.2145 -0.63913,-0.71362 -1.50163,-1.07362 -2.58125,-1.07362 -1.08,0 -2.042,0.40325 -2.89775,1.216 -0.85638,0.81325 -1.43388,2.01687 -1.738,3.59937 l 8.16662,0 z m 10.05275,-8.08587 4.871,0 -0.78162,3.74212 c 1.818,-2.7985 3.78525,-4.20125 5.90775,-4.20125 0.75075,0 1.55762,0.19238 2.41975,0.56513 l -2.00413,4.27537 c -0.47162,-0.17362 -0.97412,-0.2545 -1.508,-0.2545 -0.89362,0 -1.80612,0.33525 -2.7365,1.01763 -0.9245,0.67612 -1.65087,1.58212 -2.17212,2.71812 -0.52125,1.12925 -1.03601,2.92888 -1.54488,5.38613 l -1.272,6.05662 -5.21938,0 4.04013,-19.30537 z m 29.54413,11.26912 -13.09363,0 c -0.0125,0.20488 -0.0184,0.366 -0.0184,0.47163 0,1.28487 0.366,2.32087 1.09837,3.10925 0.73813,0.78775 1.63213,1.18487 2.68687,1.18487 1.73126,0 3.08413,-0.89925 4.05213,-2.69287 l 4.67262,0.782 c -0.91212,1.88012 -2.12212,3.28887 -3.64887,4.22575 -1.52013,0.94325 -3.227,1.40887 -5.113,1.40887 -2.59413,0 -4.70375,-0.81925 -6.32975,-2.46412 -1.61975,-1.638 -2.4325,-3.80975 -2.4325,-6.51575 0,-2.64325 0.732,-4.995 2.19675,-7.05538 1.99812,-2.78612 4.85262,-4.1825 8.56313,-4.1825 2.36449,0 4.24487,0.73238 5.63499,2.19075 1.396,1.4645 2.09125,3.50613 2.09125,6.137 0,1.26 -0.118,2.39525 -0.36,3.4005 z m -4.39975,-3.18325 c 0.0125,-0.22925 0.0125,-0.40325 0.0125,-0.52725 0,-1.42725 -0.31638,-2.50125 -0.962,-3.2145 -0.63888,-0.71362 -1.50125,-1.07362 -2.58125,-1.07362 -1.07963,0 -2.04163,0.40325 -2.89775,1.216 -0.85638,0.81325 -1.43363,2.01687 -1.73763,3.59937 l 8.16625,0 z m 10.41275,-8.08587 4.94537,0 -0.50887,2.50725 c 1.23525,-1.06725 2.38962,-1.82438 3.46287,-2.28363 1.07363,-0.45287 2.20288,-0.68275 3.3945,-0.68275 1.5885,0 2.83575,0.45913 3.75413,1.36513 0.9125,0.91275 1.37125,2.11612 1.37125,3.61812 0,0.68238 -0.19838,1.96725 -0.60163,3.85338 l -2.27125,10.92787 -5.21887,0 2.28962,-10.96512 c 0.34163,-1.632 0.50888,-2.61213 0.50888,-2.9225 0,-0.67038 -0.19213,-1.19163 -0.58925,-1.57638 -0.39088,-0.3785 -0.94325,-0.57087 -1.6445,-0.57087 -0.76325,0 -1.61363,0.3225 -2.54413,0.96162 -0.93687,0.64563 -1.66925,1.496 -2.20287,2.5445 -0.38475,0.75688 -0.81913,2.29 -1.30925,4.60413 l -1.65075,7.92462 -5.219,0 4.03375,-19.30537 z m 31.7285,12.03237 5.06975,0.81925 c -0.838,2.25275 -2.07276,3.97163 -3.71125,5.1445 -1.632,1.17888 -3.53051,1.7625 -5.69013,1.7625 -2.45775,0 -4.41212,-0.73275 -5.85187,-2.19725 -1.43963,-1.4705 -2.16525,-3.487 -2.16525,-6.05625 0,-2.09762 0.43999,-4.07687 1.30887,-5.945 0.87525,-1.86725 2.19088,-3.33237 3.9465,-4.40575 1.7565,-1.0735 3.68613,-1.6135 5.78375,-1.6135 2.27762,0 4.09575,0.59588 5.45463,1.7875 1.35275,1.18488 2.11599,2.74888 2.28999,4.685 l -4.96487,0.52763 c -0.124,-1.074 -0.4525,-1.868 -0.9925,-2.37688 -0.54,-0.50887 -1.24125,-0.76325 -2.116,-0.76325 -1.00562,0 -1.9485,0.37238 -2.81762,1.12325 -0.87488,0.75088 -1.54488,1.874 -2.01013,3.37538 -0.466,1.49562 -0.70125,2.89837 -0.70125,4.20762 0,1.13525 0.27888,2.01688 0.83725,2.63725 0.55913,0.6145 1.25363,0.9245 2.09163,0.9245 0.83762,0 1.64412,-0.304 2.42012,-0.906 0.77563,-0.608 1.37763,-1.5205 1.81838,-2.7305 z m -9.5815,14.78163 0.87525,-2.10363 1.03612,0.0124 c 1.03,0 2.01675,-0.14275 2.95962,-0.43438 0.59601,-0.18 0.99325,-0.39687 1.204,-0.64525 0.20488,-0.24837 0.30413,-0.50287 0.30413,-0.76962 0,-0.354 -0.16125,-0.65125 -0.47775,-0.89963 -0.32275,-0.24837 -0.86238,-0.37275 -1.62563,-0.37275 -0.39112,0 -0.93725,0.0499 -1.63837,0.16188 l 0.614,-1.8 c 0.87525,-0.21688 1.66925,-0.32875 2.38287,-0.32875 1.33438,0 2.346,0.29162 3.0285,0.87512 0.68275,0.58288 1.03038,1.2905 1.03038,2.1285 0,1.01763 -0.534,1.8985 -1.60125,2.64938 -1.48288,1.0675 -3.58688,1.60112 -6.32938,1.60112 -0.76325,0 -1.35287,-0.0247 -1.7625,-0.0744 z m 24.56087,-21.347 -5.09425,-0.434 c 0.58288,-1.71888 1.6005,-3.06575 3.0465,-4.03375 1.4525,-0.968 3.36938,-1.45838 5.75263,-1.45838 2.48837,0 4.32525,0.50275 5.51012,1.502 1.19163,0.99913 1.78125,2.22163 1.78125,3.66088 0,0.58362 -0.0496,1.204 -0.15512,1.85562 -0.0992,0.65763 -0.45888,2.3765 -1.08,5.163 -0.50888,2.30238 -0.76325,3.91538 -0.76325,4.84013 0,0.81925 0.14275,1.73762 0.43475,2.74287 l -5.06975,0 c -0.20488,-0.70125 -0.33525,-1.42725 -0.38488,-2.18412 -0.76325,0.85012 -1.63837,1.50137 -2.63125,1.9545 -0.99912,0.45887 -1.99837,0.68287 -3.00325,0.68287 -1.60125,0 -2.92287,-0.52125 -3.96575,-1.57012 -1.036,-1.04875 -1.55762,-2.39525 -1.55762,-4.04613 0,-1.84312 0.57125,-3.31325 1.71287,-4.41812 1.148,-1.10438 3.19575,-1.76838 6.13738,-1.99838 2.4885,-0.20487 4.145,-0.45287 4.98287,-0.74487 0.21725,-0.732 0.32925,-1.30888 0.32925,-1.74963 0,-0.552 -0.23,-1.02362 -0.67675,-1.39637 -0.44687,-0.37813 -1.11087,-0.5645 -1.99812,-0.5645 -0.93075,0 -1.66925,0.19237 -2.20925,0.57087 -0.54001,0.38475 -0.90601,0.92475 -1.09838,1.62563 z m 4.96488,4.8405 c -0.31675,0.0808 -0.73875,0.16125 -1.26,0.236 -2.6125,0.31637 -4.32538,0.77525 -5.12575,1.38362 -0.57088,0.43438 -0.85038,1.02375 -0.85038,1.7625 0,0.60163 0.2175,1.11688 0.65163,1.5325 0.43475,0.42225 1.0115,0.62638 1.7255,0.62638 0.78775,0 1.5325,-0.18563 2.22775,-0.5705 0.70087,-0.37838 1.22237,-0.87475 1.56325,-1.47075 0.34762,-0.602 0.65162,-1.53888 0.9185,-2.81088 l 0.1495,-0.68887 z m 14.48925,2.21525 -2.87288,0 1.63163,-13.596 1.30962,-6.27375 5.473,0 -1.396,6.74537 -4.14537,13.12438 z m -4.25688,1.74375 5.16288,0 -1.05475,5.03887 -5.163,0 1.05487,-5.03887 z"
       style="fill:#0070ff;fill-opacity:1;fill-rule:nonzero;stroke:none"
       id="path40" />
  </g>
</svg>
