<?xml version="1.0" encoding="UTF-8" standalone="no"?>
<!-- Created with Inkscape (http://www.inkscape.org/) -->

<svg
   xmlns:dc="http://purl.org/dc/elements/1.1/"
   xmlns:cc="http://creativecommons.org/ns#"
   xmlns:rdf="http://www.w3.org/1999/02/22-rdf-syntax-ns#"
   xmlns:svg="http://www.w3.org/2000/svg"
   xmlns="http://www.w3.org/2000/svg"
   xmlns:xlink="http://www.w3.org/1999/xlink"
   xmlns:sodipodi="http://sodipodi.sourceforge.net/DTD/sodipodi-0.dtd"
   xmlns:inkscape="http://www.inkscape.org/namespaces/inkscape"
   width="744.09448819"
   height="1052.3622047"
   id="svg2"
   version="1.1"
   inkscape:version="0.48.3.1 r9886"
   sodipodi:docname="98 lamppost.svg">
  <defs
     id="defs4">
    <inkscape:perspective
       sodipodi:type="inkscape:persp3d"
       inkscape:vp_x="43 : 689.18109 : 1"
       inkscape:vp_y="0 : 1000 : 0"
       inkscape:vp_z="787.09448 : 689.18109 : 1"
       inkscape:persp3d-origin="415.04724 : 513.78739 : 1"
       id="perspective4023" />
    <inkscape:perspective
       sodipodi:type="inkscape:persp3d"
       inkscape:vp_x="-12 : 662.18109 : 1"
       inkscape:vp_y="0 : 1000 : 0"
       inkscape:vp_z="732.09448 : 662.18109 : 1"
       inkscape:persp3d-origin="360.04724 : 486.78739 : 1"
       id="perspective3993" />
    <inkscape:path-effect
       effect="spiro"
       id="path-effect3940"
       is_visible="true" />
    <linearGradient
       inkscape:collect="always"
       id="linearGradient3926">
      <stop
         style="stop-color:#ffffff;stop-opacity:1;"
         offset="0"
         id="stop3928" />
      <stop
         style="stop-color:#ffffff;stop-opacity:0;"
         offset="1"
         id="stop3930" />
    </linearGradient>
    <linearGradient
       inkscape:collect="always"
       id="linearGradient3916">
      <stop
         style="stop-color:#ffffff;stop-opacity:1;"
         offset="0"
         id="stop3918" />
      <stop
         style="stop-color:#ffffff;stop-opacity:0;"
         offset="1"
         id="stop3920" />
    </linearGradient>
    <linearGradient
       inkscape:collect="always"
       id="linearGradient3886">
      <stop
         id="stop3890"
         offset="0"
         style="stop-color:#999999;stop-opacity:0;" />
      <stop
         style="stop-color:#999999;stop-opacity:0.83921569;"
         offset="0.89646614"
         id="stop3896" />
      <stop
         id="stop3888"
         offset="1"
         style="stop-color:#4d4d4d;stop-opacity:1" />
    </linearGradient>
    <linearGradient
       id="linearGradient3877">
      <stop
         id="stop3879"
         offset="0"
         style="stop-color:#000000;stop-opacity:1;" />
      <stop
         style="stop-color:#888282;stop-opacity:1;"
         offset="0.03705766"
         id="stop3881" />
      <stop
         style="stop-color:#a26767;stop-opacity:1;"
         offset="0.21524964"
         id="stop3883" />
      <stop
         style="stop-color:#b3adad;stop-opacity:1;"
         offset="0.37456208"
         id="stop3885" />
      <stop
         style="stop-color:#fdfafa;stop-opacity:1;"
         offset="0.49461827"
         id="stop3887" />
      <stop
         style="stop-color:#ba8c8c;stop-opacity:1;"
         offset="0.7615968"
         id="stop3889" />
      <stop
         id="stop3891"
         offset="1"
         style="stop-color:#000000;stop-opacity:1;" />
    </linearGradient>
    <linearGradient
       id="linearGradient4017">
      <stop
         id="stop4019"
         offset="0"
         style="stop-color:#000000;stop-opacity:1;" />
      <stop
         style="stop-color:#888282;stop-opacity:1;"
         offset="0.11968835"
         id="stop4021" />
      <stop
         style="stop-color:#a26767;stop-opacity:1;"
         offset="0.17815015"
         id="stop4023" />
      <stop
         style="stop-color:#b3adad;stop-opacity:1;"
         offset="0.32228553"
         id="stop4025" />
      <stop
         style="stop-color:#fdfafa;stop-opacity:1;"
         offset="0.46089146"
         id="stop4027" />
      <stop
         id="stop4033"
         offset="0.56604952"
         style="stop-color:#e2cece;stop-opacity:1;" />
      <stop
         style="stop-color:#ba8c8c;stop-opacity:1;"
         offset="0.72449732"
         id="stop4029" />
      <stop
         id="stop4031"
         offset="1"
         style="stop-color:#000000;stop-opacity:1;" />
    </linearGradient>
    <linearGradient
       id="linearGradient4003">
      <stop
         style="stop-color:#ffffff;stop-opacity:0;"
         offset="0"
         id="stop4005" />
      <stop
         id="stop4011"
         offset="0.5"
         style="stop-color:#ffffff;stop-opacity:1;" />
      <stop
         style="stop-color:#ffffff;stop-opacity:0;"
         offset="1"
         id="stop4007" />
    </linearGradient>
    <linearGradient
       id="linearGradient3962">
      <stop
         style="stop-color:#4d4d4d;stop-opacity:1;"
         offset="0"
         id="stop3964" />
      <stop
         id="stop3980"
         offset="0.10172267"
         style="stop-color:#bfb9b9;stop-opacity:1;" />
      <stop
         id="stop3978"
         offset="0.18825164"
         style="stop-color:#9b9b9b;stop-opacity:1;" />
      <stop
         id="stop3976"
         offset="0.36130959"
         style="stop-color:#feefef;stop-opacity:1;" />
      <stop
         id="stop3974"
         offset="0.44406787"
         style="stop-color:#ffffff;stop-opacity:1;" />
      <stop
         id="stop3972"
         offset="0.58932614"
         style="stop-color:#b7aeae;stop-opacity:1;" />
      <stop
         id="stop3970"
         offset="0.67219537"
         style="stop-color:#a3a3a3;stop-opacity:1;" />
      <stop
         style="stop-color:#4d4d4d;stop-opacity:1;"
         offset="1"
         id="stop3966" />
    </linearGradient>
    <linearGradient
       id="linearGradient3954">
      <stop
         style="stop-color:#ff6600;stop-opacity:0;"
         offset="0"
         id="stop3956" />
      <stop
         style="stop-color:#ff6600;stop-opacity:1;"
         offset="1"
         id="stop3958" />
    </linearGradient>
    <linearGradient
       inkscape:collect="always"
       id="linearGradient3923">
      <stop
         style="stop-color:#b3b3b3;stop-opacity:1;"
         offset="0"
         id="stop3925" />
      <stop
         style="stop-color:#b3b3b3;stop-opacity:0;"
         offset="1"
         id="stop3927" />
    </linearGradient>
    <linearGradient
       id="linearGradient3793">
      <stop
         style="stop-color:#000000;stop-opacity:1;"
         offset="0"
         id="stop3795" />
      <stop
         id="stop3809"
         offset="0.11968835"
         style="stop-color:#888282;stop-opacity:1;" />
      <stop
         id="stop3807"
         offset="0.17815015"
         style="stop-color:#a26767;stop-opacity:1;" />
      <stop
         id="stop3805"
         offset="0.32228553"
         style="stop-color:#b3adad;stop-opacity:1;" />
      <stop
         id="stop3803"
         offset="0.46089146"
         style="stop-color:#fdfafa;stop-opacity:1;" />
      <stop
         id="stop3801"
         offset="0.72449732"
         style="stop-color:#ba8c8c;stop-opacity:1;" />
      <stop
         style="stop-color:#000000;stop-opacity:1;"
         offset="1"
         id="stop3797" />
    </linearGradient>
    <filter
       inkscape:collect="always"
       id="filter3817">
      <feGaussianBlur
         inkscape:collect="always"
         stdDeviation="0.7043626"
         id="feGaussianBlur3819" />
    </filter>
    <filter
       inkscape:collect="always"
       id="filter3833">
      <feGaussianBlur
         inkscape:collect="always"
         stdDeviation="0.52051485"
         id="feGaussianBlur3835" />
    </filter>
    <filter
       inkscape:collect="always"
       id="filter3895">
      <feGaussianBlur
         inkscape:collect="always"
         stdDeviation="1.1599935"
         id="feGaussianBlur3897" />
    </filter>
    <linearGradient
       inkscape:collect="always"
       xlink:href="#linearGradient4003"
       id="linearGradient4009"
       x1="366.20108"
       y1="592.4447"
       x2="423.44315"
       y2="591.73761"
       gradientUnits="userSpaceOnUse" />
    <linearGradient
       inkscape:collect="always"
       xlink:href="#linearGradient4003"
       id="linearGradient4015"
       gradientUnits="userSpaceOnUse"
       x1="370.0246"
       y1="593.15179"
       x2="428.27405"
       y2="592.09119" />
    <linearGradient
       inkscape:collect="always"
       xlink:href="#linearGradient3923"
       id="linearGradient3920"
       gradientUnits="userSpaceOnUse"
       x1="394.13794"
       y1="953.65417"
       x2="392.34528"
       y2="911.54517" />
    <linearGradient
       inkscape:collect="always"
       xlink:href="#linearGradient3877"
       id="linearGradient3981"
       gradientUnits="userSpaceOnUse"
       x1="360.125"
       y1="781.70221"
       x2="434.25"
       y2="781.70221"
       gradientTransform="matrix(0.73747841,0,0,1,104.79059,-203.25)" />
    <linearGradient
       inkscape:collect="always"
       xlink:href="#linearGradient3877"
       id="linearGradient3076"
       gradientUnits="userSpaceOnUse"
       x1="360.125"
       y1="781.70221"
       x2="434.25"
       y2="781.70221" />
    <linearGradient
       inkscape:collect="always"
       xlink:href="#linearGradient3962"
       id="linearGradient3086"
       gradientUnits="userSpaceOnUse"
       gradientTransform="matrix(0.56511077,0,0,1.0861328,172.76161,-66.219198)"
       x1="361.58698"
       y1="271.738"
       x2="431.39615"
       y2="271.738" />
    <linearGradient
       inkscape:collect="always"
       xlink:href="#linearGradient3793"
       id="linearGradient3089"
       gradientUnits="userSpaceOnUse"
       gradientTransform="matrix(0.61137232,0,0,1.0861328,154.90698,-380.87912)"
       x1="347.28223"
       y1="592.3197"
       x2="444.69348"
       y2="592.3197" />
    <linearGradient
       inkscape:collect="always"
       xlink:href="#linearGradient3793"
       id="linearGradient3093"
       gradientUnits="userSpaceOnUse"
       gradientTransform="matrix(0.72554514,0,0,1.0861328,109.8026,-80.788816)"
       x1="352.32782"
       y1="592.4447"
       x2="441.29709"
       y2="591.9447" />
    <linearGradient
       inkscape:collect="always"
       xlink:href="#linearGradient4017"
       id="linearGradient3097"
       gradientUnits="userSpaceOnUse"
       gradientTransform="matrix(0.74966947,0,0,1.0861328,100.3756,-47.310702)"
       x1="348.16202"
       y1="591.9447"
       x2="445.04047"
       y2="591.6947" />
    <linearGradient
       inkscape:collect="always"
       xlink:href="#linearGradient3793"
       id="linearGradient3101"
       gradientUnits="userSpaceOnUse"
       gradientTransform="matrix(0.97896333,0,0,2.7115638,8.7047515,-1543.5444)"
       x1="353.02597"
       y1="890.74359"
       x2="438.17297"
       y2="890.94391" />
    <linearGradient
       inkscape:collect="always"
       xlink:href="#linearGradient3793"
       id="linearGradient3106"
       gradientUnits="userSpaceOnUse"
       gradientTransform="matrix(1.0861328,0,0,1.0861328,-34.087044,-45.582676)"
       x1="366.89627"
       y1="578.58118"
       x2="426.95877"
       y2="578.58118" />
    <radialGradient
       inkscape:collect="always"
       xlink:href="#linearGradient3886"
       id="radialGradient3892"
       cx="177.42871"
       cy="163.28925"
       fx="177.42871"
       fy="163.28925"
       r="131.21738"
       gradientUnits="userSpaceOnUse"
       gradientTransform="matrix(1.1281498,-0.01791553,0.01587845,0.99987393,-25.436448,3.2030483)" />
    <radialGradient
       inkscape:collect="always"
       xlink:href="#linearGradient3916"
       id="radialGradient3922"
       cx="397.21873"
       cy="165.65625"
       fx="397.21873"
       fy="165.65625"
       r="14.006645"
       gradientTransform="matrix(1,0,0,1.363455,0,-60.20859)"
       gradientUnits="userSpaceOnUse" />
    <linearGradient
       inkscape:collect="always"
       xlink:href="#linearGradient3926"
       id="linearGradient3932"
       x1="397.21725"
       y1="176.43365"
       x2="397.04047"
       y2="190.57579"
       gradientUnits="userSpaceOnUse" />
    <linearGradient
       inkscape:collect="always"
       xlink:href="#linearGradient4003"
       id="linearGradient3950"
       x1="389.75"
       y1="200.54993"
       x2="406.125"
       y2="200.54993"
       gradientUnits="userSpaceOnUse"
       gradientTransform="matrix(1.0152672,0,0,1,-5.9503817,0)" />
    <linearGradient
       inkscape:collect="always"
       xlink:href="#linearGradient4003"
       id="linearGradient3961"
       x1="381.5"
       y1="210.16618"
       x2="412.5"
       y2="210.16618"
       gradientUnits="userSpaceOnUse" />
    <linearGradient
       inkscape:collect="always"
       xlink:href="#linearGradient4003"
       id="linearGradient4027"
       gradientUnits="userSpaceOnUse"
       x1="381.5"
       y1="210.16618"
       x2="412.5"
       y2="210.16618" />
    <radialGradient
       inkscape:collect="always"
       xlink:href="#linearGradient3916"
       id="radialGradient4033"
       gradientUnits="userSpaceOnUse"
       gradientTransform="matrix(1,0,0,1.363455,0,-60.20859)"
       cx="397.21873"
       cy="165.65625"
       fx="397.21873"
       fy="165.65625"
       r="14.006645" />
    <linearGradient
       inkscape:collect="always"
       xlink:href="#linearGradient4003"
       id="linearGradient4038"
       gradientUnits="userSpaceOnUse"
       gradientTransform="matrix(1.0152672,0,0,1,-5.9503817,0)"
       x1="389.75"
       y1="200.54993"
       x2="406.125"
       y2="200.54993" />
    <linearGradient
       inkscape:collect="always"
       xlink:href="#linearGradient3877"
       id="linearGradient4041"
       gradientUnits="userSpaceOnUse"
       x1="360.125"
       y1="781.70221"
       x2="434.25"
       y2="781.70221" />
    <linearGradient
       inkscape:collect="always"
       xlink:href="#linearGradient3962"
       id="linearGradient4044"
       gradientUnits="userSpaceOnUse"
       gradientTransform="matrix(0.56511077,0,0,1.0861328,172.76161,-66.219198)"
       x1="361.58698"
       y1="271.738"
       x2="431.39615"
       y2="271.738" />
    <linearGradient
       inkscape:collect="always"
       xlink:href="#linearGradient3793"
       id="linearGradient4047"
       gradientUnits="userSpaceOnUse"
       gradientTransform="matrix(0.61137232,0,0,1.0861328,154.90698,-380.87912)"
       x1="347.28223"
       y1="592.3197"
       x2="444.69348"
       y2="592.3197" />
    <linearGradient
       inkscape:collect="always"
       xlink:href="#linearGradient3793"
       id="linearGradient4051"
       gradientUnits="userSpaceOnUse"
       gradientTransform="matrix(0.72554514,0,0,1.0861328,109.8026,-80.788816)"
       x1="352.32782"
       y1="592.4447"
       x2="441.29709"
       y2="591.9447" />
    <linearGradient
       inkscape:collect="always"
       xlink:href="#linearGradient4017"
       id="linearGradient4055"
       gradientUnits="userSpaceOnUse"
       gradientTransform="matrix(0.74966947,0,0,1.0861328,100.3756,-47.310702)"
       x1="348.16202"
       y1="591.9447"
       x2="445.04047"
       y2="591.6947" />
    <linearGradient
       inkscape:collect="always"
       xlink:href="#linearGradient3793"
       id="linearGradient4059"
       gradientUnits="userSpaceOnUse"
       gradientTransform="matrix(0.97896333,0,0,2.7115638,8.7047515,-1543.5444)"
       x1="353.02597"
       y1="890.74359"
       x2="438.17297"
       y2="890.94391" />
    <linearGradient
       inkscape:collect="always"
       xlink:href="#linearGradient3793"
       id="linearGradient4064"
       gradientUnits="userSpaceOnUse"
       gradientTransform="matrix(1.0861328,0,0,1.0861328,-34.087044,-45.582676)"
       x1="366.89627"
       y1="578.58118"
       x2="426.95877"
       y2="578.58118" />
    <linearGradient
       inkscape:collect="always"
       xlink:href="#linearGradient3926"
       id="linearGradient4072"
       gradientUnits="userSpaceOnUse"
       x1="397.21725"
       y1="176.43365"
       x2="397.04047"
       y2="190.57579" />
  </defs>
  <sodipodi:namedview
     id="base"
     pagecolor="#ffffff"
     bordercolor="#666666"
     borderopacity="1.0"
     inkscape:pageopacity="0.0"
     inkscape:pageshadow="2"
     inkscape:zoom="1"
     inkscape:cx="197.84825"
     inkscape:cy="177.80178"
     inkscape:document-units="px"
     inkscape:current-layer="layer1"
     showgrid="false"
     inkscape:window-width="1366"
     inkscape:window-height="685"
     inkscape:window-x="0"
     inkscape:window-y="27"
     inkscape:window-maximized="1" />
  <metadata
     id="metadata7">
    <rdf:RDF>
      <cc:Work
         rdf:about="">
        <dc:format>image/svg+xml</dc:format>
        <dc:type
           rdf:resource="http://purl.org/dc/dcmitype/StillImage" />
        <dc:title />
      </cc:Work>
    </rdf:RDF>
  </metadata>
  <g
     inkscape:label="Layer 1"
     inkscape:groupmode="layer"
     id="layer1">
    <g
       id="g4075">
      <path
         sodipodi:nodetypes="ccccc"
         inkscape:connector-curvature="0"
         id="path3902"
         d="m 394.21203,191.32709 0.66291,-5.03813 c 1.52406,0.47355 3.16158,0.56887 5.03814,-0.13259 l 0.53033,5.39169 z"
         style="fill:#4d4d4d;stroke:none" />
      <path
         style="fill:url(#linearGradient4072);fill-opacity:1;stroke:none"
         d="m 394.21203,191.32709 0.66291,-5.03813 c 1.52406,0.47355 3.16158,0.56887 5.03814,-0.13259 l 0.53033,5.39169 z"
         id="path3924"
         inkscape:connector-curvature="0"
         sodipodi:nodetypes="ccccc" />
      <path
         sodipodi:nodetypes="ccccc"
         inkscape:connector-curvature="0"
         id="path3900"
         d="m 389.75,210.11218 2.75,-19.75 c 5.31575,1.02547 7.89692,0.34182 10.625,-0.25 l 3,20 c -5.45833,0.50602 -10.91667,1.68735 -16.375,0 z"
         style="fill:#1a1a1a;stroke:none" />
      <path
         transform="matrix(1.0240481,0,0,1,-9.2805612,-2.625)"
         d="m 427.5,781.79968 a 31.1875,7.8125 0 1 1 -62.375,0 31.1875,7.8125 0 1 1 62.375,0 z"
         sodipodi:ry="7.8125"
         sodipodi:rx="31.1875"
         sodipodi:cy="781.79968"
         sodipodi:cx="396.3125"
         id="path3893"
         style="fill:#1a1a1a;fill-opacity:1;stroke:none"
         sodipodi:type="arc" />
      <path
         sodipodi:nodetypes="ccscssscscc"
         transform="matrix(0.53675159,0,0,1.0861328,184.33574,-414.00617)"
         style="opacity:0.76229505;fill:#73716f;fill-opacity:1;stroke:none;filter:url(#filter3833)"
         d="m 432.6256,577.14196 c -22.20459,2.12037 -45.99292,2.83982 -73.42104,0.35489 l 0,24.54398 c 0,0.20932 0.0518,0.40525 0.11472,0.59621 -0.12523,0.15597 -0.1912,0.32249 -0.1912,0.48264 0,2.56241 16.45156,4.62773 36.71052,4.62773 20.25896,0 36.67228,-2.06532 36.67228,-4.62773 0,-0.1079 -0.0192,-0.22043 -0.0765,-0.32649 0.12414,-0.23577 0.1912,-0.486 0.1912,-0.75236 l 0,-24.89887 z"
         id="path3857"
         inkscape:connector-curvature="0" />
      <path
         transform="matrix(1.4158617,0,0,1.5515985,-162.45346,-478.59981)"
         d="m 450,925.36218 a 55.75,23 0 1 1 -111.5,0 55.75,23 0 1 1 111.5,0 z"
         sodipodi:ry="23"
         sodipodi:rx="55.75"
         sodipodi:cy="925.36218"
         sodipodi:cx="394.25"
         id="path3889"
         style="fill:#b3b3b3;fill-opacity:1;stroke:none"
         sodipodi:type="arc" />
      <path
         sodipodi:type="arc"
         style="opacity:0.99590167;fill:#000000;fill-opacity:1;stroke:none;filter:url(#filter3895)"
         id="path3887"
         sodipodi:cx="394.25"
         sodipodi:cy="925.36218"
         sodipodi:rx="55.75"
         sodipodi:ry="23"
         d="m 450,925.36218 a 55.75,23 0 1 1 -111.5,0 55.75,23 0 1 1 111.5,0 z"
         transform="matrix(1.2482732,0,0,1.3679435,-96.381688,-312.87647)" />
      <path
         sodipodi:nodetypes="ccccscsscssscsscc"
         inkscape:connector-curvature="0"
         id="rect2985"
         d="m 415.24884,209.87228 c 0.0927,0.12543 0.18055,0.2552 0.26474,0.38693 -0.0845,-0.13193 -0.17173,-0.26135 -0.26474,-0.38693 z m 1.1608,2.50489 c -1.1414,3.3056 -9.37898,5.86512 -19.38745,5.86512 -9.89914,0 -18.0648,-2.51004 -19.34673,-5.7633 -0.10994,0.49204 -0.15354,1.00132 -0.16292,1.52738 l -13.0336,730.93341 c -0.009,0.50042 0.046,0.96896 0.10177,1.42555 -0.11115,0.37293 -0.1697,0.77109 -0.1697,1.15401 0,6.12677 14.60228,11.06498 32.58398,11.06498 17.9817,0 32.55004,-4.93821 32.55004,-11.06498 0,-0.258 -0.017,-0.52705 -0.0679,-0.78065 0.11018,-0.56373 0.18106,-1.16215 0.16971,-1.79891 l -13.0336,-730.93341 c -0.01,-0.56279 -0.0783,-1.10583 -0.20365,-1.6292 z"
         style="fill:url(#linearGradient4064);fill-opacity:1;stroke:none" />
      <path
         sodipodi:nodetypes="ccscssscscc"
         transform="matrix(0.97896333,0,0,2.7115638,8.5316936,-1545.9411)"
         style="opacity:0.66803278;fill:#000000;fill-opacity:1;stroke:none;filter:url(#filter3817)"
         d="m 432.6256,857.15625 c -22.20459,4.66779 -45.99292,6.25158 -73.42104,0.78125 l 0,54.03125 c 0,0.46081 0.0518,0.89212 0.11472,1.3125 -0.12523,0.34336 -0.1912,0.70994 -0.1912,1.0625 0,5.6409 16.45156,10.1875 36.71052,10.1875 20.25896,0 36.67228,-4.5466 36.67228,-10.1875 0,-0.23754 -0.0192,-0.48526 -0.0765,-0.71875 0.12414,-0.51902 0.1912,-1.06989 0.1912,-1.65625 l 0,-54.8125 z"
         id="path3811"
         inkscape:connector-curvature="0" />
      <path
         transform="matrix(1.211744,0,0,1.2380798,-81.844312,-195.69238)"
         d="m 450,925.36218 a 55.75,23 0 1 1 -111.5,0 55.75,23 0 1 1 111.5,0 z"
         sodipodi:ry="23"
         sodipodi:rx="55.75"
         sodipodi:cy="925.36218"
         sodipodi:cx="394.25"
         id="path3921"
         style="opacity:0.99590167;fill:url(#linearGradient3920);fill-opacity:1;stroke:none"
         sodipodi:type="arc" />
      <path
         sodipodi:nodetypes="ccscssscscc"
         inkscape:connector-curvature="0"
         id="path3784"
         d="m 432.22935,780.68947 c -27.88157,11.50499 -41.18533,9.65545 -71.87649,2.1184 l 0,146.50918 c 0,1.24952 0.0507,2.41905 0.11229,3.55893 -0.12259,0.93105 -0.18718,1.92505 -0.18718,2.88103 0,15.29566 16.10548,24.55201 35.93826,24.55201 19.83277,0 35.90082,-9.25635 35.90082,-24.55201 0,-0.64409 -0.0188,-1.3158 -0.075,-1.94893 0.12153,-1.40736 0.18719,-2.90107 0.18719,-4.49103 l 0,-148.62758 z"
         style="fill:url(#linearGradient4059);fill-opacity:1;stroke:none" />
      <path
         sodipodi:nodetypes="ccscssscscc"
         transform="matrix(0.67537071,0,0,1.0861328,128.3582,-45.582676)"
         style="opacity:0.76229505;fill:#000000;fill-opacity:1;stroke:none;filter:url(#filter3833)"
         d="m 432.6256,577.14196 c -22.20459,2.12037 -45.99292,2.83982 -73.42104,0.35489 l 0,24.54398 c 0,0.20932 0.0518,0.40525 0.11472,0.59621 -0.12523,0.15597 -0.1912,0.32249 -0.1912,0.48264 0,2.56241 16.45156,4.62773 36.71052,4.62773 20.25896,0 36.67228,-2.06532 36.67228,-4.62773 0,-0.1079 -0.0192,-0.22043 -0.0765,-0.32649 0.12414,-0.23577 0.1912,-0.486 0.1912,-0.75236 l 0,-24.89887 z"
         id="path3789"
         inkscape:connector-curvature="0" />
      <path
         sodipodi:nodetypes="ccscssscscc"
         inkscape:connector-curvature="0"
         id="path3837"
         d="m 424.70181,579.54209 c -16.64611,2.303 -33.48482,3.66043 -54.04683,0.96147 l -0.99468,26.08201 c -0.009,0.2272 0.0388,0.44016 0.0859,0.64756 -0.0938,0.16941 -0.14334,0.35027 -0.14334,0.52421 0,2.78312 12.33324,5.02633 27.52075,5.02633 15.18752,0 27.49208,-2.24321 27.49208,-5.02633 0,-0.11719 -0.0143,-0.23941 -0.0573,-0.35461 0.0931,-0.25607 0.14332,-0.52786 0.14332,-0.81716 l -0.99467,-27.04348 z"
         style="fill:url(#linearGradient4055);fill-opacity:1;stroke:none" />
      <path
         sodipodi:nodetypes="ccscssscscc"
         inkscape:connector-curvature="0"
         id="path3847"
         d="m 432.6256,577.14196 c -22.20459,2.12037 -45.99292,2.83982 -73.42104,0.35489 l 0,24.54398 c 0,0.20932 0.0518,0.40525 0.11472,0.59621 -0.12523,0.15597 -0.1912,0.32249 -0.1912,0.48264 0,2.56241 16.45156,4.62773 36.71052,4.62773 20.25896,0 36.67228,-2.06532 36.67228,-4.62773 0,-0.1079 -0.0192,-0.22043 -0.0765,-0.32649 0.12414,-0.23577 0.1912,-0.486 0.1912,-0.75236 l 0,-24.89887 z"
         style="opacity:0.76229505;fill:#000000;fill-opacity:1;stroke:none;filter:url(#filter3833)"
         transform="matrix(0.6690606,0,0,1.0861328,131.9731,-79.252791)" />
      <path
         sodipodi:nodetypes="ccscssscscc"
         style="fill:url(#linearGradient4051);fill-opacity:1;stroke:none"
         d="m 423.692,546.06398 c -16.11043,2.30301 -32.40993,3.08442 -52.31027,0.38546 l -0.96001,26.65802 c -0.009,0.2272 0.0376,0.44016 0.0833,0.64756 -0.0908,0.16941 -0.13873,0.35027 -0.13873,0.52421 0,2.78312 11.93635,5.02633 26.63514,5.02633 14.69878,0 26.60739,-2.24321 26.60739,-5.02633 0,-0.11719 -0.0139,-0.23941 -0.0555,-0.35461 0.09,-0.25607 0.13874,-0.52786 0.13874,-0.81716 l -1.15202,-26.85147 z"
         id="path3849"
         inkscape:connector-curvature="0" />
      <path
         sodipodi:nodetypes="ccscssscscc"
         inkscape:connector-curvature="0"
         id="path3853"
         d="m 432.6256,577.14196 c -22.20459,2.12037 -45.99292,2.83982 -73.42104,0.35489 l 0,24.54398 c 0,0.20932 0.0518,0.40525 0.11472,0.59621 -0.12523,0.15597 -0.1912,0.32249 -0.1912,0.48264 0,2.56241 16.45156,4.62773 36.71052,4.62773 20.25896,0 36.67228,-2.06532 36.67228,-4.62773 0,-0.1079 -0.0192,-0.22043 -0.0765,-0.32649 0.12414,-0.23577 0.1912,-0.486 0.1912,-0.75236 l 0,-24.89887 z"
         style="opacity:0.76229505;fill:#000000;fill-opacity:1;stroke:none;filter:url(#filter3833)"
         transform="matrix(0.53887,0,0,1.0861328,183.9914,-380.33605)" />
      <path
         sodipodi:nodetypes="ccscssscscc"
         style="fill:url(#linearGradient4047);fill-opacity:1;stroke:none"
         d="m 419.40229,245.97368 c -13.57527,2.303 -27.10232,3.85243 -43.87111,1.15347 l -1.01648,25.89001 c -0.009,0.22719 0.0317,0.44015 0.0702,0.64756 -0.0766,0.1694 -0.1169,0.35027 -0.1169,0.52421 0,2.78312 10.05802,5.02633 22.44379,5.02633 12.38577,0 22.42042,-2.24321 22.42042,-5.02633 0,-0.11719 -0.0117,-0.23942 -0.0468,-0.35461 0.0759,-0.25608 0.11689,-0.52786 0.11689,-0.81716 l -1.21978,-27.04348 z"
         id="path3855"
         inkscape:connector-curvature="0" />
      <path
         sodipodi:nodetypes="ccscssscscc"
         inkscape:connector-curvature="0"
         id="path3859"
         d="m 416.54824,212.30356 c -11.91837,2.30301 -24.68677,3.08442 -39.40888,0.38546 l 0,26.65802 c 0,0.22735 0.0277,0.44016 0.0616,0.64756 -0.0672,0.16941 -0.10264,0.35027 -0.10264,0.52421 0,2.78312 8.83039,5.02633 19.70441,5.02633 10.87405,0 19.68392,-2.24321 19.68392,-5.02633 0,-0.11719 -0.0109,-0.23941 -0.0411,-0.35461 0.0665,-0.25607 0.10264,-0.52786 0.10264,-0.81716 l 0,-27.04348 z"
         style="fill:url(#linearGradient4044);fill-opacity:1;stroke:none" />
      <path
         id="path3096"
         d="m 392.625,772.15625 c -0.48661,0.0131 -0.95679,0.0444 -1.4375,0.0625 0.701,-0.0259 1.40924,-0.0467 2.125,-0.0625 -0.22801,0.005 -0.46071,-0.006 -0.6875,0 z m -5.5625,0.28125 c -0.71417,0.0499 -1.42886,0.0953 -2.125,0.15625 0.70033,-0.0595 1.4016,-0.10738 2.125,-0.15625 z m -13.09375,1.71875 c -0.71193,0.14801 -1.39509,0.3073 -2.0625,0.46875 0.65087,-0.17132 1.34006,-0.31182 2.0625,-0.46875 z m -2.0625,0.46875 c -7.22755,1.74833 -11.78125,4.26917 -11.78125,7.0625 0,5.28122 16.2017,9.5625 36.1875,9.5625 19.9858,0 36.1875,-4.28128 36.1875,-9.5625 0,-2.24508 -2.94192,-4.30591 -7.84375,-5.9375 2.45831,0.983 3.84375,2.11516 3.84375,3.3125 0,3.83148 -14.29891,6.9375 -31.9375,6.9375 -17.63859,0 -31.9375,-3.10602 -31.9375,-6.9375 0,-1.67627 2.72518,-3.23829 7.28125,-4.4375 z"
         style="fill:url(#linearGradient4041);fill-opacity:1;stroke:none"
         inkscape:connector-curvature="0" />
      <path
         style="fill:url(#linearGradient4038);fill-opacity:1;stroke:none"
         d="m 389.75,210.11218 2.79198,-19.75 c 5.39691,1.02547 8.01749,0.34182 10.78722,-0.25 l 3.0458,20 c -5.54166,0.50602 -11.08334,1.68735 -16.625,0 z"
         id="path3942"
         inkscape:connector-curvature="0"
         sodipodi:nodetypes="ccccc" />
      <path
         sodipodi:nodetypes="ccccc"
         inkscape:connector-curvature="0"
         id="path3898"
         d="m 381.5,213.98718 0.375,-8.5 c 5.8862,3.7237 20.92985,4.61125 30.375,-0.375 l 0.25,9.125 c -10.13594,0.80495 -20.21894,1.8481 -31,-0.25 z"
         style="fill:#1a1a1a;stroke:none" />
      <path
         sodipodi:nodetypes="sscccccss"
         inkscape:connector-curvature="0"
         id="path3908"
         d="m 397.21875,144.4375 c -8.59154,0 -15.5625,8.35617 -15.5625,18.65625 0,7.48749 3.68966,13.93823 9,16.90625 0.009,0.0603 0.0227,0.16034 0.0312,0.21875 0.34841,2.38797 4.40625,6.28125 4.40625,6.28125 l 4.15625,0.375 c 0,0 4.1284,-3.89479 5.02849,-6.52053 5.88989,-2.65593 8.50276,-9.2711 8.50276,-17.26072 0,-10.30008 -6.97097,-18.65625 -15.5625,-18.65625 z"
         style="fill:#cccccc;stroke:none" />
      <path
         style="fill:url(#radialGradient4033);fill-opacity:1;stroke:none"
         d="m 397.21875,146.55882 c -7.73261,0 -14.00666,7.52077 -14.00666,16.79111 0,6.73894 3.32079,12.54477 8.10024,15.21607 0.008,0.0543 0.0204,0.14431 0.0281,0.19688 0.31357,2.14924 3.96574,5.65329 3.96574,5.65329 l 3.74073,0.33751 c 0,0 3.71567,-3.50541 4.52577,-5.86865 5.30106,-2.3904 7.65271,-8.34423 7.65271,-15.5351 0,-9.27034 -6.27406,-16.79111 -14.00666,-16.79111 z"
         id="path3914"
         inkscape:connector-curvature="0"
         sodipodi:nodetypes="sscccccss" />
      <path
         inkscape:connector-curvature="0"
         id="path3934"
         d="m 397.04046,186.6867 5.83363,-27.75394"
         style="fill:#808080;stroke:#999999;stroke-width:0.5;stroke-linecap:butt;stroke-linejoin:miter;stroke-opacity:1" />
      <path
         inkscape:connector-curvature="0"
         id="path3936"
         d="m 396.33335,188.10092 -3.71231,-27.22361"
         style="fill:#808080;stroke:#999999;stroke-width:0.5;stroke-linecap:butt;stroke-linejoin:miter;stroke-opacity:1" />
      <path
         inkscape:connector-curvature="0"
         inkscape:original-d="m 392.75,161.54968 c 0.2681,-0.2853 1.25033,-1.28108 1.6875,-1.0625 0.18095,0.0905 0.3249,0.52505 0.625,0.375 0.22602,-0.11301 0.38725,-0.25612 0.625,-0.375 0.0684,-0.0342 0.70398,-0.42102 0.8125,-0.3125 0.0489,0.0489 0.39745,0.48878 0.5,0.4375 0.34631,-0.17315 0.74583,-0.81041 1,-0.9375 0.0373,-0.0186 0.0955,0.0295 0.125,0 0.0384,-0.0384 0.0413,-0.14564 0.125,-0.1875 0.45585,-0.22793 1.12949,0.31698 1.3125,0.5 0.0859,0.0859 0.3569,-0.0444 0.375,-0.0625 0.0883,-0.0883 0.3765,-0.064 0.5,-0.1875 0.2113,-0.2113 0.23634,-0.54884 0.375,-0.6875 0.24431,-0.2443 0.82931,0.70431 0.875,0.75 0.12239,0.12239 0.39919,-0.33669 0.4375,-0.375 0.13211,-0.13211 0.62455,4.6e-4 0.75,-0.125 0.11877,-0.11877 0.13123,-0.31873 0.25,-0.4375"
         inkscape:path-effect="#path-effect3940"
         id="path3938"
         d="m 392.75,161.54968 c -0.0341,-0.20849 -0.005,-0.42683 0.0813,-0.61944 0.0868,-0.19261 0.23136,-0.35873 0.41013,-0.47129 0.17878,-0.11256 0.39107,-0.17113 0.60227,-0.16614 0.2112,0.005 0.42049,0.0735 0.59375,0.19437 0.10133,0.0707 0.18983,0.15819 0.28876,0.23221 0.0989,0.074 0.21289,0.13573 0.33624,0.14279 0.12555,0.007 0.2488,-0.0435 0.35137,-0.11629 0.10256,-0.0728 0.18774,-0.16686 0.27363,-0.25871 0.10726,-0.1147 0.21983,-0.22923 0.36023,-0.29958 0.0702,-0.0352 0.14688,-0.0587 0.22529,-0.0629 0.0784,-0.004 0.15857,0.0114 0.22698,0.0499 0.0981,0.0553 0.16463,0.15157 0.23484,0.23963 0.0351,0.044 0.0722,0.087 0.11576,0.12259 0.0436,0.0356 0.0942,0.0639 0.1494,0.0753 0.0605,0.0125 0.12452,0.004 0.18165,-0.0197 0.0571,-0.0236 0.10762,-0.0617 0.14971,-0.10701 0.0842,-0.0905 0.13416,-0.20691 0.18054,-0.32151 0.0464,-0.11461 0.0919,-0.23204 0.16971,-0.32815 0.0389,-0.0481 0.0857,-0.0902 0.14013,-0.11962 0.0544,-0.0294 0.11658,-0.0455 0.17826,-0.0415 0.021,0.001 0.0418,0.005 0.0627,0.007 0.021,0.001 0.0425,7e-4 0.0623,-0.007 0.0181,-0.007 0.0341,-0.0186 0.0471,-0.0329 0.013,-0.0143 0.0231,-0.031 0.0316,-0.0484 0.017,-0.0347 0.0277,-0.0724 0.0463,-0.10628 0.0317,-0.0581 0.0858,-0.10279 0.14725,-0.12749 0.0615,-0.0247 0.12983,-0.03 0.1953,-0.02 0.13094,0.02 0.24593,0.0985 0.34259,0.18908 0.0967,0.0906 0.17982,0.19488 0.27826,0.28351 0.0984,0.0886 0.2172,0.1628 0.3491,0.17495 0.12683,0.0117 0.25073,-0.0346 0.375,-0.0625 0.0885,-0.0199 0.17909,-0.0306 0.26645,-0.0551 0.0873,-0.0245 0.17329,-0.0645 0.23355,-0.13235 0.0451,-0.0507 0.0734,-0.11436 0.0933,-0.17929 0.0198,-0.0649 0.0319,-0.13195 0.0486,-0.19775 0.0167,-0.0658 0.0386,-0.13127 0.0759,-0.18795 0.0374,-0.0567 0.0918,-0.10429 0.15724,-0.12251 0.0503,-0.014 0.10488,-0.01 0.15411,0.008 0.0492,0.0175 0.0933,0.0479 0.13034,0.0847 0.074,0.0737 0.11918,0.17095 0.1613,0.26658 0.0421,0.0956 0.0839,0.19375 0.15318,0.27197 0.0346,0.0391 0.0761,0.0727 0.12346,0.0948 0.0474,0.022 0.10092,0.032 0.15261,0.0244 0.0484,-0.007 0.0938,-0.0294 0.13299,-0.0588 0.0392,-0.0293 0.0727,-0.0656 0.10391,-0.10335 0.0624,-0.0755 0.11856,-0.15937 0.2006,-0.21286 0.0537,-0.035 0.11613,-0.0551 0.17938,-0.0657 0.0633,-0.0105 0.12766,-0.0119 0.19179,-0.0119 0.12826,-6e-5 0.26141,0.004 0.37883,-0.0474 0.0824,-0.0362 0.15257,-0.0994 0.19719,-0.1775 0.0446,-0.0781 0.0634,-0.17068 0.0528,-0.26"
         style="fill:#808080;stroke:#999999;stroke-width:0.25;stroke-linecap:butt;stroke-linejoin:miter;stroke-opacity:1" />
      <path
         style="fill:url(#linearGradient4027);fill-opacity:1;stroke:none"
         d="m 381.5,213.98718 0.375,-8.5 c 5.8862,3.7237 20.92985,4.61125 30.375,-0.375 l 0.25,9.125 c -10.13594,0.80495 -20.21894,1.8481 -31,-0.25 z"
         id="path3952"
         inkscape:connector-curvature="0"
         sodipodi:nodetypes="ccccc" />
      <path
         transform="matrix(0.57577712,0,0,0.57577712,296.2087,37.582257)"
         d="m 309.40828,179.79242 a 131.21738,131.21738 0 1 1 -262.434754,0 131.21738,131.21738 0 1 1 262.434754,0 z"
         sodipodi:ry="131.21738"
         sodipodi:rx="131.21738"
         sodipodi:cy="179.79242"
         sodipodi:cx="178.1909"
         id="path3931"
         style="opacity:0.295082;fill:url(#radialGradient3892);fill-opacity:1;stroke:none"
         sodipodi:type="arc" />
    </g>
  </g>
</svg>
