<?xml version="1.0" encoding="UTF-8" standalone="no"?>
<!-- Created with Inkscape (http://www.inkscape.org/) -->

<svg
   xmlns:dc="http://purl.org/dc/elements/1.1/"
   xmlns:cc="http://creativecommons.org/ns#"
   xmlns:rdf="http://www.w3.org/1999/02/22-rdf-syntax-ns#"
   xmlns:svg="http://www.w3.org/2000/svg"
   xmlns="http://www.w3.org/2000/svg"
   xmlns:sodipodi="http://sodipodi.sourceforge.net/DTD/sodipodi-0.dtd"
   xmlns:inkscape="http://www.inkscape.org/namespaces/inkscape"
   width="490.43726"
   height="631.29474"
   id="svg4723"
   version="1.1"
   inkscape:version="0.47 r22583"
   sodipodi:docname="tona.svg">
  <defs
     id="defs4725">
    <inkscape:perspective
       sodipodi:type="inkscape:persp3d"
       inkscape:vp_x="0 : 526.18109 : 1"
       inkscape:vp_y="0 : 1000 : 0"
       inkscape:vp_z="744.09448 : 526.18109 : 1"
       inkscape:persp3d-origin="372.04724 : 350.78739 : 1"
       id="perspective4731" />
    <inkscape:perspective
       id="perspective4901"
       inkscape:persp3d-origin="85 : 80 : 1"
       inkscape:vp_z="170 : 120 : 1"
       inkscape:vp_y="0 : 1000 : 0"
       inkscape:vp_x="0 : 120 : 1"
       sodipodi:type="inkscape:persp3d" />
    <inkscape:perspective
       id="perspective5458"
       inkscape:persp3d-origin="0.5 : 0.33333333 : 1"
       inkscape:vp_z="1 : 0.5 : 1"
       inkscape:vp_y="0 : 1000 : 0"
       inkscape:vp_x="0 : 0.5 : 1"
       sodipodi:type="inkscape:persp3d" />
    <inkscape:perspective
       id="perspective5480"
       inkscape:persp3d-origin="0.5 : 0.33333333 : 1"
       inkscape:vp_z="1 : 0.5 : 1"
       inkscape:vp_y="0 : 1000 : 0"
       inkscape:vp_x="0 : 0.5 : 1"
       sodipodi:type="inkscape:persp3d" />
    <inkscape:perspective
       id="perspective5480-5"
       inkscape:persp3d-origin="0.5 : 0.33333333 : 1"
       inkscape:vp_z="1 : 0.5 : 1"
       inkscape:vp_y="0 : 1000 : 0"
       inkscape:vp_x="0 : 0.5 : 1"
       sodipodi:type="inkscape:persp3d" />
  </defs>
  <sodipodi:namedview
     id="base"
     pagecolor="#ffffff"
     bordercolor="#666666"
     borderopacity="1.0"
     inkscape:pageopacity="0.0"
     inkscape:pageshadow="2"
     inkscape:zoom="0.49497475"
     inkscape:cx="-200.7392"
     inkscape:cy="418.12901"
     inkscape:document-units="px"
     inkscape:current-layer="g6721"
     showgrid="false"
     inkscape:window-width="1280"
     inkscape:window-height="999"
     inkscape:window-x="0"
     inkscape:window-y="0"
     inkscape:window-maximized="1" />
  <metadata
     id="metadata4728">
    <rdf:RDF>
      <cc:Work
         rdf:about="">
        <dc:format>image/svg+xml</dc:format>
        <dc:type
           rdf:resource="http://purl.org/dc/dcmitype/StillImage" />
        <dc:title />
      </cc:Work>
    </rdf:RDF>
  </metadata>
  <g
     inkscape:label="Layer 1"
     inkscape:groupmode="layer"
     id="layer1"
     transform="translate(-127.92396,-270.86217)">
    <g
       inkscape:label="Lines"
       id="layer2"
       transform="matrix(3.1978023,0,0,3.1978023,11.212017,222.91164)">
      <g
         transform="translate(-258.38235,-359.68572)"
         id="g6721"
         style="display:inline">
        <path
           sodipodi:type="arc"
           style="fill:#fae7a6;fill-opacity:1;stroke:#000000;stroke-width:2;stroke-linecap:round;stroke-linejoin:round;stroke-miterlimit:100;stroke-opacity:1;stroke-dasharray:none"
           id="path3802"
           sodipodi:cx="324.21597"
           sodipodi:cy="429.93896"
           sodipodi:rx="37.282658"
           sodipodi:ry="34.34148"
           d="m 361.49863,429.93896 c 0,18.96628 -16.69201,34.34149 -37.28266,34.34149 -20.59064,0 -37.28265,-15.37521 -37.28265,-34.34149 0,-18.96627 16.69201,-34.34148 37.28265,-34.34148 20.59065,0 37.28266,15.37521 37.28266,34.34148 z"
           transform="translate(22.352941,-19.916925)" />
        <path
           sodipodi:type="arc"
           style="fill:#ffffff;fill-opacity:1;stroke:#000000;stroke-width:2;stroke-linecap:round;stroke-linejoin:round;stroke-miterlimit:100;stroke-opacity:1;stroke-dasharray:none"
           id="path5746"
           sodipodi:cx="324.21597"
           sodipodi:cy="429.93896"
           sodipodi:rx="5.9591279"
           sodipodi:ry="5.9591279"
           d="m 330.1751,429.93896 c 0,3.29114 -2.66799,5.95913 -5.95913,5.95913 -3.29113,0 -5.95913,-2.66799 -5.95913,-5.95913 0,-3.29113 2.668,-5.95912 5.95913,-5.95912 3.29114,0 5.95913,2.66799 5.95913,5.95912 z"
           transform="translate(12.880335,-26.753732)" />
        <path
           sodipodi:type="arc"
           style="fill:#ffffff;fill-opacity:1;stroke:#000000;stroke-width:2;stroke-linecap:round;stroke-linejoin:round;stroke-miterlimit:100;stroke-opacity:1;stroke-dasharray:none"
           id="path5748"
           sodipodi:cx="324.21597"
           sodipodi:cy="429.93896"
           sodipodi:rx="5.9591279"
           sodipodi:ry="5.9591279"
           d="m 330.1751,429.93896 c 0,3.29114 -2.66799,5.95913 -5.95913,5.95913 -3.29113,0 -5.95913,-2.66799 -5.95913,-5.95913 0,-3.29113 2.668,-5.95912 5.95913,-5.95912 3.29114,0 5.95913,2.66799 5.95913,5.95912 z"
           transform="translate(32.439159,-26.753732)" />
        <path
           sodipodi:type="arc"
           style="fill:none;stroke:#000000;stroke-width:2;stroke-linecap:round;stroke-linejoin:round;stroke-miterlimit:100;stroke-opacity:1;stroke-dasharray:none"
           id="path5750"
           sodipodi:cx="324.21597"
           sodipodi:cy="429.93896"
           sodipodi:rx="31.228014"
           sodipodi:ry="33.717564"
           d="m 344.35227,455.7106 c -11.52705,10.49976 -28.35687,10.60473 -39.9955,0.24945"
           transform="matrix(0.9995118,-0.03124306,0.03124306,0.9995118,9.3957979,-23.558664)"
           sodipodi:start="0.87001508"
           sodipodi:end="2.2600247"
           sodipodi:open="true" />
        <path
           style="fill:none;stroke:#000000;stroke-width:6.9000001;stroke-linecap:butt;stroke-linejoin:miter;stroke-miterlimit:4;stroke-opacity:1;stroke-dasharray:none"
           d="m -25.714286,432.14284 319.999996,5.71429 -319.999996,-5.71429 z"
           id="path4934"
           transform="matrix(0.31271477,0,0,0.31271477,304,382.18572)"
           sodipodi:nodetypes="ccc" />
        <path
           style="fill:none;stroke:#000000;stroke-width:2.22027493;stroke-linecap:butt;stroke-linejoin:miter;stroke-miterlimit:4;stroke-opacity:1;stroke-dasharray:none"
           d="m 329.91065,517.37737 c -31.27147,53.60824 -31.27147,53.60824 -31.27147,53.60824"
           id="path5448" />
        <path
           style="fill:none;stroke:#000000;stroke-width:2.20274377;stroke-linecap:butt;stroke-linejoin:miter;stroke-miterlimit:4;stroke-opacity:1;stroke-dasharray:none"
           d="m 351.63716,518.67309 c 28.02463,51.80186 28.02463,51.80186 28.02463,51.80186"
           id="path5448-8" />
        <path
           style="fill:none;stroke:#000000;stroke-width:2.20274377;stroke-linecap:butt;stroke-linejoin:miter;stroke-miterlimit:4;stroke-opacity:1;stroke-dasharray:none"
           d="m 371.17701,457.028 c 56.84873,-15.39592 56.84873,-15.39592 56.84873,-15.39592"
           id="path5448-8-7" />
        <path
           style="fill:none;stroke:#000000;stroke-width:2.20274377;stroke-linecap:butt;stroke-linejoin:miter;stroke-miterlimit:4;stroke-opacity:1;stroke-dasharray:none"
           d="m 372.1715,463.60359 c 58.43363,7.37042 58.43363,7.37042 58.43363,7.37042"
           id="path5448-8-5" />
        <path
           style="fill:none;stroke:#000000;stroke-width:7.0999999;stroke-linecap:butt;stroke-linejoin:miter;stroke-miterlimit:4;stroke-opacity:1;stroke-dasharray:none"
           d="M -24.243661,431.64243 C 70.710678,188.19566 71.720831,186.17536 71.720831,186.17536"
           id="path5503"
           transform="matrix(0.31271477,0,0,0.31271477,304,382.18572)" />
        <path
           style="fill:none;stroke:#000000;stroke-width:7.0999999;stroke-linecap:butt;stroke-linejoin:miter;stroke-miterlimit:4;stroke-opacity:1;stroke-dasharray:none"
           d="M 293.95439,438.7135 188.89853,187.18551"
           id="path5505"
           transform="matrix(0.31271477,0,0,0.31271477,304,382.18572)" />
        <path
           style="fill:#ff2a2a;fill-opacity:1;fill-rule:evenodd;stroke:none"
           d="m 337.15205,517.48241 c -21.69852,-0.40825 -39.52507,-0.81578 -39.61458,-0.90564 -0.0895,-0.0898 6.53043,-17.34802 14.71097,-38.35149 l 14.8737,-38.18812 1.78042,0.8124 c 5.48953,2.50483 11.02226,3.66138 17.51554,3.66138 5.09426,0 8.70469,-0.53877 13.08291,-1.95229 1.61985,-0.52297 2.97867,-0.91725 3.01959,-0.87617 0.0753,0.0756 31.0977,74.56553 31.6115,75.90447 l 0.27835,0.7254 -8.90329,-0.0439 c -4.8968,-0.0241 -26.6566,-0.37786 -48.35511,-0.7861 l 0,0 z"
           id="path3603" />
        <g
           id="g3614">
          <path
             transform="matrix(0.31271477,0,0,0.31271477,296.93318,373.57495)"
             d="m 452.54836,215.11189 c 0,6.69471 -8.36683,12.12183 -18.68783,12.12183 -10.32099,0 -18.68782,-5.42712 -18.68782,-12.12183 0,-6.6947 8.36683,-12.12183 18.68782,-12.12183 10.321,0 18.68783,5.42713 18.68783,12.12183 z"
             sodipodi:ry="12.121831"
             sodipodi:rx="18.687822"
             sodipodi:cy="215.11189"
             sodipodi:cx="433.86053"
             id="path2830"
             style="fill:#000000;fill-opacity:1;fill-rule:evenodd;stroke:none"
             sodipodi:type="arc" />
          <path
             transform="matrix(0.31271477,0,0,0.31271477,294.8799,374.68056)"
             id="path3604"
             d="m 430.32499,202.99006 -9.09138,-16.66752"
             style="fill:none;stroke:#000000;stroke-width:5.5;stroke-linecap:round;stroke-linejoin:miter;stroke-miterlimit:4;stroke-opacity:1;stroke-dasharray:none" />
          <path
             transform="matrix(0.31271477,0,0,0.31271477,294.8799,374.68056)"
             id="path3606"
             d="m 442.95189,200.46468 5.55584,-23.73859"
             style="fill:none;stroke:#000000;stroke-width:5.5;stroke-linecap:round;stroke-linejoin:miter;stroke-miterlimit:4;stroke-opacity:1;stroke-dasharray:none" />
          <path
             id="path3608"
             d="m 436.39845,438.15855 6.31779,-6.15985"
             style="fill:none;stroke:#000000;stroke-width:1.71993124;stroke-linecap:round;stroke-linejoin:miter;stroke-miterlimit:4;stroke-opacity:1;stroke-dasharray:none" />
          <path
             id="path3610"
             d="m 437.07394,441.26379 8.91543,-1.94597"
             style="fill:none;stroke:#000000;stroke-width:1.71993124;stroke-linecap:round;stroke-linejoin:miter;stroke-miterlimit:4;stroke-opacity:1;stroke-dasharray:none" />
          <path
             id="path3612"
             d="m 434.34517,442.73895 8.68696,3.00095"
             style="fill:none;stroke:#000000;stroke-width:1.71993124;stroke-linecap:round;stroke-linejoin:miter;stroke-miterlimit:4;stroke-opacity:1;stroke-dasharray:none" />
        </g>
        <g
           id="g3622"
           transform="matrix(0.92498951,0.37999264,-0.37999264,0.92498951,201.78895,-101.04224)">
          <path
             sodipodi:type="arc"
             style="fill:#000000;fill-opacity:1;fill-rule:evenodd;stroke:none"
             id="path3624"
             sodipodi:cx="433.86053"
             sodipodi:cy="215.11189"
             sodipodi:rx="18.687822"
             sodipodi:ry="12.121831"
             d="m 452.54836,215.11189 c 0,6.69471 -8.36683,12.12183 -18.68783,12.12183 -10.32099,0 -18.68782,-5.42712 -18.68782,-12.12183 0,-6.6947 8.36683,-12.12183 18.68782,-12.12183 10.321,0 18.68783,5.42713 18.68783,12.12183 z"
             transform="matrix(0.31271477,0,0,0.31271477,296.93318,373.57495)" />
          <path
             style="fill:none;stroke:#000000;stroke-width:5.5;stroke-linecap:round;stroke-linejoin:miter;stroke-miterlimit:4;stroke-opacity:1;stroke-dasharray:none"
             d="m 430.32499,202.99006 -9.09138,-16.66752"
             id="path3626"
             transform="matrix(0.31271477,0,0,0.31271477,294.8799,374.68056)" />
          <path
             style="fill:none;stroke:#000000;stroke-width:5.5;stroke-linecap:round;stroke-linejoin:miter;stroke-miterlimit:4;stroke-opacity:1;stroke-dasharray:none"
             d="m 442.95189,200.46468 5.55584,-23.73859"
             id="path3628"
             transform="matrix(0.31271477,0,0,0.31271477,294.8799,374.68056)" />
          <path
             style="fill:none;stroke:#000000;stroke-width:1.71993124;stroke-linecap:round;stroke-linejoin:miter;stroke-miterlimit:4;stroke-opacity:1;stroke-dasharray:none"
             d="m 436.39845,438.15855 6.31779,-6.15985"
             id="path3630" />
          <path
             style="fill:none;stroke:#000000;stroke-width:1.71993124;stroke-linecap:round;stroke-linejoin:miter;stroke-miterlimit:4;stroke-opacity:1;stroke-dasharray:none"
             d="m 437.07394,441.26379 8.91543,-1.94597"
             id="path3632" />
          <path
             style="fill:none;stroke:#000000;stroke-width:1.71993124;stroke-linecap:round;stroke-linejoin:miter;stroke-miterlimit:4;stroke-opacity:1;stroke-dasharray:none"
             d="m 434.34517,442.73895 8.68696,3.00095"
             id="path3634" />
        </g>
      </g>
    </g>
  </g>
</svg>
